M48
; DRILL file KiCad 10.0.5-1-g226df246f3 date 2026-08-27T21:19:05
; FORMAT={-:-/ absolute / metric / decimal}
; #@! TF.CreationDate,2026-08-27T21:19:05+09:00
; #@! TF.GenerationSoftware,Kicad,Pcbnew,10.0.5-1-g226df246f3
; #@! TF.FileFunction,MixedPlating,1,2
FMAT,2
METRIC
; #@! TA.AperFunction,Plated,PTH,ViaDrill
T1C0.250
; #@! TA.AperFunction,Plated,PTH,ComponentDrill
T2C0.250
; #@! TA.AperFunction,Plated,PTH,ViaDrill
T3C0.400
; #@! TA.AperFunction,Plated,PTH,ComponentDrill
T4C0.650
; #@! TA.AperFunction,Plated,PTH,ComponentDrill
T5C0.700
; #@! TA.AperFunction,Plated,PTH,ComponentDrill
T6C0.920
; #@! TA.AperFunction,Plated,PTH,ComponentDrill
T7C1.000
; #@! TA.AperFunction,Plated,PTH,ComponentDrill
T8C2.300
; #@! TA.AperFunction,NonPlated,NPTH,ComponentDrill
T9C2.750
%
G90
G05
T1
X86.0Y-84.1
X86.14Y-79.25
X90.8Y-89.2
X91.3Y-80.8
X92.275Y-75.075
X92.3Y-96.6
X92.3Y-99.0
X92.3Y-101.4
X94.8Y-99.0
X94.9Y-82.8
X95.4Y-73.3
X97.4Y-109.0
X97.4Y-111.5
X97.85Y-99.2
X97.9Y-91.4
X98.2Y-107.3
X98.7Y-76.0
X100.2Y-102.149
X100.2Y-105.8
X100.488Y-97.85
X100.5Y-94.2
X100.5Y-94.8
X101.6Y-107.4
X102.149Y-99.6
X102.7Y-113.2
X102.8Y-109.0
X103.1Y-94.5
X103.1Y-95.1
X103.85Y-96.15
X104.6Y-73.3
X105.8Y-99.6
X106.9Y-104.0
X107.6Y-96.5
X107.6Y-112.1
X107.6Y-114.7
X108.3Y-99.4
X108.3Y-100.4
X110.0Y-78.0
X111.1Y-89.0
X116.4Y-109.6
T2
X98.8Y-98.8
X98.8Y-100.0
X98.8Y-101.2
X100.0Y-98.8
X100.0Y-100.0
X100.0Y-101.2
X101.2Y-98.8
X101.2Y-100.0
X101.2Y-101.2
T3
X87.05Y-80.95
X94.0Y-82.0
X97.2Y-103.438
X97.6Y-103.438
X101.3Y-74.525
X104.0Y-82.0
X112.95Y-79.05
T6
X96.5Y-70.0
X99.0Y-70.0
X101.0Y-70.0
X103.5Y-70.0
T7
X75.87Y-74.0
X75.87Y-76.54
X75.87Y-79.08
X75.87Y-81.62
X75.87Y-84.16
X75.87Y-86.7
X75.87Y-89.24
X75.87Y-91.78
X75.87Y-94.32
X75.87Y-96.86
X75.87Y-99.4
X75.87Y-101.94
X75.87Y-104.48
X75.87Y-107.02
X75.87Y-109.56
X75.87Y-112.1
X75.87Y-114.64
X75.87Y-117.18
X78.41Y-74.0
X78.41Y-76.54
X78.41Y-79.08
X78.41Y-81.62
X78.41Y-84.16
X78.41Y-86.7
X78.41Y-89.24
X78.41Y-91.78
X78.41Y-94.32
X78.41Y-96.86
X78.41Y-99.4
X78.41Y-101.94
X78.41Y-104.48
X78.41Y-107.02
X78.41Y-109.56
X78.41Y-112.1
X78.41Y-114.64
X78.41Y-117.18
X121.59Y-74.0
X121.59Y-76.54
X121.59Y-79.08
X121.59Y-81.62
X121.59Y-84.16
X121.59Y-86.7
X121.59Y-89.24
X121.59Y-91.78
X121.59Y-94.32
X121.59Y-96.86
X121.59Y-99.4
X121.59Y-101.94
X121.59Y-104.48
X121.59Y-107.02
X121.59Y-109.56
X121.59Y-112.1
X121.59Y-114.64
X121.59Y-117.18
X124.13Y-74.0
X124.13Y-76.54
X124.13Y-79.08
X124.13Y-81.62
X124.13Y-84.16
X124.13Y-86.7
X124.13Y-89.24
X124.13Y-91.78
X124.13Y-94.32
X124.13Y-96.86
X124.13Y-99.4
X124.13Y-101.94
X124.13Y-104.48
X124.13Y-107.02
X124.13Y-109.56
X124.13Y-112.1
X124.13Y-114.64
X124.13Y-117.18
T8
X93.43Y-72.7
X106.57Y-72.7
T9
X86.03Y-74.0
X86.03Y-117.18
X113.97Y-74.0
X113.97Y-117.18
T4
X97.575Y-74.93G85X97.575Y-74.53
G05
X102.425Y-74.93G85X102.425Y-74.53
G05
T5
X97.275Y-71.95G85X97.275Y-71.45
G05
X102.725Y-71.95G85X102.725Y-71.45
G05
M30
