%TF.GenerationSoftware,KiCad,Pcbnew,10.0.5-1-g226df246f3*%
%TF.CreationDate,2026-08-27T21:19:04+09:00*%
%TF.ProjectId,rp2350_bare,72703233-3530-45f6-9261-72652e6b6963,R4*%
%TF.SameCoordinates,Original*%
%TF.FileFunction,AssemblyDrawing,Bot*%
%FSLAX46Y46*%
G04 Gerber Fmt 4.6, Leading zero omitted, Abs format (unit mm)*
G04 Created by KiCad (PCBNEW 10.0.5-1-g226df246f3) date 2026-08-27 21:19:04*
%MOMM*%
%LPD*%
G01*
G04 APERTURE LIST*
%ADD10C,0.010000*%
G04 APERTURE END LIST*
%TO.C,J5*%
D10*
X76370000Y-74000000D02*
G75*
G02*
X75370000Y-74000000I-500000J0D01*
G01*
X75370000Y-74000000D02*
G75*
G02*
X76370000Y-74000000I500000J0D01*
G01*
X76370000Y-76540000D02*
G75*
G02*
X75370000Y-76540000I-500000J0D01*
G01*
X75370000Y-76540000D02*
G75*
G02*
X76370000Y-76540000I500000J0D01*
G01*
X76370000Y-79080000D02*
G75*
G02*
X75370000Y-79080000I-500000J0D01*
G01*
X75370000Y-79080000D02*
G75*
G02*
X76370000Y-79080000I500000J0D01*
G01*
X76370000Y-81620000D02*
G75*
G02*
X75370000Y-81620000I-500000J0D01*
G01*
X75370000Y-81620000D02*
G75*
G02*
X76370000Y-81620000I500000J0D01*
G01*
X76370000Y-84160000D02*
G75*
G02*
X75370000Y-84160000I-500000J0D01*
G01*
X75370000Y-84160000D02*
G75*
G02*
X76370000Y-84160000I500000J0D01*
G01*
X76370000Y-86700000D02*
G75*
G02*
X75370000Y-86700000I-500000J0D01*
G01*
X75370000Y-86700000D02*
G75*
G02*
X76370000Y-86700000I500000J0D01*
G01*
X76370000Y-89240000D02*
G75*
G02*
X75370000Y-89240000I-500000J0D01*
G01*
X75370000Y-89240000D02*
G75*
G02*
X76370000Y-89240000I500000J0D01*
G01*
X76370000Y-91780000D02*
G75*
G02*
X75370000Y-91780000I-500000J0D01*
G01*
X75370000Y-91780000D02*
G75*
G02*
X76370000Y-91780000I500000J0D01*
G01*
X76370000Y-94320000D02*
G75*
G02*
X75370000Y-94320000I-500000J0D01*
G01*
X75370000Y-94320000D02*
G75*
G02*
X76370000Y-94320000I500000J0D01*
G01*
X76370000Y-96860000D02*
G75*
G02*
X75370000Y-96860000I-500000J0D01*
G01*
X75370000Y-96860000D02*
G75*
G02*
X76370000Y-96860000I500000J0D01*
G01*
X76370000Y-99400000D02*
G75*
G02*
X75370000Y-99400000I-500000J0D01*
G01*
X75370000Y-99400000D02*
G75*
G02*
X76370000Y-99400000I500000J0D01*
G01*
X76370000Y-101940000D02*
G75*
G02*
X75370000Y-101940000I-500000J0D01*
G01*
X75370000Y-101940000D02*
G75*
G02*
X76370000Y-101940000I500000J0D01*
G01*
X76370000Y-104480000D02*
G75*
G02*
X75370000Y-104480000I-500000J0D01*
G01*
X75370000Y-104480000D02*
G75*
G02*
X76370000Y-104480000I500000J0D01*
G01*
X76370000Y-107020000D02*
G75*
G02*
X75370000Y-107020000I-500000J0D01*
G01*
X75370000Y-107020000D02*
G75*
G02*
X76370000Y-107020000I500000J0D01*
G01*
X76370000Y-109560000D02*
G75*
G02*
X75370000Y-109560000I-500000J0D01*
G01*
X75370000Y-109560000D02*
G75*
G02*
X76370000Y-109560000I500000J0D01*
G01*
X76370000Y-112100000D02*
G75*
G02*
X75370000Y-112100000I-500000J0D01*
G01*
X75370000Y-112100000D02*
G75*
G02*
X76370000Y-112100000I500000J0D01*
G01*
X76370000Y-114640000D02*
G75*
G02*
X75370000Y-114640000I-500000J0D01*
G01*
X75370000Y-114640000D02*
G75*
G02*
X76370000Y-114640000I500000J0D01*
G01*
X76370000Y-117180000D02*
G75*
G02*
X75370000Y-117180000I-500000J0D01*
G01*
X75370000Y-117180000D02*
G75*
G02*
X76370000Y-117180000I500000J0D01*
G01*
X78910000Y-74005000D02*
G75*
G02*
X77910000Y-74005000I-500000J0D01*
G01*
X77910000Y-74005000D02*
G75*
G02*
X78910000Y-74005000I500000J0D01*
G01*
X78910000Y-76540000D02*
G75*
G02*
X77910000Y-76540000I-500000J0D01*
G01*
X77910000Y-76540000D02*
G75*
G02*
X78910000Y-76540000I500000J0D01*
G01*
X78910000Y-79080000D02*
G75*
G02*
X77910000Y-79080000I-500000J0D01*
G01*
X77910000Y-79080000D02*
G75*
G02*
X78910000Y-79080000I500000J0D01*
G01*
X78910000Y-81620000D02*
G75*
G02*
X77910000Y-81620000I-500000J0D01*
G01*
X77910000Y-81620000D02*
G75*
G02*
X78910000Y-81620000I500000J0D01*
G01*
X78910000Y-84160000D02*
G75*
G02*
X77910000Y-84160000I-500000J0D01*
G01*
X77910000Y-84160000D02*
G75*
G02*
X78910000Y-84160000I500000J0D01*
G01*
X78910000Y-86700000D02*
G75*
G02*
X77910000Y-86700000I-500000J0D01*
G01*
X77910000Y-86700000D02*
G75*
G02*
X78910000Y-86700000I500000J0D01*
G01*
X78910000Y-89240000D02*
G75*
G02*
X77910000Y-89240000I-500000J0D01*
G01*
X77910000Y-89240000D02*
G75*
G02*
X78910000Y-89240000I500000J0D01*
G01*
X78910000Y-91780000D02*
G75*
G02*
X77910000Y-91780000I-500000J0D01*
G01*
X77910000Y-91780000D02*
G75*
G02*
X78910000Y-91780000I500000J0D01*
G01*
X78910000Y-94320000D02*
G75*
G02*
X77910000Y-94320000I-500000J0D01*
G01*
X77910000Y-94320000D02*
G75*
G02*
X78910000Y-94320000I500000J0D01*
G01*
X78910000Y-96860000D02*
G75*
G02*
X77910000Y-96860000I-500000J0D01*
G01*
X77910000Y-96860000D02*
G75*
G02*
X78910000Y-96860000I500000J0D01*
G01*
X78910000Y-99400000D02*
G75*
G02*
X77910000Y-99400000I-500000J0D01*
G01*
X77910000Y-99400000D02*
G75*
G02*
X78910000Y-99400000I500000J0D01*
G01*
X78910000Y-101940000D02*
G75*
G02*
X77910000Y-101940000I-500000J0D01*
G01*
X77910000Y-101940000D02*
G75*
G02*
X78910000Y-101940000I500000J0D01*
G01*
X78910000Y-104480000D02*
G75*
G02*
X77910000Y-104480000I-500000J0D01*
G01*
X77910000Y-104480000D02*
G75*
G02*
X78910000Y-104480000I500000J0D01*
G01*
X78910000Y-107020000D02*
G75*
G02*
X77910000Y-107020000I-500000J0D01*
G01*
X77910000Y-107020000D02*
G75*
G02*
X78910000Y-107020000I500000J0D01*
G01*
X78910000Y-109560000D02*
G75*
G02*
X77910000Y-109560000I-500000J0D01*
G01*
X77910000Y-109560000D02*
G75*
G02*
X78910000Y-109560000I500000J0D01*
G01*
X78910000Y-112100000D02*
G75*
G02*
X77910000Y-112100000I-500000J0D01*
G01*
X77910000Y-112100000D02*
G75*
G02*
X78910000Y-112100000I500000J0D01*
G01*
X78910000Y-114640000D02*
G75*
G02*
X77910000Y-114640000I-500000J0D01*
G01*
X77910000Y-114640000D02*
G75*
G02*
X78910000Y-114640000I500000J0D01*
G01*
X78910000Y-117180000D02*
G75*
G02*
X77910000Y-117180000I-500000J0D01*
G01*
X77910000Y-117180000D02*
G75*
G02*
X78910000Y-117180000I500000J0D01*
G01*
%TO.C,J3*%
X122090000Y-74000000D02*
G75*
G02*
X121090000Y-74000000I-500000J0D01*
G01*
X121090000Y-74000000D02*
G75*
G02*
X122090000Y-74000000I500000J0D01*
G01*
X122090000Y-76540000D02*
G75*
G02*
X121090000Y-76540000I-500000J0D01*
G01*
X121090000Y-76540000D02*
G75*
G02*
X122090000Y-76540000I500000J0D01*
G01*
X122090000Y-79080000D02*
G75*
G02*
X121090000Y-79080000I-500000J0D01*
G01*
X121090000Y-79080000D02*
G75*
G02*
X122090000Y-79080000I500000J0D01*
G01*
X122090000Y-81620000D02*
G75*
G02*
X121090000Y-81620000I-500000J0D01*
G01*
X121090000Y-81620000D02*
G75*
G02*
X122090000Y-81620000I500000J0D01*
G01*
X122090000Y-84160000D02*
G75*
G02*
X121090000Y-84160000I-500000J0D01*
G01*
X121090000Y-84160000D02*
G75*
G02*
X122090000Y-84160000I500000J0D01*
G01*
X122090000Y-86700000D02*
G75*
G02*
X121090000Y-86700000I-500000J0D01*
G01*
X121090000Y-86700000D02*
G75*
G02*
X122090000Y-86700000I500000J0D01*
G01*
X122090000Y-89240000D02*
G75*
G02*
X121090000Y-89240000I-500000J0D01*
G01*
X121090000Y-89240000D02*
G75*
G02*
X122090000Y-89240000I500000J0D01*
G01*
X122090000Y-91780000D02*
G75*
G02*
X121090000Y-91780000I-500000J0D01*
G01*
X121090000Y-91780000D02*
G75*
G02*
X122090000Y-91780000I500000J0D01*
G01*
X122090000Y-94320000D02*
G75*
G02*
X121090000Y-94320000I-500000J0D01*
G01*
X121090000Y-94320000D02*
G75*
G02*
X122090000Y-94320000I500000J0D01*
G01*
X122090000Y-96860000D02*
G75*
G02*
X121090000Y-96860000I-500000J0D01*
G01*
X121090000Y-96860000D02*
G75*
G02*
X122090000Y-96860000I500000J0D01*
G01*
X122090000Y-99400000D02*
G75*
G02*
X121090000Y-99400000I-500000J0D01*
G01*
X121090000Y-99400000D02*
G75*
G02*
X122090000Y-99400000I500000J0D01*
G01*
X122090000Y-101940000D02*
G75*
G02*
X121090000Y-101940000I-500000J0D01*
G01*
X121090000Y-101940000D02*
G75*
G02*
X122090000Y-101940000I500000J0D01*
G01*
X122090000Y-104480000D02*
G75*
G02*
X121090000Y-104480000I-500000J0D01*
G01*
X121090000Y-104480000D02*
G75*
G02*
X122090000Y-104480000I500000J0D01*
G01*
X122090000Y-107020000D02*
G75*
G02*
X121090000Y-107020000I-500000J0D01*
G01*
X121090000Y-107020000D02*
G75*
G02*
X122090000Y-107020000I500000J0D01*
G01*
X122090000Y-109560000D02*
G75*
G02*
X121090000Y-109560000I-500000J0D01*
G01*
X121090000Y-109560000D02*
G75*
G02*
X122090000Y-109560000I500000J0D01*
G01*
X122090000Y-112100000D02*
G75*
G02*
X121090000Y-112100000I-500000J0D01*
G01*
X121090000Y-112100000D02*
G75*
G02*
X122090000Y-112100000I500000J0D01*
G01*
X122090000Y-114640000D02*
G75*
G02*
X121090000Y-114640000I-500000J0D01*
G01*
X121090000Y-114640000D02*
G75*
G02*
X122090000Y-114640000I500000J0D01*
G01*
X122090000Y-117180000D02*
G75*
G02*
X121090000Y-117180000I-500000J0D01*
G01*
X121090000Y-117180000D02*
G75*
G02*
X122090000Y-117180000I500000J0D01*
G01*
X124630000Y-74005000D02*
G75*
G02*
X123630000Y-74005000I-500000J0D01*
G01*
X123630000Y-74005000D02*
G75*
G02*
X124630000Y-74005000I500000J0D01*
G01*
X124630000Y-76540000D02*
G75*
G02*
X123630000Y-76540000I-500000J0D01*
G01*
X123630000Y-76540000D02*
G75*
G02*
X124630000Y-76540000I500000J0D01*
G01*
X124630000Y-79080000D02*
G75*
G02*
X123630000Y-79080000I-500000J0D01*
G01*
X123630000Y-79080000D02*
G75*
G02*
X124630000Y-79080000I500000J0D01*
G01*
X124630000Y-81620000D02*
G75*
G02*
X123630000Y-81620000I-500000J0D01*
G01*
X123630000Y-81620000D02*
G75*
G02*
X124630000Y-81620000I500000J0D01*
G01*
X124630000Y-84160000D02*
G75*
G02*
X123630000Y-84160000I-500000J0D01*
G01*
X123630000Y-84160000D02*
G75*
G02*
X124630000Y-84160000I500000J0D01*
G01*
X124630000Y-86700000D02*
G75*
G02*
X123630000Y-86700000I-500000J0D01*
G01*
X123630000Y-86700000D02*
G75*
G02*
X124630000Y-86700000I500000J0D01*
G01*
X124630000Y-89240000D02*
G75*
G02*
X123630000Y-89240000I-500000J0D01*
G01*
X123630000Y-89240000D02*
G75*
G02*
X124630000Y-89240000I500000J0D01*
G01*
X124630000Y-91780000D02*
G75*
G02*
X123630000Y-91780000I-500000J0D01*
G01*
X123630000Y-91780000D02*
G75*
G02*
X124630000Y-91780000I500000J0D01*
G01*
X124630000Y-94320000D02*
G75*
G02*
X123630000Y-94320000I-500000J0D01*
G01*
X123630000Y-94320000D02*
G75*
G02*
X124630000Y-94320000I500000J0D01*
G01*
X124630000Y-96860000D02*
G75*
G02*
X123630000Y-96860000I-500000J0D01*
G01*
X123630000Y-96860000D02*
G75*
G02*
X124630000Y-96860000I500000J0D01*
G01*
X124630000Y-99400000D02*
G75*
G02*
X123630000Y-99400000I-500000J0D01*
G01*
X123630000Y-99400000D02*
G75*
G02*
X124630000Y-99400000I500000J0D01*
G01*
X124630000Y-101940000D02*
G75*
G02*
X123630000Y-101940000I-500000J0D01*
G01*
X123630000Y-101940000D02*
G75*
G02*
X124630000Y-101940000I500000J0D01*
G01*
X124630000Y-104480000D02*
G75*
G02*
X123630000Y-104480000I-500000J0D01*
G01*
X123630000Y-104480000D02*
G75*
G02*
X124630000Y-104480000I500000J0D01*
G01*
X124630000Y-107020000D02*
G75*
G02*
X123630000Y-107020000I-500000J0D01*
G01*
X123630000Y-107020000D02*
G75*
G02*
X124630000Y-107020000I500000J0D01*
G01*
X124630000Y-109560000D02*
G75*
G02*
X123630000Y-109560000I-500000J0D01*
G01*
X123630000Y-109560000D02*
G75*
G02*
X124630000Y-109560000I500000J0D01*
G01*
X124630000Y-112100000D02*
G75*
G02*
X123630000Y-112100000I-500000J0D01*
G01*
X123630000Y-112100000D02*
G75*
G02*
X124630000Y-112100000I500000J0D01*
G01*
X124630000Y-114640000D02*
G75*
G02*
X123630000Y-114640000I-500000J0D01*
G01*
X123630000Y-114640000D02*
G75*
G02*
X124630000Y-114640000I500000J0D01*
G01*
X124630000Y-117180000D02*
G75*
G02*
X123630000Y-117180000I-500000J0D01*
G01*
X123630000Y-117180000D02*
G75*
G02*
X124630000Y-117180000I500000J0D01*
G01*
%TO.C,MH2*%
X115345000Y-74000000D02*
G75*
G02*
X112595000Y-74000000I-1375000J0D01*
G01*
X112595000Y-74000000D02*
G75*
G02*
X115345000Y-74000000I1375000J0D01*
G01*
X116970000Y-74000000D02*
G75*
G02*
X110970000Y-74000000I-3000000J0D01*
G01*
X110970000Y-74000000D02*
G75*
G02*
X116970000Y-74000000I3000000J0D01*
G01*
%TO.C,MH3*%
X115345000Y-117180000D02*
G75*
G02*
X112595000Y-117180000I-1375000J0D01*
G01*
X112595000Y-117180000D02*
G75*
G02*
X115345000Y-117180000I1375000J0D01*
G01*
X116970000Y-117180000D02*
G75*
G02*
X110970000Y-117180000I-3000000J0D01*
G01*
X110970000Y-117180000D02*
G75*
G02*
X116970000Y-117180000I3000000J0D01*
G01*
%TO.C,MH1*%
X87405000Y-74000000D02*
G75*
G02*
X84655000Y-74000000I-1375000J0D01*
G01*
X84655000Y-74000000D02*
G75*
G02*
X87405000Y-74000000I1375000J0D01*
G01*
X89030000Y-74000000D02*
G75*
G02*
X83030000Y-74000000I-3000000J0D01*
G01*
X83030000Y-74000000D02*
G75*
G02*
X89030000Y-74000000I3000000J0D01*
G01*
%TO.C,MH4*%
X87405000Y-117180000D02*
G75*
G02*
X84655000Y-117180000I-1375000J0D01*
G01*
X84655000Y-117180000D02*
G75*
G02*
X87405000Y-117180000I1375000J0D01*
G01*
X89030000Y-117180000D02*
G75*
G02*
X83030000Y-117180000I-3000000J0D01*
G01*
X83030000Y-117180000D02*
G75*
G02*
X89030000Y-117180000I3000000J0D01*
G01*
%TD*%
M02*
