%TF.GenerationSoftware,KiCad,Pcbnew,10.0.5-1-g226df246f3*%
%TF.CreationDate,2026-08-27T21:19:04+09:00*%
%TF.ProjectId,rp2350_bare,72703233-3530-45f6-9261-72652e6b6963,R4*%
%TF.SameCoordinates,Original*%
%TF.FileFunction,Copper,L2,Bot*%
%TF.FilePolarity,Positive*%
%FSLAX46Y46*%
G04 Gerber Fmt 4.6, Leading zero omitted, Abs format (unit mm)*
G04 Created by KiCad (PCBNEW 10.0.5-1-g226df246f3) date 2026-08-27 21:19:04*
%MOMM*%
%LPD*%
G01*
G04 APERTURE LIST*
G04 Aperture macros list*
%AMRoundRect*
0 Rectangle with rounded corners*
0 $1 Rounding radius*
0 $2 $3 $4 $5 $6 $7 $8 $9 X,Y pos of 4 corners*
0 Add a 4 corners polygon primitive as box body*
4,1,4,$2,$3,$4,$5,$6,$7,$8,$9,$2,$3,0*
0 Add four circle primitives for the rounded corners*
1,1,$1+$1,$2,$3*
1,1,$1+$1,$4,$5*
1,1,$1+$1,$6,$7*
1,1,$1+$1,$8,$9*
0 Add four rect primitives between the rounded corners*
20,1,$1+$1,$2,$3,$4,$5,0*
20,1,$1+$1,$4,$5,$6,$7,0*
20,1,$1+$1,$6,$7,$8,$9,0*
20,1,$1+$1,$8,$9,$2,$3,0*%
G04 Aperture macros list end*
%TA.AperFunction,ComponentPad*%
%ADD10O,1.050000X1.450000*%
%TD*%
%TA.AperFunction,ComponentPad*%
%ADD11O,1.100000X1.800000*%
%TD*%
%TA.AperFunction,ComponentPad*%
%ADD12R,1.600000X1.600000*%
%TD*%
%TA.AperFunction,ComponentPad*%
%ADD13C,1.600000*%
%TD*%
%TA.AperFunction,ComponentPad*%
%ADD14C,0.600000*%
%TD*%
%TA.AperFunction,ComponentPad*%
%ADD15C,1.800000*%
%TD*%
%TA.AperFunction,ComponentPad*%
%ADD16C,2.800000*%
%TD*%
%TA.AperFunction,SMDPad,CuDef*%
%ADD17R,0.600000X1.000000*%
%TD*%
%TA.AperFunction,SMDPad,CuDef*%
%ADD18RoundRect,0.220000X-0.330000X-0.330000X0.330000X-0.330000X0.330000X0.330000X-0.330000X0.330000X0*%
%TD*%
%TA.AperFunction,ViaPad*%
%ADD19C,0.600000*%
%TD*%
%TA.AperFunction,ViaPad*%
%ADD20C,0.800000*%
%TD*%
%TA.AperFunction,Conductor*%
%ADD21C,0.600000*%
%TD*%
%TA.AperFunction,Conductor*%
%ADD22C,0.150000*%
%TD*%
%TA.AperFunction,Conductor*%
%ADD23C,0.200000*%
%TD*%
%TA.AperFunction,Conductor*%
%ADD24C,0.400000*%
%TD*%
%TA.AperFunction,Conductor*%
%ADD25C,0.300000*%
%TD*%
G04 APERTURE END LIST*
D10*
%TO.P,J1,6,SH_6*%
%TO.N,GND*%
X102425000Y-74730000D03*
D11*
%TO.P,J1,7,SH_7*%
X102725000Y-71700000D03*
D10*
%TO.P,J1,9,SH_9*%
X97575000Y-74730000D03*
D11*
%TO.P,J1,10,SH_10*%
X97275000Y-71700000D03*
%TD*%
D12*
%TO.P,J5,1,Pin_1_1*%
%TO.N,GND*%
X75870000Y-74000000D03*
D13*
%TO.P,J5,2,Pin_2_2*%
%TO.N,+3V3*%
X78410000Y-74000000D03*
%TO.P,J5,3,Pin_3_3*%
%TO.N,GND*%
X75870000Y-76540000D03*
%TO.P,J5,4,Pin_4_4*%
%TO.N,/GPIO0*%
X78410000Y-76540000D03*
%TO.P,J5,5,Pin_5_5*%
%TO.N,GND*%
X75870000Y-79080000D03*
%TO.P,J5,6,Pin_6_6*%
%TO.N,/GPIO1*%
X78410000Y-79080000D03*
%TO.P,J5,7,Pin_7_7*%
%TO.N,GND*%
X75870000Y-81620000D03*
%TO.P,J5,8,Pin_8_8*%
%TO.N,/GPIO2*%
X78410000Y-81620000D03*
%TO.P,J5,9,Pin_9_9*%
%TO.N,GND*%
X75870000Y-84160000D03*
%TO.P,J5,10,Pin_10_10*%
%TO.N,/GPIO3*%
X78410000Y-84160000D03*
%TO.P,J5,11,Pin_11_11*%
%TO.N,GND*%
X75870000Y-86700000D03*
%TO.P,J5,12,Pin_12_12*%
%TO.N,/GPIO4*%
X78410000Y-86700000D03*
%TO.P,J5,13,Pin_13_13*%
%TO.N,GND*%
X75870000Y-89240000D03*
%TO.P,J5,14,Pin_14_14*%
%TO.N,/GPIO5*%
X78410000Y-89240000D03*
%TO.P,J5,15,Pin_15_15*%
%TO.N,GND*%
X75870000Y-91780000D03*
%TO.P,J5,16,Pin_16_16*%
%TO.N,/GPIO6*%
X78410000Y-91780000D03*
%TO.P,J5,17,Pin_17_17*%
%TO.N,GND*%
X75870000Y-94320000D03*
%TO.P,J5,18,Pin_18_18*%
%TO.N,/GPIO7*%
X78410000Y-94320000D03*
%TO.P,J5,19,Pin_19_19*%
%TO.N,GND*%
X75870000Y-96860000D03*
%TO.P,J5,20,Pin_20_20*%
%TO.N,/GPIO8*%
X78410000Y-96860000D03*
%TO.P,J5,21,Pin_21_21*%
%TO.N,GND*%
X75870000Y-99400000D03*
%TO.P,J5,22,Pin_22_22*%
%TO.N,/GPIO9*%
X78410000Y-99400000D03*
%TO.P,J5,23,Pin_23_23*%
%TO.N,GND*%
X75870000Y-101940000D03*
%TO.P,J5,24,Pin_24_24*%
%TO.N,/GPIO10*%
X78410000Y-101940000D03*
%TO.P,J5,25,Pin_25_25*%
%TO.N,GND*%
X75870000Y-104480000D03*
%TO.P,J5,26,Pin_26_26*%
%TO.N,/GPIO11*%
X78410000Y-104480000D03*
%TO.P,J5,27,Pin_27_27*%
%TO.N,GND*%
X75870000Y-107020000D03*
%TO.P,J5,28,Pin_28_28*%
%TO.N,/GPIO12*%
X78410000Y-107020000D03*
%TO.P,J5,29,Pin_29_29*%
%TO.N,GND*%
X75870000Y-109560000D03*
%TO.P,J5,30,Pin_30_30*%
%TO.N,/GPIO13*%
X78410000Y-109560000D03*
%TO.P,J5,31,Pin_31_31*%
%TO.N,GND*%
X75870000Y-112100000D03*
%TO.P,J5,32,Pin_32_32*%
%TO.N,/GPIO14*%
X78410000Y-112100000D03*
%TO.P,J5,33,Pin_33_33*%
%TO.N,GND*%
X75870000Y-114640000D03*
%TO.P,J5,34,Pin_34_34*%
%TO.N,/GPIO15*%
X78410000Y-114640000D03*
%TO.P,J5,35,Pin_35_35*%
%TO.N,GND*%
X75870000Y-117180000D03*
%TO.P,J5,36,Pin_36_36*%
X78410000Y-117180000D03*
%TD*%
D12*
%TO.P,J3,1,Pin_1_1*%
%TO.N,/GPIO29_ADC3*%
X121590000Y-74000000D03*
D13*
%TO.P,J3,2,Pin_2_2*%
%TO.N,GND*%
X124130000Y-74000000D03*
%TO.P,J3,3,Pin_3_3*%
%TO.N,/GPIO28_ADC2*%
X121590000Y-76540000D03*
%TO.P,J3,4,Pin_4_4*%
%TO.N,GND*%
X124130000Y-76540000D03*
%TO.P,J3,5,Pin_5_5*%
%TO.N,/GPIO27_ADC1*%
X121590000Y-79080000D03*
%TO.P,J3,6,Pin_6_6*%
%TO.N,GND*%
X124130000Y-79080000D03*
%TO.P,J3,7,Pin_7_7*%
%TO.N,/GPIO26_ADC0*%
X121590000Y-81620000D03*
%TO.P,J3,8,Pin_8_8*%
%TO.N,GND*%
X124130000Y-81620000D03*
%TO.P,J3,9,Pin_9_9*%
%TO.N,/GPIO25*%
X121590000Y-84160000D03*
%TO.P,J3,10,Pin_10_10*%
%TO.N,GND*%
X124130000Y-84160000D03*
%TO.P,J3,11,Pin_11_11*%
%TO.N,/GPIO24*%
X121590000Y-86700000D03*
%TO.P,J3,12,Pin_12_12*%
%TO.N,GND*%
X124130000Y-86700000D03*
%TO.P,J3,13,Pin_13_13*%
%TO.N,/GPIO23*%
X121590000Y-89240000D03*
%TO.P,J3,14,Pin_14_14*%
%TO.N,GND*%
X124130000Y-89240000D03*
%TO.P,J3,15,Pin_15_15*%
%TO.N,/GPIO22*%
X121590000Y-91780000D03*
%TO.P,J3,16,Pin_16_16*%
%TO.N,GND*%
X124130000Y-91780000D03*
%TO.P,J3,17,Pin_17_17*%
%TO.N,/GPIO21*%
X121590000Y-94320000D03*
%TO.P,J3,18,Pin_18_18*%
%TO.N,GND*%
X124130000Y-94320000D03*
%TO.P,J3,19,Pin_19_19*%
%TO.N,/GPIO20*%
X121590000Y-96860000D03*
%TO.P,J3,20,Pin_20_20*%
%TO.N,GND*%
X124130000Y-96860000D03*
%TO.P,J3,21,Pin_21_21*%
%TO.N,/GPIO19*%
X121590000Y-99400000D03*
%TO.P,J3,22,Pin_22_22*%
%TO.N,GND*%
X124130000Y-99400000D03*
%TO.P,J3,23,Pin_23_23*%
%TO.N,/GPIO18*%
X121590000Y-101940000D03*
%TO.P,J3,24,Pin_24_24*%
%TO.N,GND*%
X124130000Y-101940000D03*
%TO.P,J3,25,Pin_25_25*%
%TO.N,/GPIO17*%
X121590000Y-104480000D03*
%TO.P,J3,26,Pin_26_26*%
%TO.N,GND*%
X124130000Y-104480000D03*
%TO.P,J3,27,Pin_27_27*%
%TO.N,/GPIO16*%
X121590000Y-107020000D03*
%TO.P,J3,28,Pin_28_28*%
%TO.N,GND*%
X124130000Y-107020000D03*
%TO.P,J3,29,Pin_29_29*%
%TO.N,/RUN*%
X121590000Y-109560000D03*
%TO.P,J3,30,Pin_30_30*%
%TO.N,GND*%
X124130000Y-109560000D03*
%TO.P,J3,31,Pin_31_31*%
%TO.N,/SWD*%
X121590000Y-112100000D03*
%TO.P,J3,32,Pin_32_32*%
%TO.N,GND*%
X124130000Y-112100000D03*
%TO.P,J3,33,Pin_33_33*%
%TO.N,/SWCLK*%
X121590000Y-114640000D03*
%TO.P,J3,34,Pin_34_34*%
%TO.N,GND*%
X124130000Y-114640000D03*
%TO.P,J3,35,Pin_35_35*%
X121590000Y-117180000D03*
%TO.P,J3,36,Pin_36_36*%
X124130000Y-117180000D03*
%TD*%
D14*
%TO.P,U1,61,GND_61*%
%TO.N,GND*%
X98800000Y-98800000D03*
X98800000Y-100000000D03*
X98800000Y-101200000D03*
X100000000Y-98800000D03*
X100000000Y-100000000D03*
X100000000Y-101200000D03*
X101200000Y-98800000D03*
X101200000Y-100000000D03*
X101200000Y-101200000D03*
%TD*%
D15*
%TO.P,J2,1*%
%TO.N,USB_A_VBUS*%
X96500000Y-70000000D03*
%TO.P,J2,2*%
%TO.N,USB_A_DM*%
X99000000Y-70000000D03*
%TO.P,J2,3*%
%TO.N,USB_A_DP*%
X101000000Y-70000000D03*
%TO.P,J2,4*%
%TO.N,GND*%
X103500000Y-70000000D03*
D16*
%TO.P,J2,5*%
X93430000Y-72700000D03*
%TO.P,J2,6*%
X106570000Y-72700000D03*
%TD*%
D17*
%TO.P,U5,1*%
%TO.N,GND*%
X87050000Y-80950000D03*
%TO.P,U5,2*%
%TO.N,VBUS*%
X88000000Y-80950000D03*
%TO.P,U5,3*%
%TO.N,GND*%
X88950000Y-80950000D03*
%TO.P,U5,4*%
%TO.N,USB_A_VBUS*%
X88950000Y-79050000D03*
%TO.P,U5,5*%
%TO.N,GND*%
X87050000Y-79050000D03*
%TD*%
%TO.P,U6,1*%
%TO.N,USB_A_DP*%
X111050000Y-80950000D03*
%TO.P,U6,2*%
%TO.N,GND*%
X112000000Y-80950000D03*
%TO.P,U6,3*%
%TO.N,USB_A_DM*%
X112950000Y-80950000D03*
%TO.P,U6,4*%
%TO.N,GND*%
X112950000Y-79050000D03*
%TO.P,U6,5*%
%TO.N,USB_A_VBUS*%
X112000000Y-79050000D03*
%TO.P,U6,6*%
%TO.N,GND*%
X111050000Y-79050000D03*
%TD*%
D18*
%TO.P,R11,1*%
%TO.N,/GPIO12*%
X105200000Y-84000000D03*
%TO.P,R11,2*%
%TO.N,USB_A_DP*%
X106800000Y-84000000D03*
%TD*%
%TO.P,R12,1*%
%TO.N,/GPIO13*%
X105200000Y-88000000D03*
%TO.P,R12,2*%
%TO.N,USB_A_DM*%
X106800000Y-88000000D03*
%TD*%
%TO.P,F1,1*%
%TO.N,VBUS*%
X83200000Y-70000000D03*
%TO.P,F1,2*%
X84800000Y-70000000D03*
%TD*%
D19*
%TO.N,+3V3*%
X95400000Y-73300000D03*
X104600000Y-73300000D03*
%TO.N,GND*%
X97400000Y-111500000D03*
X103100000Y-95100000D03*
X107600000Y-112100000D03*
X94900000Y-82800000D03*
X97900000Y-91400000D03*
X98200000Y-107300000D03*
X110000000Y-78000000D03*
X116400000Y-109600000D03*
X107600000Y-114700000D03*
X101600000Y-107400000D03*
X86140000Y-79250000D03*
X90800000Y-89200000D03*
X92300000Y-99000000D03*
X111100000Y-89000000D03*
X102800000Y-109000000D03*
X103850000Y-96150000D03*
X106900000Y-104000000D03*
X108300000Y-100400000D03*
X98700000Y-76000000D03*
X107600000Y-96500000D03*
X102700000Y-113200000D03*
X108300000Y-99400000D03*
X92300000Y-96600000D03*
X103100000Y-94500000D03*
X97400000Y-109000000D03*
X92300000Y-101400000D03*
X92275000Y-75075000D03*
%TO.N,/GPIO0*%
X91300000Y-80800000D03*
X86000000Y-84100000D03*
%TO.N,+1V1*%
X100487770Y-97850500D03*
X105800000Y-99600000D03*
X94800000Y-99000000D03*
X100500000Y-94200000D03*
X100200000Y-102149500D03*
X97850500Y-99200000D03*
X100200000Y-105800000D03*
X100500000Y-94800000D03*
X102149500Y-99600000D03*
D20*
%TO.N,GND*%
X94000000Y-82000000D03*
X104000000Y-82000000D03*
%TO.N,/GPIO12*%
X97200000Y-103437500D03*
%TO.N,/GPIO13*%
X97600000Y-103437500D03*
%TO.N,VBUS*%
X101300000Y-74525000D03*
%TO.N,GND*%
X87050000Y-80950000D03*
X112950000Y-79050000D03*
%TD*%
%TO.N,+3V3*%
D21*
X95400000Y-73300000D02*
X104600000Y-73300000D01*
%TO.N,/GPIO0*%
D22*
X89300000Y-80800000D02*
X91300000Y-80800000D01*
X86000000Y-84100000D02*
X89300000Y-80800000D01*
%TO.N,+1V1*%
D21*
X100500000Y-97838270D02*
X100500000Y-94200000D01*
X95000000Y-99200000D02*
X94800000Y-99000000D01*
X100200000Y-102149500D02*
X100200000Y-105800000D01*
X100487770Y-97850500D02*
X100500000Y-97838270D01*
X97850500Y-99200000D02*
X95000000Y-99200000D01*
X105800000Y-99600000D02*
X102149500Y-99600000D01*
%TO.N,/GPIO12*%
D23*
X97200000Y-103437500D02*
X105200000Y-84000000D01*
%TO.N,/GPIO13*%
X97600000Y-103437500D02*
X105200000Y-88000000D01*
%TO.N,USB_A_DP*%
X106800000Y-84000000D02*
X111050000Y-80950000D01*
%TO.N,USB_A_DM*%
X112950000Y-80950000D02*
X101000000Y-70000000D01*
X106800000Y-88000000D02*
X112950000Y-80950000D01*
%TO.N,USB_A_DP*%
X111050000Y-80950000D02*
X101000000Y-70000000D01*
%TO.N,VBUS*%
D24*
X84800000Y-70000000D02*
X88000000Y-80950000D01*
%TO.N,USB_A_VBUS*%
X88000000Y-80950000D02*
X101000000Y-70000000D01*
D23*
X88950000Y-79050000D02*
X100000000Y-70000000D01*
%TO.N,VBUS*%
D24*
X83200000Y-70000000D02*
X84800000Y-70000000D01*
X84800000Y-70000000D02*
X101300000Y-74525000D01*
%TO.N,USB_A_VBUS*%
X88950000Y-79050000D02*
X112000000Y-79050000D01*
X112000000Y-79050000D02*
X96500000Y-70000000D01*
%TO.N,USB_A_DP*%
D23*
X106800000Y-84000000D02*
X108000000Y-82000000D01*
X108000000Y-82000000D02*
X111050000Y-80950000D01*
X111050000Y-80950000D02*
X101000000Y-70000000D01*
%TO.N,USB_A_DM*%
X106800000Y-88000000D02*
X107000000Y-90000000D01*
X107000000Y-90000000D02*
X112000000Y-90000000D01*
X112000000Y-90000000D02*
X112950000Y-80950000D01*
X112950000Y-80950000D02*
X99000000Y-70000000D01*
%TO.N,GND*%
D25*
X87050000Y-79050000D02*
X87050000Y-80950000D01*
X87050000Y-80950000D02*
X90950000Y-70950000D01*
X112000000Y-80950000D02*
X112950000Y-80950000D01*
X112950000Y-80950000D02*
X112950000Y-79050000D01*
X112950000Y-79050000D02*
X109050000Y-69050000D01*
%TD*%
%TA.AperFunction,Conductor*%
%TO.N,GND*%
G36*
X124025694Y-70507536D02*
G01*
X124166134Y-70565708D01*
X124176136Y-70570525D01*
X124431354Y-70711578D01*
X124440755Y-70717485D01*
X124678575Y-70886228D01*
X124687254Y-70893149D01*
X124717388Y-70920078D01*
X124904697Y-71087467D01*
X124912532Y-71095302D01*
X125006053Y-71199952D01*
X125106850Y-71312745D01*
X125113771Y-71321424D01*
X125282514Y-71559244D01*
X125288421Y-71568645D01*
X125429474Y-71823863D01*
X125434291Y-71833865D01*
X125441471Y-71851198D01*
X125492464Y-71974306D01*
X125500000Y-72012190D01*
X125500000Y-118987808D01*
X125492464Y-119025694D01*
X125434291Y-119166134D01*
X125429474Y-119176136D01*
X125288421Y-119431354D01*
X125282514Y-119440755D01*
X125113771Y-119678575D01*
X125106850Y-119687254D01*
X124912540Y-119904689D01*
X124904689Y-119912540D01*
X124687254Y-120106850D01*
X124678575Y-120113771D01*
X124440755Y-120282514D01*
X124431354Y-120288421D01*
X124176136Y-120429474D01*
X124166134Y-120434291D01*
X124025694Y-120492464D01*
X123987808Y-120500000D01*
X76012192Y-120500000D01*
X75974306Y-120492464D01*
X75833865Y-120434291D01*
X75823863Y-120429474D01*
X75568645Y-120288421D01*
X75559244Y-120282514D01*
X75321424Y-120113771D01*
X75312745Y-120106850D01*
X75179321Y-119987616D01*
X75095302Y-119912532D01*
X75087467Y-119904697D01*
X74915036Y-119711746D01*
X74893149Y-119687254D01*
X74886228Y-119678575D01*
X74717485Y-119440755D01*
X74711578Y-119431354D01*
X74570525Y-119176136D01*
X74565708Y-119166134D01*
X74507536Y-119025694D01*
X74500000Y-118987808D01*
X74500000Y-117093424D01*
X74770000Y-117093424D01*
X74770000Y-117266575D01*
X74797084Y-117437579D01*
X74850588Y-117602248D01*
X74929195Y-117756524D01*
X74929197Y-117756528D01*
X74993219Y-117844646D01*
X75426328Y-117411536D01*
X75469901Y-117487007D01*
X75562993Y-117580099D01*
X75638460Y-117623670D01*
X75205352Y-118056778D01*
X75293477Y-118120805D01*
X75447751Y-118199411D01*
X75612420Y-118252915D01*
X75783425Y-118280000D01*
X75956575Y-118280000D01*
X76127579Y-118252915D01*
X76292248Y-118199411D01*
X76446524Y-118120804D01*
X76446530Y-118120800D01*
X76534646Y-118056779D01*
X76534646Y-118056778D01*
X76101538Y-117623670D01*
X76177007Y-117580099D01*
X76270099Y-117487007D01*
X76313670Y-117411538D01*
X76746778Y-117844646D01*
X76746779Y-117844646D01*
X76810800Y-117756530D01*
X76810804Y-117756524D01*
X76889411Y-117602248D01*
X76942915Y-117437579D01*
X76970000Y-117266575D01*
X76970000Y-117093424D01*
X77310000Y-117093424D01*
X77310000Y-117266575D01*
X77337084Y-117437579D01*
X77390588Y-117602248D01*
X77469195Y-117756524D01*
X77469197Y-117756528D01*
X77533219Y-117844646D01*
X77966328Y-117411536D01*
X78009901Y-117487007D01*
X78102993Y-117580099D01*
X78178460Y-117623670D01*
X77745352Y-118056778D01*
X77833477Y-118120805D01*
X77987751Y-118199411D01*
X78152420Y-118252915D01*
X78323425Y-118280000D01*
X78496575Y-118280000D01*
X78667579Y-118252915D01*
X78832248Y-118199411D01*
X78986524Y-118120804D01*
X78986530Y-118120800D01*
X79074646Y-118056779D01*
X79074646Y-118056778D01*
X78641538Y-117623670D01*
X78717007Y-117580099D01*
X78810099Y-117487007D01*
X78853670Y-117411538D01*
X79286778Y-117844646D01*
X79286779Y-117844646D01*
X79350800Y-117756530D01*
X79350804Y-117756524D01*
X79429411Y-117602248D01*
X79482915Y-117437579D01*
X79510000Y-117266575D01*
X79510000Y-117180000D01*
X83030000Y-117180000D01*
X83030496Y-117257243D01*
X83038451Y-117411569D01*
X83054338Y-117565255D01*
X83078114Y-117717915D01*
X83109722Y-117869172D01*
X83149076Y-118018609D01*
X83196066Y-118165803D01*
X83250574Y-118310390D01*
X83312440Y-118451949D01*
X83381515Y-118590146D01*
X83381524Y-118590164D01*
X83457624Y-118724624D01*
X83457635Y-118724643D01*
X83540552Y-118855003D01*
X83630088Y-118980946D01*
X83630092Y-118980951D01*
X83725980Y-119102102D01*
X83827975Y-119218154D01*
X83827984Y-119218164D01*
X83887230Y-119278955D01*
X83935820Y-119328813D01*
X83935823Y-119328816D01*
X84049215Y-119433769D01*
X84167851Y-119532740D01*
X84167878Y-119532762D01*
X84214021Y-119567388D01*
X84291448Y-119625490D01*
X84419644Y-119711746D01*
X84552111Y-119791289D01*
X84688496Y-119863906D01*
X84688499Y-119863907D01*
X84688500Y-119863908D01*
X84828432Y-119929404D01*
X84828436Y-119929405D01*
X84828439Y-119929407D01*
X84971568Y-119987616D01*
X85117504Y-120038380D01*
X85117513Y-120038382D01*
X85117517Y-120038384D01*
X85168055Y-120053094D01*
X85265860Y-120081564D01*
X85416242Y-120117054D01*
X85568252Y-120144755D01*
X85721486Y-120164594D01*
X85875538Y-120176519D01*
X86011011Y-120180008D01*
X86029994Y-120180498D01*
X86030000Y-120180498D01*
X86030006Y-120180498D01*
X86048607Y-120180018D01*
X86184462Y-120176519D01*
X86338514Y-120164594D01*
X86491748Y-120144755D01*
X86643758Y-120117054D01*
X86794140Y-120081564D01*
X86942496Y-120038380D01*
X87088432Y-119987616D01*
X87231561Y-119929407D01*
X87371504Y-119863906D01*
X87507889Y-119791289D01*
X87640356Y-119711746D01*
X87768552Y-119625490D01*
X87892137Y-119532750D01*
X88010785Y-119433769D01*
X88124180Y-119328813D01*
X88232021Y-119218158D01*
X88334023Y-119102098D01*
X88429916Y-118980941D01*
X88519444Y-118855009D01*
X88602370Y-118724635D01*
X88678476Y-118590164D01*
X88747557Y-118451954D01*
X88809433Y-118310371D01*
X88863938Y-118165791D01*
X88910924Y-118018607D01*
X88910923Y-118018606D01*
X88910927Y-118018596D01*
X88950277Y-117869177D01*
X88981883Y-117717931D01*
X89005661Y-117565259D01*
X89021549Y-117411565D01*
X89029503Y-117257257D01*
X89029503Y-117180000D01*
X110970000Y-117180000D01*
X110970496Y-117257243D01*
X110978451Y-117411569D01*
X110994338Y-117565255D01*
X111018114Y-117717915D01*
X111049722Y-117869172D01*
X111089076Y-118018609D01*
X111136066Y-118165803D01*
X111190574Y-118310390D01*
X111252440Y-118451949D01*
X111321515Y-118590146D01*
X111321524Y-118590164D01*
X111397624Y-118724624D01*
X111397635Y-118724643D01*
X111480552Y-118855003D01*
X111570088Y-118980946D01*
X111570092Y-118980951D01*
X111665980Y-119102102D01*
X111767975Y-119218154D01*
X111767984Y-119218164D01*
X111827230Y-119278955D01*
X111875820Y-119328813D01*
X111875823Y-119328816D01*
X111989215Y-119433769D01*
X112107851Y-119532740D01*
X112107878Y-119532762D01*
X112154021Y-119567388D01*
X112231448Y-119625490D01*
X112359644Y-119711746D01*
X112492111Y-119791289D01*
X112628496Y-119863906D01*
X112628499Y-119863907D01*
X112628500Y-119863908D01*
X112768432Y-119929404D01*
X112768436Y-119929405D01*
X112768439Y-119929407D01*
X112911568Y-119987616D01*
X113057504Y-120038380D01*
X113057513Y-120038382D01*
X113057517Y-120038384D01*
X113108055Y-120053094D01*
X113205860Y-120081564D01*
X113356242Y-120117054D01*
X113508252Y-120144755D01*
X113661486Y-120164594D01*
X113815538Y-120176519D01*
X113951011Y-120180008D01*
X113969994Y-120180498D01*
X113970000Y-120180498D01*
X113970006Y-120180498D01*
X113988607Y-120180018D01*
X114124462Y-120176519D01*
X114278514Y-120164594D01*
X114431748Y-120144755D01*
X114583758Y-120117054D01*
X114734140Y-120081564D01*
X114882496Y-120038380D01*
X115028432Y-119987616D01*
X115171561Y-119929407D01*
X115311504Y-119863906D01*
X115447889Y-119791289D01*
X115580356Y-119711746D01*
X115708552Y-119625490D01*
X115832137Y-119532750D01*
X115950785Y-119433769D01*
X116064180Y-119328813D01*
X116172021Y-119218158D01*
X116274023Y-119102098D01*
X116369916Y-118980941D01*
X116459444Y-118855009D01*
X116542370Y-118724635D01*
X116618476Y-118590164D01*
X116687557Y-118451954D01*
X116749433Y-118310371D01*
X116803938Y-118165791D01*
X116850927Y-118018596D01*
X116851477Y-118016504D01*
X116857449Y-117993833D01*
X116868359Y-117952405D01*
X116890277Y-117869177D01*
X116921883Y-117717931D01*
X116945661Y-117565259D01*
X116961549Y-117411565D01*
X116969503Y-117257257D01*
X116969503Y-117102743D01*
X116969023Y-117093424D01*
X120490000Y-117093424D01*
X120490000Y-117266575D01*
X120517084Y-117437579D01*
X120570588Y-117602248D01*
X120649195Y-117756524D01*
X120649197Y-117756528D01*
X120713219Y-117844646D01*
X121146328Y-117411536D01*
X121189901Y-117487007D01*
X121282993Y-117580099D01*
X121358460Y-117623670D01*
X120925352Y-118056778D01*
X121013477Y-118120805D01*
X121167751Y-118199411D01*
X121332420Y-118252915D01*
X121503425Y-118280000D01*
X121676575Y-118280000D01*
X121847579Y-118252915D01*
X122012248Y-118199411D01*
X122166524Y-118120804D01*
X122166530Y-118120800D01*
X122254646Y-118056779D01*
X122254646Y-118056778D01*
X121821538Y-117623670D01*
X121897007Y-117580099D01*
X121990099Y-117487007D01*
X122033670Y-117411538D01*
X122466778Y-117844646D01*
X122466779Y-117844646D01*
X122530800Y-117756530D01*
X122530804Y-117756524D01*
X122609411Y-117602248D01*
X122662915Y-117437579D01*
X122690000Y-117266575D01*
X122690000Y-117093424D01*
X123030000Y-117093424D01*
X123030000Y-117266575D01*
X123057084Y-117437579D01*
X123110588Y-117602248D01*
X123189195Y-117756524D01*
X123189197Y-117756528D01*
X123253219Y-117844646D01*
X123686328Y-117411536D01*
X123729901Y-117487007D01*
X123822993Y-117580099D01*
X123898460Y-117623670D01*
X123465352Y-118056778D01*
X123553477Y-118120805D01*
X123707751Y-118199411D01*
X123872420Y-118252915D01*
X124043425Y-118280000D01*
X124216575Y-118280000D01*
X124387579Y-118252915D01*
X124552248Y-118199411D01*
X124706524Y-118120804D01*
X124706530Y-118120800D01*
X124794646Y-118056779D01*
X124794646Y-118056778D01*
X124361538Y-117623670D01*
X124437007Y-117580099D01*
X124530099Y-117487007D01*
X124573670Y-117411538D01*
X125006778Y-117844646D01*
X125006779Y-117844646D01*
X125070800Y-117756530D01*
X125070804Y-117756524D01*
X125149411Y-117602248D01*
X125202915Y-117437579D01*
X125230000Y-117266575D01*
X125230000Y-117093424D01*
X125202915Y-116922420D01*
X125149411Y-116757751D01*
X125070805Y-116603477D01*
X125006778Y-116515352D01*
X124573670Y-116948460D01*
X124530099Y-116872993D01*
X124437007Y-116779901D01*
X124361536Y-116736328D01*
X124794646Y-116303219D01*
X124706528Y-116239197D01*
X124706524Y-116239195D01*
X124552248Y-116160588D01*
X124387579Y-116107084D01*
X124216575Y-116080000D01*
X124043425Y-116080000D01*
X123872420Y-116107084D01*
X123707751Y-116160588D01*
X123553476Y-116239195D01*
X123465352Y-116303219D01*
X123898461Y-116736328D01*
X123822993Y-116779901D01*
X123729901Y-116872993D01*
X123686328Y-116948461D01*
X123253219Y-116515352D01*
X123189195Y-116603476D01*
X123110588Y-116757751D01*
X123057084Y-116922420D01*
X123030000Y-117093424D01*
X122690000Y-117093424D01*
X122662915Y-116922420D01*
X122609411Y-116757751D01*
X122530805Y-116603477D01*
X122466778Y-116515352D01*
X122033670Y-116948460D01*
X121990099Y-116872993D01*
X121897007Y-116779901D01*
X121821536Y-116736328D01*
X122254646Y-116303219D01*
X122166528Y-116239197D01*
X122166524Y-116239195D01*
X122012248Y-116160588D01*
X121847579Y-116107084D01*
X121676575Y-116080000D01*
X121503425Y-116080000D01*
X121332420Y-116107084D01*
X121167751Y-116160588D01*
X121013476Y-116239195D01*
X120925352Y-116303219D01*
X121358461Y-116736328D01*
X121282993Y-116779901D01*
X121189901Y-116872993D01*
X121146328Y-116948461D01*
X120713219Y-116515352D01*
X120649195Y-116603476D01*
X120570588Y-116757751D01*
X120517084Y-116922420D01*
X120490000Y-117093424D01*
X116969023Y-117093424D01*
X116961549Y-116948435D01*
X116945661Y-116794741D01*
X116921883Y-116642069D01*
X116890277Y-116490823D01*
X116850927Y-116341404D01*
X116803938Y-116194209D01*
X116749433Y-116049629D01*
X116749429Y-116049621D01*
X116749425Y-116049609D01*
X116687559Y-115908050D01*
X116618484Y-115769853D01*
X116618476Y-115769836D01*
X116542370Y-115635365D01*
X116459444Y-115504991D01*
X116369916Y-115379059D01*
X116274023Y-115257902D01*
X116237662Y-115216530D01*
X116172024Y-115141845D01*
X116172015Y-115141835D01*
X116072865Y-115040099D01*
X116064180Y-115031187D01*
X115973231Y-114947007D01*
X115950784Y-114926230D01*
X115832148Y-114827259D01*
X115832121Y-114827237D01*
X115770492Y-114780991D01*
X115708552Y-114734510D01*
X115608272Y-114667037D01*
X115580361Y-114648257D01*
X115580058Y-114648075D01*
X115447889Y-114568711D01*
X115447888Y-114568710D01*
X115447879Y-114568705D01*
X115447873Y-114568702D01*
X115396701Y-114541456D01*
X120589500Y-114541456D01*
X120589500Y-114738543D01*
X120627949Y-114931834D01*
X120627949Y-114931836D01*
X120703367Y-115113913D01*
X120703368Y-115113914D01*
X120812861Y-115277782D01*
X120952218Y-115417139D01*
X121116086Y-115526632D01*
X121298165Y-115602051D01*
X121491459Y-115640500D01*
X121491460Y-115640500D01*
X121688540Y-115640500D01*
X121688541Y-115640500D01*
X121881835Y-115602051D01*
X122063914Y-115526632D01*
X122227782Y-115417139D01*
X122367139Y-115277782D01*
X122476632Y-115113914D01*
X122552051Y-114931835D01*
X122590500Y-114738541D01*
X122590500Y-114553424D01*
X123030000Y-114553424D01*
X123030000Y-114726575D01*
X123057084Y-114897579D01*
X123110588Y-115062248D01*
X123189195Y-115216524D01*
X123189197Y-115216528D01*
X123253219Y-115304646D01*
X123686328Y-114871536D01*
X123729901Y-114947007D01*
X123822993Y-115040099D01*
X123898460Y-115083670D01*
X123465352Y-115516778D01*
X123553477Y-115580805D01*
X123707751Y-115659411D01*
X123872420Y-115712915D01*
X124043425Y-115740000D01*
X124216575Y-115740000D01*
X124387579Y-115712915D01*
X124552248Y-115659411D01*
X124706524Y-115580804D01*
X124706530Y-115580800D01*
X124794646Y-115516779D01*
X124794646Y-115516778D01*
X124361538Y-115083670D01*
X124437007Y-115040099D01*
X124530099Y-114947007D01*
X124573670Y-114871538D01*
X125006778Y-115304646D01*
X125006779Y-115304646D01*
X125070800Y-115216530D01*
X125070804Y-115216524D01*
X125149411Y-115062248D01*
X125202915Y-114897579D01*
X125230000Y-114726575D01*
X125230000Y-114553424D01*
X125202915Y-114382420D01*
X125149411Y-114217751D01*
X125070805Y-114063477D01*
X125006778Y-113975352D01*
X124573670Y-114408460D01*
X124530099Y-114332993D01*
X124437007Y-114239901D01*
X124361536Y-114196328D01*
X124794646Y-113763219D01*
X124706528Y-113699197D01*
X124706524Y-113699195D01*
X124552248Y-113620588D01*
X124387579Y-113567084D01*
X124216575Y-113540000D01*
X124043425Y-113540000D01*
X123872420Y-113567084D01*
X123707751Y-113620588D01*
X123553476Y-113699195D01*
X123465352Y-113763219D01*
X123898461Y-114196328D01*
X123822993Y-114239901D01*
X123729901Y-114332993D01*
X123686328Y-114408461D01*
X123253219Y-113975352D01*
X123189195Y-114063476D01*
X123110588Y-114217751D01*
X123057084Y-114382420D01*
X123030000Y-114553424D01*
X122590500Y-114553424D01*
X122590500Y-114541459D01*
X122552051Y-114348165D01*
X122476632Y-114166086D01*
X122367139Y-114002218D01*
X122227782Y-113862861D01*
X122063914Y-113753368D01*
X122063915Y-113753368D01*
X122063913Y-113753367D01*
X121881835Y-113677949D01*
X121688543Y-113639500D01*
X121688541Y-113639500D01*
X121491459Y-113639500D01*
X121491456Y-113639500D01*
X121298165Y-113677949D01*
X121298163Y-113677949D01*
X121116086Y-113753367D01*
X120952218Y-113862861D01*
X120952214Y-113862864D01*
X120812864Y-114002214D01*
X120812861Y-114002218D01*
X120703367Y-114166086D01*
X120627949Y-114348163D01*
X120627949Y-114348165D01*
X120589500Y-114541456D01*
X115396701Y-114541456D01*
X115311504Y-114496094D01*
X115311499Y-114496091D01*
X115171567Y-114430595D01*
X115171557Y-114430591D01*
X115028439Y-114372387D01*
X115028432Y-114372384D01*
X115027766Y-114372152D01*
X114882482Y-114321615D01*
X114734141Y-114278436D01*
X114583769Y-114242948D01*
X114431773Y-114215249D01*
X114431753Y-114215246D01*
X114431754Y-114215246D01*
X114431748Y-114215245D01*
X114278514Y-114195406D01*
X114124462Y-114183481D01*
X114068294Y-114182034D01*
X113970007Y-114179503D01*
X113969993Y-114179503D01*
X113861876Y-114182287D01*
X113815538Y-114183481D01*
X113699999Y-114192424D01*
X113661485Y-114195406D01*
X113605227Y-114202689D01*
X113508252Y-114215245D01*
X113508247Y-114215245D01*
X113508246Y-114215246D01*
X113508226Y-114215249D01*
X113356230Y-114242948D01*
X113205858Y-114278436D01*
X113057517Y-114321615D01*
X112911590Y-114372376D01*
X112911560Y-114372387D01*
X112768442Y-114430591D01*
X112768432Y-114430595D01*
X112628500Y-114496091D01*
X112628495Y-114496094D01*
X112492126Y-114568702D01*
X112492120Y-114568705D01*
X112359638Y-114648257D01*
X112280164Y-114701731D01*
X112231448Y-114734510D01*
X112226074Y-114738543D01*
X112107878Y-114827237D01*
X112107851Y-114827259D01*
X111989215Y-114926230D01*
X111875823Y-115031183D01*
X111875809Y-115031198D01*
X111767984Y-115141835D01*
X111767975Y-115141845D01*
X111665980Y-115257897D01*
X111570092Y-115379048D01*
X111570088Y-115379053D01*
X111480552Y-115504996D01*
X111397635Y-115635356D01*
X111397624Y-115635375D01*
X111321533Y-115769820D01*
X111321515Y-115769853D01*
X111252440Y-115908050D01*
X111190574Y-116049609D01*
X111136066Y-116194196D01*
X111089076Y-116341390D01*
X111049722Y-116490827D01*
X111018114Y-116642084D01*
X110994338Y-116794744D01*
X110978451Y-116948430D01*
X110970496Y-117102756D01*
X110970000Y-117180000D01*
X89029503Y-117180000D01*
X89029503Y-117102743D01*
X89021549Y-116948435D01*
X89005661Y-116794741D01*
X88981883Y-116642069D01*
X88950277Y-116490823D01*
X88910927Y-116341404D01*
X88863938Y-116194209D01*
X88809433Y-116049629D01*
X88809429Y-116049621D01*
X88809425Y-116049609D01*
X88747559Y-115908050D01*
X88678484Y-115769853D01*
X88678476Y-115769836D01*
X88602370Y-115635365D01*
X88519444Y-115504991D01*
X88429916Y-115379059D01*
X88334023Y-115257902D01*
X88297662Y-115216530D01*
X88232024Y-115141845D01*
X88232015Y-115141835D01*
X88132865Y-115040099D01*
X88124180Y-115031187D01*
X88033231Y-114947007D01*
X88010784Y-114926230D01*
X87892148Y-114827259D01*
X87892121Y-114827237D01*
X87830492Y-114780991D01*
X87768552Y-114734510D01*
X87668272Y-114667037D01*
X87640361Y-114648257D01*
X87507879Y-114568705D01*
X87507873Y-114568702D01*
X87371504Y-114496094D01*
X87371499Y-114496091D01*
X87231567Y-114430595D01*
X87231557Y-114430591D01*
X87088439Y-114372387D01*
X87088432Y-114372384D01*
X87087766Y-114372152D01*
X86942482Y-114321615D01*
X86794141Y-114278436D01*
X86643769Y-114242948D01*
X86491773Y-114215249D01*
X86491753Y-114215246D01*
X86491754Y-114215246D01*
X86491748Y-114215245D01*
X86338514Y-114195406D01*
X86184462Y-114183481D01*
X86128294Y-114182034D01*
X86030007Y-114179503D01*
X86029993Y-114179503D01*
X85921876Y-114182287D01*
X85875538Y-114183481D01*
X85759999Y-114192424D01*
X85721485Y-114195406D01*
X85665227Y-114202689D01*
X85568252Y-114215245D01*
X85568247Y-114215245D01*
X85568246Y-114215246D01*
X85568226Y-114215249D01*
X85416230Y-114242948D01*
X85265858Y-114278436D01*
X85117517Y-114321615D01*
X84971590Y-114372376D01*
X84971560Y-114372387D01*
X84828442Y-114430591D01*
X84828432Y-114430595D01*
X84688500Y-114496091D01*
X84688495Y-114496094D01*
X84552126Y-114568702D01*
X84552120Y-114568705D01*
X84419638Y-114648257D01*
X84340164Y-114701731D01*
X84291448Y-114734510D01*
X84286074Y-114738543D01*
X84167878Y-114827237D01*
X84167851Y-114827259D01*
X84049215Y-114926230D01*
X83935823Y-115031183D01*
X83935809Y-115031198D01*
X83827984Y-115141835D01*
X83827975Y-115141845D01*
X83725980Y-115257897D01*
X83630092Y-115379048D01*
X83630088Y-115379053D01*
X83540552Y-115504996D01*
X83457635Y-115635356D01*
X83457624Y-115635375D01*
X83381533Y-115769820D01*
X83381515Y-115769853D01*
X83312440Y-115908050D01*
X83250574Y-116049609D01*
X83196066Y-116194196D01*
X83149076Y-116341390D01*
X83109722Y-116490827D01*
X83078114Y-116642084D01*
X83054338Y-116794744D01*
X83038451Y-116948430D01*
X83030496Y-117102756D01*
X83030000Y-117180000D01*
X79510000Y-117180000D01*
X79510000Y-117093424D01*
X79482915Y-116922420D01*
X79429411Y-116757751D01*
X79350805Y-116603477D01*
X79286778Y-116515352D01*
X78853670Y-116948460D01*
X78810099Y-116872993D01*
X78717007Y-116779901D01*
X78641536Y-116736328D01*
X79074646Y-116303219D01*
X78986528Y-116239197D01*
X78986524Y-116239195D01*
X78832248Y-116160588D01*
X78667579Y-116107084D01*
X78496575Y-116080000D01*
X78323425Y-116080000D01*
X78152420Y-116107084D01*
X77987751Y-116160588D01*
X77833476Y-116239195D01*
X77745352Y-116303219D01*
X78178461Y-116736328D01*
X78102993Y-116779901D01*
X78009901Y-116872993D01*
X77966328Y-116948461D01*
X77533219Y-116515352D01*
X77469195Y-116603476D01*
X77390588Y-116757751D01*
X77337084Y-116922420D01*
X77310000Y-117093424D01*
X76970000Y-117093424D01*
X76942915Y-116922420D01*
X76889411Y-116757751D01*
X76810805Y-116603477D01*
X76746778Y-116515352D01*
X76313670Y-116948460D01*
X76270099Y-116872993D01*
X76177007Y-116779901D01*
X76101536Y-116736328D01*
X76534646Y-116303219D01*
X76446528Y-116239197D01*
X76446524Y-116239195D01*
X76292248Y-116160588D01*
X76127579Y-116107084D01*
X75956575Y-116080000D01*
X75783425Y-116080000D01*
X75612420Y-116107084D01*
X75447751Y-116160588D01*
X75293476Y-116239195D01*
X75205352Y-116303219D01*
X75638461Y-116736328D01*
X75562993Y-116779901D01*
X75469901Y-116872993D01*
X75426328Y-116948461D01*
X74993219Y-116515352D01*
X74929195Y-116603476D01*
X74850588Y-116757751D01*
X74797084Y-116922420D01*
X74770000Y-117093424D01*
X74500000Y-117093424D01*
X74500000Y-114553424D01*
X74770000Y-114553424D01*
X74770000Y-114726575D01*
X74797084Y-114897579D01*
X74850588Y-115062248D01*
X74929195Y-115216524D01*
X74929197Y-115216528D01*
X74993219Y-115304646D01*
X75426328Y-114871536D01*
X75469901Y-114947007D01*
X75562993Y-115040099D01*
X75638460Y-115083670D01*
X75205352Y-115516778D01*
X75293477Y-115580805D01*
X75447751Y-115659411D01*
X75612420Y-115712915D01*
X75783425Y-115740000D01*
X75956575Y-115740000D01*
X76127579Y-115712915D01*
X76292248Y-115659411D01*
X76446524Y-115580804D01*
X76446530Y-115580800D01*
X76534646Y-115516779D01*
X76534646Y-115516778D01*
X76101538Y-115083670D01*
X76177007Y-115040099D01*
X76270099Y-114947007D01*
X76313670Y-114871538D01*
X76746778Y-115304646D01*
X76746779Y-115304646D01*
X76810800Y-115216530D01*
X76810804Y-115216524D01*
X76889411Y-115062248D01*
X76942915Y-114897579D01*
X76970000Y-114726575D01*
X76970000Y-114553426D01*
X76969788Y-114552088D01*
X76969788Y-114552086D01*
X76969787Y-114552082D01*
X76968104Y-114541456D01*
X77409500Y-114541456D01*
X77409500Y-114738543D01*
X77447949Y-114931834D01*
X77447949Y-114931836D01*
X77523367Y-115113913D01*
X77523368Y-115113914D01*
X77632861Y-115277782D01*
X77772218Y-115417139D01*
X77936086Y-115526632D01*
X78118165Y-115602051D01*
X78311459Y-115640500D01*
X78311460Y-115640500D01*
X78508540Y-115640500D01*
X78508541Y-115640500D01*
X78701835Y-115602051D01*
X78883914Y-115526632D01*
X79047782Y-115417139D01*
X79187139Y-115277782D01*
X79296632Y-115113914D01*
X79372051Y-114931835D01*
X79410500Y-114738541D01*
X79410500Y-114541459D01*
X79372051Y-114348165D01*
X79296632Y-114166086D01*
X79187139Y-114002218D01*
X79047782Y-113862861D01*
X78883914Y-113753368D01*
X78883915Y-113753368D01*
X78883913Y-113753367D01*
X78701835Y-113677949D01*
X78508543Y-113639500D01*
X78508541Y-113639500D01*
X78311459Y-113639500D01*
X78311456Y-113639500D01*
X78118165Y-113677949D01*
X78118163Y-113677949D01*
X77936086Y-113753367D01*
X77772218Y-113862861D01*
X77772214Y-113862864D01*
X77632864Y-114002214D01*
X77632861Y-114002218D01*
X77523367Y-114166086D01*
X77447949Y-114348163D01*
X77447949Y-114348165D01*
X77409500Y-114541456D01*
X76968104Y-114541456D01*
X76942915Y-114382420D01*
X76889411Y-114217751D01*
X76810805Y-114063477D01*
X76746778Y-113975352D01*
X76313670Y-114408460D01*
X76270099Y-114332993D01*
X76177007Y-114239901D01*
X76101536Y-114196328D01*
X76534646Y-113763219D01*
X76446528Y-113699197D01*
X76446524Y-113699195D01*
X76292248Y-113620588D01*
X76127579Y-113567084D01*
X75956575Y-113540000D01*
X75783425Y-113540000D01*
X75612420Y-113567084D01*
X75447751Y-113620588D01*
X75293476Y-113699195D01*
X75205352Y-113763219D01*
X75638461Y-114196328D01*
X75562993Y-114239901D01*
X75469901Y-114332993D01*
X75426328Y-114408461D01*
X74993219Y-113975352D01*
X74929195Y-114063476D01*
X74850588Y-114217751D01*
X74797084Y-114382420D01*
X74770000Y-114553424D01*
X74500000Y-114553424D01*
X74500000Y-112013424D01*
X74770000Y-112013424D01*
X74770000Y-112186575D01*
X74797084Y-112357579D01*
X74850588Y-112522248D01*
X74929195Y-112676524D01*
X74929197Y-112676528D01*
X74993219Y-112764646D01*
X75426328Y-112331536D01*
X75469901Y-112407007D01*
X75562993Y-112500099D01*
X75638460Y-112543670D01*
X75205352Y-112976778D01*
X75293477Y-113040805D01*
X75447751Y-113119411D01*
X75612420Y-113172915D01*
X75783425Y-113200000D01*
X75956575Y-113200000D01*
X76127579Y-113172915D01*
X76292248Y-113119411D01*
X76446524Y-113040804D01*
X76446530Y-113040800D01*
X76534646Y-112976779D01*
X76534646Y-112976778D01*
X76101538Y-112543670D01*
X76177007Y-112500099D01*
X76270099Y-112407007D01*
X76313670Y-112331538D01*
X76746778Y-112764646D01*
X76746779Y-112764646D01*
X76810800Y-112676530D01*
X76810804Y-112676524D01*
X76889411Y-112522248D01*
X76942915Y-112357579D01*
X76970000Y-112186575D01*
X76970000Y-112013426D01*
X76969788Y-112012088D01*
X76969788Y-112012086D01*
X76969787Y-112012082D01*
X76968104Y-112001456D01*
X77409500Y-112001456D01*
X77409500Y-112198543D01*
X77447949Y-112391834D01*
X77447949Y-112391836D01*
X77523367Y-112573913D01*
X77523368Y-112573914D01*
X77632861Y-112737782D01*
X77772218Y-112877139D01*
X77936086Y-112986632D01*
X78118165Y-113062051D01*
X78311459Y-113100500D01*
X78311460Y-113100500D01*
X78508540Y-113100500D01*
X78508541Y-113100500D01*
X78701835Y-113062051D01*
X78883914Y-112986632D01*
X79047782Y-112877139D01*
X79187139Y-112737782D01*
X79296632Y-112573914D01*
X79372051Y-112391835D01*
X79410500Y-112198541D01*
X79410500Y-112001459D01*
X79410499Y-112001456D01*
X120589500Y-112001456D01*
X120589500Y-112198543D01*
X120627949Y-112391834D01*
X120627949Y-112391836D01*
X120703367Y-112573913D01*
X120703368Y-112573914D01*
X120812861Y-112737782D01*
X120952218Y-112877139D01*
X121116086Y-112986632D01*
X121298165Y-113062051D01*
X121491459Y-113100500D01*
X121491460Y-113100500D01*
X121688540Y-113100500D01*
X121688541Y-113100500D01*
X121881835Y-113062051D01*
X122063914Y-112986632D01*
X122227782Y-112877139D01*
X122367139Y-112737782D01*
X122476632Y-112573914D01*
X122552051Y-112391835D01*
X122590500Y-112198541D01*
X122590500Y-112013424D01*
X123030000Y-112013424D01*
X123030000Y-112186575D01*
X123057084Y-112357579D01*
X123110588Y-112522248D01*
X123189195Y-112676524D01*
X123189197Y-112676528D01*
X123253219Y-112764646D01*
X123686328Y-112331536D01*
X123729901Y-112407007D01*
X123822993Y-112500099D01*
X123898460Y-112543670D01*
X123465352Y-112976778D01*
X123553477Y-113040805D01*
X123707751Y-113119411D01*
X123872420Y-113172915D01*
X124043425Y-113200000D01*
X124216575Y-113200000D01*
X124387579Y-113172915D01*
X124552248Y-113119411D01*
X124706524Y-113040804D01*
X124706530Y-113040800D01*
X124794646Y-112976779D01*
X124794646Y-112976778D01*
X124361538Y-112543670D01*
X124437007Y-112500099D01*
X124530099Y-112407007D01*
X124573670Y-112331538D01*
X125006778Y-112764646D01*
X125006779Y-112764646D01*
X125070800Y-112676530D01*
X125070804Y-112676524D01*
X125149411Y-112522248D01*
X125202915Y-112357579D01*
X125230000Y-112186575D01*
X125230000Y-112013424D01*
X125202915Y-111842420D01*
X125149411Y-111677751D01*
X125070805Y-111523477D01*
X125006778Y-111435352D01*
X124573670Y-111868460D01*
X124530099Y-111792993D01*
X124437007Y-111699901D01*
X124361536Y-111656328D01*
X124794646Y-111223219D01*
X124706528Y-111159197D01*
X124706524Y-111159195D01*
X124552248Y-111080588D01*
X124387579Y-111027084D01*
X124216575Y-111000000D01*
X124043425Y-111000000D01*
X123872420Y-111027084D01*
X123707751Y-111080588D01*
X123553476Y-111159195D01*
X123465352Y-111223219D01*
X123898461Y-111656328D01*
X123822993Y-111699901D01*
X123729901Y-111792993D01*
X123686328Y-111868461D01*
X123253219Y-111435352D01*
X123189195Y-111523476D01*
X123110588Y-111677751D01*
X123057084Y-111842420D01*
X123030000Y-112013424D01*
X122590500Y-112013424D01*
X122590500Y-112001459D01*
X122552051Y-111808165D01*
X122476632Y-111626086D01*
X122367139Y-111462218D01*
X122227782Y-111322861D01*
X122063914Y-111213368D01*
X122063915Y-111213368D01*
X122063913Y-111213367D01*
X121881835Y-111137949D01*
X121688543Y-111099500D01*
X121688541Y-111099500D01*
X121491459Y-111099500D01*
X121491456Y-111099500D01*
X121298165Y-111137949D01*
X121298163Y-111137949D01*
X121116086Y-111213367D01*
X120952218Y-111322861D01*
X120952214Y-111322864D01*
X120812864Y-111462214D01*
X120812861Y-111462218D01*
X120703367Y-111626086D01*
X120627949Y-111808163D01*
X120627949Y-111808165D01*
X120589500Y-112001456D01*
X79410499Y-112001456D01*
X79372051Y-111808165D01*
X79296632Y-111626086D01*
X79187139Y-111462218D01*
X79047782Y-111322861D01*
X78883914Y-111213368D01*
X78883915Y-111213368D01*
X78883913Y-111213367D01*
X78701835Y-111137949D01*
X78508543Y-111099500D01*
X78508541Y-111099500D01*
X78311459Y-111099500D01*
X78311456Y-111099500D01*
X78118165Y-111137949D01*
X78118163Y-111137949D01*
X77936086Y-111213367D01*
X77772218Y-111322861D01*
X77772214Y-111322864D01*
X77632864Y-111462214D01*
X77632861Y-111462218D01*
X77523367Y-111626086D01*
X77447949Y-111808163D01*
X77447949Y-111808165D01*
X77409500Y-112001456D01*
X76968104Y-112001456D01*
X76942915Y-111842420D01*
X76889411Y-111677751D01*
X76810805Y-111523477D01*
X76746778Y-111435352D01*
X76313670Y-111868460D01*
X76270099Y-111792993D01*
X76177007Y-111699901D01*
X76101536Y-111656328D01*
X76534646Y-111223219D01*
X76446528Y-111159197D01*
X76446524Y-111159195D01*
X76292248Y-111080588D01*
X76127579Y-111027084D01*
X75956575Y-111000000D01*
X75783425Y-111000000D01*
X75612420Y-111027084D01*
X75447751Y-111080588D01*
X75293476Y-111159195D01*
X75205352Y-111223219D01*
X75638461Y-111656328D01*
X75562993Y-111699901D01*
X75469901Y-111792993D01*
X75426328Y-111868461D01*
X74993219Y-111435352D01*
X74929195Y-111523476D01*
X74850588Y-111677751D01*
X74797084Y-111842420D01*
X74770000Y-112013424D01*
X74500000Y-112013424D01*
X74500000Y-109473424D01*
X74770000Y-109473424D01*
X74770000Y-109646575D01*
X74797084Y-109817579D01*
X74850588Y-109982248D01*
X74929195Y-110136524D01*
X74929197Y-110136528D01*
X74993219Y-110224646D01*
X75426328Y-109791536D01*
X75469901Y-109867007D01*
X75562993Y-109960099D01*
X75638460Y-110003670D01*
X75205352Y-110436778D01*
X75293477Y-110500805D01*
X75447751Y-110579411D01*
X75612420Y-110632915D01*
X75783425Y-110660000D01*
X75956575Y-110660000D01*
X76127579Y-110632915D01*
X76292248Y-110579411D01*
X76446524Y-110500804D01*
X76446530Y-110500800D01*
X76534646Y-110436779D01*
X76534646Y-110436778D01*
X76101538Y-110003670D01*
X76177007Y-109960099D01*
X76270099Y-109867007D01*
X76313670Y-109791538D01*
X76746778Y-110224646D01*
X76746779Y-110224646D01*
X76810800Y-110136530D01*
X76810804Y-110136524D01*
X76889411Y-109982248D01*
X76942915Y-109817579D01*
X76970000Y-109646575D01*
X76970000Y-109473426D01*
X76969788Y-109472088D01*
X76969788Y-109472086D01*
X76969787Y-109472082D01*
X76968104Y-109461456D01*
X77409500Y-109461456D01*
X77409500Y-109658543D01*
X77447949Y-109851834D01*
X77447949Y-109851836D01*
X77523367Y-110033913D01*
X77523368Y-110033914D01*
X77632861Y-110197782D01*
X77772218Y-110337139D01*
X77936086Y-110446632D01*
X78118165Y-110522051D01*
X78311459Y-110560500D01*
X78311460Y-110560500D01*
X78508540Y-110560500D01*
X78508541Y-110560500D01*
X78701835Y-110522051D01*
X78883914Y-110446632D01*
X79047782Y-110337139D01*
X79187139Y-110197782D01*
X79296632Y-110033914D01*
X79372051Y-109851835D01*
X79410500Y-109658541D01*
X79410500Y-109461459D01*
X79410499Y-109461456D01*
X120589500Y-109461456D01*
X120589500Y-109658543D01*
X120627949Y-109851834D01*
X120627949Y-109851836D01*
X120703367Y-110033913D01*
X120703368Y-110033914D01*
X120812861Y-110197782D01*
X120952218Y-110337139D01*
X121116086Y-110446632D01*
X121298165Y-110522051D01*
X121491459Y-110560500D01*
X121491460Y-110560500D01*
X121688540Y-110560500D01*
X121688541Y-110560500D01*
X121881835Y-110522051D01*
X122063914Y-110446632D01*
X122227782Y-110337139D01*
X122367139Y-110197782D01*
X122476632Y-110033914D01*
X122552051Y-109851835D01*
X122590500Y-109658541D01*
X122590500Y-109473424D01*
X123030000Y-109473424D01*
X123030000Y-109646575D01*
X123057084Y-109817579D01*
X123110588Y-109982248D01*
X123189195Y-110136524D01*
X123189197Y-110136528D01*
X123253219Y-110224646D01*
X123686328Y-109791536D01*
X123729901Y-109867007D01*
X123822993Y-109960099D01*
X123898460Y-110003670D01*
X123465352Y-110436778D01*
X123553477Y-110500805D01*
X123707751Y-110579411D01*
X123872420Y-110632915D01*
X124043425Y-110660000D01*
X124216575Y-110660000D01*
X124387579Y-110632915D01*
X124552248Y-110579411D01*
X124706524Y-110500804D01*
X124706530Y-110500800D01*
X124794646Y-110436779D01*
X124794646Y-110436778D01*
X124361538Y-110003670D01*
X124437007Y-109960099D01*
X124530099Y-109867007D01*
X124573670Y-109791538D01*
X125006778Y-110224646D01*
X125006779Y-110224646D01*
X125070800Y-110136530D01*
X125070804Y-110136524D01*
X125149411Y-109982248D01*
X125202915Y-109817579D01*
X125230000Y-109646575D01*
X125230000Y-109473424D01*
X125202915Y-109302420D01*
X125149411Y-109137751D01*
X125070805Y-108983477D01*
X125006778Y-108895352D01*
X124573670Y-109328460D01*
X124530099Y-109252993D01*
X124437007Y-109159901D01*
X124361536Y-109116328D01*
X124794646Y-108683219D01*
X124706528Y-108619197D01*
X124706524Y-108619195D01*
X124552248Y-108540588D01*
X124387579Y-108487084D01*
X124216575Y-108460000D01*
X124043425Y-108460000D01*
X123872420Y-108487084D01*
X123707751Y-108540588D01*
X123553476Y-108619195D01*
X123465352Y-108683219D01*
X123898461Y-109116328D01*
X123822993Y-109159901D01*
X123729901Y-109252993D01*
X123686328Y-109328461D01*
X123253219Y-108895352D01*
X123189195Y-108983476D01*
X123110588Y-109137751D01*
X123057084Y-109302420D01*
X123030000Y-109473424D01*
X122590500Y-109473424D01*
X122590500Y-109461459D01*
X122552051Y-109268165D01*
X122476632Y-109086086D01*
X122367139Y-108922218D01*
X122227782Y-108782861D01*
X122063914Y-108673368D01*
X122063915Y-108673368D01*
X122063913Y-108673367D01*
X121881835Y-108597949D01*
X121688543Y-108559500D01*
X121688541Y-108559500D01*
X121491459Y-108559500D01*
X121491456Y-108559500D01*
X121298165Y-108597949D01*
X121298163Y-108597949D01*
X121116086Y-108673367D01*
X120952218Y-108782861D01*
X120952214Y-108782864D01*
X120812864Y-108922214D01*
X120812861Y-108922218D01*
X120703367Y-109086086D01*
X120627949Y-109268163D01*
X120627949Y-109268165D01*
X120589500Y-109461456D01*
X79410499Y-109461456D01*
X79372051Y-109268165D01*
X79296632Y-109086086D01*
X79187139Y-108922218D01*
X79047782Y-108782861D01*
X78883914Y-108673368D01*
X78883915Y-108673368D01*
X78883913Y-108673367D01*
X78701835Y-108597949D01*
X78508543Y-108559500D01*
X78508541Y-108559500D01*
X78311459Y-108559500D01*
X78311456Y-108559500D01*
X78118165Y-108597949D01*
X78118163Y-108597949D01*
X77936086Y-108673367D01*
X77772218Y-108782861D01*
X77772214Y-108782864D01*
X77632864Y-108922214D01*
X77632861Y-108922218D01*
X77523367Y-109086086D01*
X77447949Y-109268163D01*
X77447949Y-109268165D01*
X77409500Y-109461456D01*
X76968104Y-109461456D01*
X76942915Y-109302420D01*
X76889411Y-109137751D01*
X76810805Y-108983477D01*
X76746778Y-108895352D01*
X76313670Y-109328460D01*
X76270099Y-109252993D01*
X76177007Y-109159901D01*
X76101536Y-109116328D01*
X76534646Y-108683219D01*
X76446528Y-108619197D01*
X76446524Y-108619195D01*
X76292248Y-108540588D01*
X76127579Y-108487084D01*
X75956575Y-108460000D01*
X75783425Y-108460000D01*
X75612420Y-108487084D01*
X75447751Y-108540588D01*
X75293476Y-108619195D01*
X75205352Y-108683219D01*
X75638461Y-109116328D01*
X75562993Y-109159901D01*
X75469901Y-109252993D01*
X75426328Y-109328461D01*
X74993219Y-108895352D01*
X74929195Y-108983476D01*
X74850588Y-109137751D01*
X74797084Y-109302420D01*
X74770000Y-109473424D01*
X74500000Y-109473424D01*
X74500000Y-106933424D01*
X74770000Y-106933424D01*
X74770000Y-107106575D01*
X74797084Y-107277579D01*
X74850588Y-107442248D01*
X74929195Y-107596524D01*
X74929197Y-107596528D01*
X74993219Y-107684646D01*
X75426328Y-107251536D01*
X75469901Y-107327007D01*
X75562993Y-107420099D01*
X75638460Y-107463670D01*
X75205352Y-107896778D01*
X75293477Y-107960805D01*
X75447751Y-108039411D01*
X75612420Y-108092915D01*
X75783425Y-108120000D01*
X75956575Y-108120000D01*
X76127579Y-108092915D01*
X76292248Y-108039411D01*
X76446524Y-107960804D01*
X76446530Y-107960800D01*
X76534646Y-107896779D01*
X76534646Y-107896778D01*
X76101538Y-107463670D01*
X76177007Y-107420099D01*
X76270099Y-107327007D01*
X76313670Y-107251538D01*
X76746778Y-107684646D01*
X76746779Y-107684646D01*
X76810800Y-107596530D01*
X76810804Y-107596524D01*
X76889411Y-107442248D01*
X76942915Y-107277579D01*
X76970000Y-107106575D01*
X76970000Y-106933426D01*
X76969788Y-106932088D01*
X76969788Y-106932086D01*
X76969787Y-106932082D01*
X76968104Y-106921456D01*
X77409500Y-106921456D01*
X77409500Y-107118543D01*
X77447949Y-107311834D01*
X77447949Y-107311836D01*
X77523367Y-107493913D01*
X77523368Y-107493914D01*
X77632861Y-107657782D01*
X77772218Y-107797139D01*
X77936086Y-107906632D01*
X78118165Y-107982051D01*
X78311459Y-108020500D01*
X78311460Y-108020500D01*
X78508540Y-108020500D01*
X78508541Y-108020500D01*
X78701835Y-107982051D01*
X78883914Y-107906632D01*
X79047782Y-107797139D01*
X79187139Y-107657782D01*
X79296632Y-107493914D01*
X79372051Y-107311835D01*
X79410500Y-107118541D01*
X79410500Y-106921459D01*
X79410499Y-106921456D01*
X120589500Y-106921456D01*
X120589500Y-107118543D01*
X120627949Y-107311834D01*
X120627949Y-107311836D01*
X120703367Y-107493913D01*
X120703368Y-107493914D01*
X120812861Y-107657782D01*
X120952218Y-107797139D01*
X121116086Y-107906632D01*
X121298165Y-107982051D01*
X121491459Y-108020500D01*
X121491460Y-108020500D01*
X121688540Y-108020500D01*
X121688541Y-108020500D01*
X121881835Y-107982051D01*
X122063914Y-107906632D01*
X122227782Y-107797139D01*
X122367139Y-107657782D01*
X122476632Y-107493914D01*
X122552051Y-107311835D01*
X122590500Y-107118541D01*
X122590500Y-106933424D01*
X123030000Y-106933424D01*
X123030000Y-107106575D01*
X123057084Y-107277579D01*
X123110588Y-107442248D01*
X123189195Y-107596524D01*
X123189197Y-107596528D01*
X123253219Y-107684646D01*
X123686328Y-107251536D01*
X123729901Y-107327007D01*
X123822993Y-107420099D01*
X123898460Y-107463670D01*
X123465352Y-107896778D01*
X123553477Y-107960805D01*
X123707751Y-108039411D01*
X123872420Y-108092915D01*
X124043425Y-108120000D01*
X124216575Y-108120000D01*
X124387579Y-108092915D01*
X124552248Y-108039411D01*
X124706524Y-107960804D01*
X124706530Y-107960800D01*
X124794646Y-107896779D01*
X124794646Y-107896778D01*
X124361538Y-107463670D01*
X124437007Y-107420099D01*
X124530099Y-107327007D01*
X124573670Y-107251538D01*
X125006778Y-107684646D01*
X125006779Y-107684646D01*
X125070800Y-107596530D01*
X125070804Y-107596524D01*
X125149411Y-107442248D01*
X125202915Y-107277579D01*
X125230000Y-107106575D01*
X125230000Y-106933424D01*
X125202915Y-106762420D01*
X125149411Y-106597751D01*
X125070805Y-106443477D01*
X125006778Y-106355352D01*
X124573670Y-106788460D01*
X124530099Y-106712993D01*
X124437007Y-106619901D01*
X124361536Y-106576328D01*
X124794646Y-106143219D01*
X124706528Y-106079197D01*
X124706524Y-106079195D01*
X124552248Y-106000588D01*
X124387579Y-105947084D01*
X124216575Y-105920000D01*
X124043425Y-105920000D01*
X123872420Y-105947084D01*
X123707751Y-106000588D01*
X123553476Y-106079195D01*
X123465352Y-106143219D01*
X123898461Y-106576328D01*
X123822993Y-106619901D01*
X123729901Y-106712993D01*
X123686328Y-106788461D01*
X123253219Y-106355352D01*
X123189195Y-106443476D01*
X123110588Y-106597751D01*
X123057084Y-106762420D01*
X123030000Y-106933424D01*
X122590500Y-106933424D01*
X122590500Y-106921459D01*
X122552051Y-106728165D01*
X122476632Y-106546086D01*
X122367139Y-106382218D01*
X122227782Y-106242861D01*
X122063914Y-106133368D01*
X122063915Y-106133368D01*
X122063913Y-106133367D01*
X121881835Y-106057949D01*
X121688543Y-106019500D01*
X121688541Y-106019500D01*
X121491459Y-106019500D01*
X121491456Y-106019500D01*
X121298165Y-106057949D01*
X121298163Y-106057949D01*
X121116086Y-106133367D01*
X120952218Y-106242861D01*
X120952214Y-106242864D01*
X120812864Y-106382214D01*
X120812861Y-106382218D01*
X120703367Y-106546086D01*
X120627949Y-106728163D01*
X120627949Y-106728165D01*
X120589500Y-106921456D01*
X79410499Y-106921456D01*
X79372051Y-106728165D01*
X79296632Y-106546086D01*
X79187139Y-106382218D01*
X79047782Y-106242861D01*
X78883914Y-106133368D01*
X78883915Y-106133368D01*
X78883913Y-106133367D01*
X78701835Y-106057949D01*
X78508543Y-106019500D01*
X78508541Y-106019500D01*
X78311459Y-106019500D01*
X78311456Y-106019500D01*
X78118165Y-106057949D01*
X78118163Y-106057949D01*
X77936086Y-106133367D01*
X77772218Y-106242861D01*
X77772214Y-106242864D01*
X77632864Y-106382214D01*
X77632861Y-106382218D01*
X77523367Y-106546086D01*
X77447949Y-106728163D01*
X77447949Y-106728165D01*
X77409500Y-106921456D01*
X76968104Y-106921456D01*
X76942915Y-106762420D01*
X76889411Y-106597751D01*
X76810805Y-106443477D01*
X76746778Y-106355352D01*
X76313670Y-106788460D01*
X76270099Y-106712993D01*
X76177007Y-106619901D01*
X76101536Y-106576328D01*
X76534646Y-106143219D01*
X76446528Y-106079197D01*
X76446524Y-106079195D01*
X76292248Y-106000588D01*
X76127579Y-105947084D01*
X75956575Y-105920000D01*
X75783425Y-105920000D01*
X75612420Y-105947084D01*
X75447751Y-106000588D01*
X75293476Y-106079195D01*
X75205352Y-106143219D01*
X75638461Y-106576328D01*
X75562993Y-106619901D01*
X75469901Y-106712993D01*
X75426328Y-106788461D01*
X74993219Y-106355352D01*
X74929195Y-106443476D01*
X74850588Y-106597751D01*
X74797084Y-106762420D01*
X74770000Y-106933424D01*
X74500000Y-106933424D01*
X74500000Y-104393424D01*
X74770000Y-104393424D01*
X74770000Y-104566575D01*
X74797084Y-104737579D01*
X74850588Y-104902248D01*
X74929195Y-105056524D01*
X74929197Y-105056528D01*
X74993219Y-105144646D01*
X75426328Y-104711536D01*
X75469901Y-104787007D01*
X75562993Y-104880099D01*
X75638460Y-104923670D01*
X75205352Y-105356778D01*
X75293477Y-105420805D01*
X75447751Y-105499411D01*
X75612420Y-105552915D01*
X75783425Y-105580000D01*
X75956575Y-105580000D01*
X76127579Y-105552915D01*
X76292248Y-105499411D01*
X76446524Y-105420804D01*
X76446530Y-105420800D01*
X76534646Y-105356779D01*
X76534646Y-105356778D01*
X76101538Y-104923670D01*
X76177007Y-104880099D01*
X76270099Y-104787007D01*
X76313670Y-104711538D01*
X76746778Y-105144646D01*
X76746779Y-105144646D01*
X76810800Y-105056530D01*
X76810804Y-105056524D01*
X76889411Y-104902248D01*
X76942915Y-104737579D01*
X76970000Y-104566575D01*
X76970000Y-104393426D01*
X76969788Y-104392088D01*
X76969788Y-104392086D01*
X76969787Y-104392082D01*
X76968104Y-104381456D01*
X77409500Y-104381456D01*
X77409500Y-104578543D01*
X77447949Y-104771834D01*
X77447949Y-104771836D01*
X77523367Y-104953913D01*
X77523368Y-104953914D01*
X77632861Y-105117782D01*
X77772218Y-105257139D01*
X77936086Y-105366632D01*
X78118165Y-105442051D01*
X78311459Y-105480500D01*
X78311460Y-105480500D01*
X78508540Y-105480500D01*
X78508541Y-105480500D01*
X78701835Y-105442051D01*
X78883914Y-105366632D01*
X79047782Y-105257139D01*
X79187139Y-105117782D01*
X79296632Y-104953914D01*
X79372051Y-104771835D01*
X79410500Y-104578541D01*
X79410500Y-104381459D01*
X79372051Y-104188165D01*
X79296632Y-104006086D01*
X79187139Y-103842218D01*
X79047782Y-103702861D01*
X78883914Y-103593368D01*
X78883915Y-103593368D01*
X78883913Y-103593367D01*
X78701835Y-103517949D01*
X78508543Y-103479500D01*
X78508541Y-103479500D01*
X78311459Y-103479500D01*
X78311456Y-103479500D01*
X78118165Y-103517949D01*
X78118163Y-103517949D01*
X77936086Y-103593367D01*
X77772218Y-103702861D01*
X77772214Y-103702864D01*
X77632864Y-103842214D01*
X77632861Y-103842218D01*
X77523367Y-104006086D01*
X77447949Y-104188163D01*
X77447949Y-104188165D01*
X77409500Y-104381456D01*
X76968104Y-104381456D01*
X76942915Y-104222420D01*
X76889411Y-104057751D01*
X76810805Y-103903477D01*
X76746778Y-103815352D01*
X76313670Y-104248460D01*
X76270099Y-104172993D01*
X76177007Y-104079901D01*
X76101536Y-104036328D01*
X76534646Y-103603219D01*
X76446528Y-103539197D01*
X76446524Y-103539195D01*
X76292248Y-103460588D01*
X76127579Y-103407084D01*
X75956575Y-103380000D01*
X75783425Y-103380000D01*
X75612420Y-103407084D01*
X75447751Y-103460588D01*
X75293476Y-103539195D01*
X75205352Y-103603219D01*
X75638461Y-104036328D01*
X75562993Y-104079901D01*
X75469901Y-104172993D01*
X75426328Y-104248461D01*
X74993219Y-103815352D01*
X74929195Y-103903476D01*
X74850588Y-104057751D01*
X74797084Y-104222420D01*
X74770000Y-104393424D01*
X74500000Y-104393424D01*
X74500000Y-101853424D01*
X74770000Y-101853424D01*
X74770000Y-102026575D01*
X74797084Y-102197579D01*
X74850588Y-102362248D01*
X74929195Y-102516524D01*
X74929197Y-102516528D01*
X74993219Y-102604646D01*
X75426328Y-102171536D01*
X75469901Y-102247007D01*
X75562993Y-102340099D01*
X75638460Y-102383670D01*
X75205352Y-102816778D01*
X75293477Y-102880805D01*
X75447751Y-102959411D01*
X75612420Y-103012915D01*
X75783425Y-103040000D01*
X75956575Y-103040000D01*
X76127579Y-103012915D01*
X76292248Y-102959411D01*
X76446524Y-102880804D01*
X76446530Y-102880800D01*
X76534646Y-102816779D01*
X76534646Y-102816778D01*
X76101538Y-102383670D01*
X76177007Y-102340099D01*
X76270099Y-102247007D01*
X76313670Y-102171538D01*
X76746778Y-102604646D01*
X76746779Y-102604646D01*
X76810800Y-102516530D01*
X76810804Y-102516524D01*
X76889411Y-102362248D01*
X76942915Y-102197579D01*
X76970000Y-102026575D01*
X76970000Y-101853426D01*
X76969788Y-101852088D01*
X76969788Y-101852086D01*
X76969787Y-101852082D01*
X76968104Y-101841456D01*
X77409500Y-101841456D01*
X77409500Y-102038543D01*
X77447949Y-102231834D01*
X77447949Y-102231836D01*
X77523367Y-102413913D01*
X77523368Y-102413914D01*
X77632861Y-102577782D01*
X77772218Y-102717139D01*
X77936086Y-102826632D01*
X78118165Y-102902051D01*
X78311459Y-102940500D01*
X78311460Y-102940500D01*
X78508540Y-102940500D01*
X78508541Y-102940500D01*
X78701835Y-102902051D01*
X78883914Y-102826632D01*
X79047782Y-102717139D01*
X79187139Y-102577782D01*
X79296632Y-102413914D01*
X79372051Y-102231835D01*
X79401536Y-102083608D01*
X99699500Y-102083608D01*
X99699500Y-105865892D01*
X99713998Y-105920000D01*
X99733609Y-105993190D01*
X99799496Y-106107309D01*
X99799498Y-106107311D01*
X99799500Y-106107314D01*
X99892686Y-106200500D01*
X99892688Y-106200501D01*
X99892690Y-106200503D01*
X100006810Y-106266390D01*
X100006808Y-106266390D01*
X100006812Y-106266391D01*
X100006814Y-106266392D01*
X100134108Y-106300500D01*
X100134110Y-106300500D01*
X100265890Y-106300500D01*
X100265892Y-106300500D01*
X100393186Y-106266392D01*
X100393188Y-106266390D01*
X100393190Y-106266390D01*
X100507309Y-106200503D01*
X100507309Y-106200502D01*
X100507314Y-106200500D01*
X100600500Y-106107314D01*
X100600503Y-106107309D01*
X100666390Y-105993190D01*
X100666390Y-105993188D01*
X100666392Y-105993186D01*
X100700500Y-105865892D01*
X100700500Y-104381456D01*
X120589500Y-104381456D01*
X120589500Y-104578543D01*
X120627949Y-104771834D01*
X120627949Y-104771836D01*
X120703367Y-104953913D01*
X120703368Y-104953914D01*
X120812861Y-105117782D01*
X120952218Y-105257139D01*
X121116086Y-105366632D01*
X121298165Y-105442051D01*
X121491459Y-105480500D01*
X121491460Y-105480500D01*
X121688540Y-105480500D01*
X121688541Y-105480500D01*
X121881835Y-105442051D01*
X122063914Y-105366632D01*
X122227782Y-105257139D01*
X122367139Y-105117782D01*
X122476632Y-104953914D01*
X122552051Y-104771835D01*
X122590500Y-104578541D01*
X122590500Y-104393424D01*
X123030000Y-104393424D01*
X123030000Y-104566575D01*
X123057084Y-104737579D01*
X123110588Y-104902248D01*
X123189195Y-105056524D01*
X123189197Y-105056528D01*
X123253219Y-105144646D01*
X123686328Y-104711536D01*
X123729901Y-104787007D01*
X123822993Y-104880099D01*
X123898460Y-104923670D01*
X123465352Y-105356778D01*
X123553477Y-105420805D01*
X123707751Y-105499411D01*
X123872420Y-105552915D01*
X124043425Y-105580000D01*
X124216575Y-105580000D01*
X124387579Y-105552915D01*
X124552248Y-105499411D01*
X124706524Y-105420804D01*
X124706530Y-105420800D01*
X124794646Y-105356779D01*
X124794646Y-105356778D01*
X124361538Y-104923670D01*
X124437007Y-104880099D01*
X124530099Y-104787007D01*
X124573670Y-104711538D01*
X125006778Y-105144646D01*
X125006779Y-105144646D01*
X125070800Y-105056530D01*
X125070804Y-105056524D01*
X125149411Y-104902248D01*
X125202915Y-104737579D01*
X125230000Y-104566575D01*
X125230000Y-104393424D01*
X125202915Y-104222420D01*
X125149411Y-104057751D01*
X125070805Y-103903477D01*
X125006778Y-103815352D01*
X124573670Y-104248460D01*
X124530099Y-104172993D01*
X124437007Y-104079901D01*
X124361536Y-104036328D01*
X124794646Y-103603219D01*
X124706528Y-103539197D01*
X124706524Y-103539195D01*
X124552248Y-103460588D01*
X124387579Y-103407084D01*
X124216575Y-103380000D01*
X124043425Y-103380000D01*
X123872420Y-103407084D01*
X123707751Y-103460588D01*
X123553476Y-103539195D01*
X123465352Y-103603219D01*
X123898461Y-104036328D01*
X123822993Y-104079901D01*
X123729901Y-104172993D01*
X123686328Y-104248461D01*
X123253219Y-103815352D01*
X123189195Y-103903476D01*
X123110588Y-104057751D01*
X123057084Y-104222420D01*
X123030000Y-104393424D01*
X122590500Y-104393424D01*
X122590500Y-104381459D01*
X122552051Y-104188165D01*
X122476632Y-104006086D01*
X122367139Y-103842218D01*
X122227782Y-103702861D01*
X122063914Y-103593368D01*
X122063915Y-103593368D01*
X122063913Y-103593367D01*
X121881835Y-103517949D01*
X121688543Y-103479500D01*
X121688541Y-103479500D01*
X121491459Y-103479500D01*
X121491456Y-103479500D01*
X121298165Y-103517949D01*
X121298163Y-103517949D01*
X121116086Y-103593367D01*
X120952218Y-103702861D01*
X120952214Y-103702864D01*
X120812864Y-103842214D01*
X120812861Y-103842218D01*
X120703367Y-104006086D01*
X120627949Y-104188163D01*
X120627949Y-104188165D01*
X120589500Y-104381456D01*
X100700500Y-104381456D01*
X100700500Y-102083608D01*
X100666392Y-101956314D01*
X100600500Y-101842186D01*
X100599770Y-101841456D01*
X120589500Y-101841456D01*
X120589500Y-102038543D01*
X120627949Y-102231834D01*
X120627949Y-102231836D01*
X120703367Y-102413913D01*
X120703368Y-102413914D01*
X120812861Y-102577782D01*
X120952218Y-102717139D01*
X121116086Y-102826632D01*
X121298165Y-102902051D01*
X121491459Y-102940500D01*
X121491460Y-102940500D01*
X121688540Y-102940500D01*
X121688541Y-102940500D01*
X121881835Y-102902051D01*
X122063914Y-102826632D01*
X122227782Y-102717139D01*
X122367139Y-102577782D01*
X122476632Y-102413914D01*
X122552051Y-102231835D01*
X122590500Y-102038541D01*
X122590500Y-101853424D01*
X123030000Y-101853424D01*
X123030000Y-102026575D01*
X123057084Y-102197579D01*
X123110588Y-102362248D01*
X123189195Y-102516524D01*
X123189197Y-102516528D01*
X123253219Y-102604646D01*
X123686328Y-102171536D01*
X123729901Y-102247007D01*
X123822993Y-102340099D01*
X123898460Y-102383670D01*
X123465352Y-102816778D01*
X123553477Y-102880805D01*
X123707751Y-102959411D01*
X123872420Y-103012915D01*
X124043425Y-103040000D01*
X124216575Y-103040000D01*
X124387579Y-103012915D01*
X124552248Y-102959411D01*
X124706524Y-102880804D01*
X124706530Y-102880800D01*
X124794646Y-102816779D01*
X124794646Y-102816778D01*
X124361538Y-102383670D01*
X124437007Y-102340099D01*
X124530099Y-102247007D01*
X124573670Y-102171538D01*
X125006778Y-102604646D01*
X125006779Y-102604646D01*
X125070800Y-102516530D01*
X125070804Y-102516524D01*
X125149411Y-102362248D01*
X125202915Y-102197579D01*
X125230000Y-102026575D01*
X125230000Y-101853424D01*
X125202915Y-101682420D01*
X125149411Y-101517751D01*
X125070805Y-101363477D01*
X125006778Y-101275352D01*
X124573670Y-101708460D01*
X124530099Y-101632993D01*
X124437007Y-101539901D01*
X124361536Y-101496328D01*
X124794646Y-101063219D01*
X124706528Y-100999197D01*
X124706524Y-100999195D01*
X124552248Y-100920588D01*
X124387579Y-100867084D01*
X124216575Y-100840000D01*
X124043425Y-100840000D01*
X123872420Y-100867084D01*
X123707751Y-100920588D01*
X123553476Y-100999195D01*
X123465352Y-101063219D01*
X123898461Y-101496328D01*
X123822993Y-101539901D01*
X123729901Y-101632993D01*
X123686328Y-101708461D01*
X123253219Y-101275352D01*
X123189195Y-101363476D01*
X123110588Y-101517751D01*
X123057084Y-101682420D01*
X123030000Y-101853424D01*
X122590500Y-101853424D01*
X122590500Y-101841459D01*
X122552051Y-101648165D01*
X122476632Y-101466086D01*
X122367139Y-101302218D01*
X122227782Y-101162861D01*
X122063914Y-101053368D01*
X122063915Y-101053368D01*
X122063913Y-101053367D01*
X121881835Y-100977949D01*
X121688543Y-100939500D01*
X121688541Y-100939500D01*
X121491459Y-100939500D01*
X121491456Y-100939500D01*
X121298165Y-100977949D01*
X121298163Y-100977949D01*
X121116086Y-101053367D01*
X120952218Y-101162861D01*
X120952214Y-101162864D01*
X120812864Y-101302214D01*
X120812861Y-101302218D01*
X120703367Y-101466086D01*
X120627949Y-101648163D01*
X120627949Y-101648165D01*
X120589500Y-101841456D01*
X100599770Y-101841456D01*
X100507314Y-101749000D01*
X100507311Y-101748998D01*
X100507309Y-101748996D01*
X100393189Y-101683109D01*
X100393191Y-101683109D01*
X100343799Y-101669875D01*
X100265892Y-101649000D01*
X100134108Y-101649000D01*
X100056200Y-101669875D01*
X100006809Y-101683109D01*
X99892690Y-101748996D01*
X99799496Y-101842190D01*
X99733609Y-101956309D01*
X99733608Y-101956314D01*
X99699500Y-102083608D01*
X79401536Y-102083608D01*
X79410500Y-102038541D01*
X79410500Y-101841459D01*
X79372051Y-101648165D01*
X79296632Y-101466086D01*
X79187139Y-101302218D01*
X79047782Y-101162861D01*
X78883914Y-101053368D01*
X78883915Y-101053368D01*
X78883913Y-101053367D01*
X78701835Y-100977949D01*
X78508543Y-100939500D01*
X78508541Y-100939500D01*
X78311459Y-100939500D01*
X78311456Y-100939500D01*
X78118165Y-100977949D01*
X78118163Y-100977949D01*
X77936086Y-101053367D01*
X77772218Y-101162861D01*
X77772214Y-101162864D01*
X77632864Y-101302214D01*
X77632861Y-101302218D01*
X77523367Y-101466086D01*
X77447949Y-101648163D01*
X77447949Y-101648165D01*
X77409500Y-101841456D01*
X76968104Y-101841456D01*
X76942915Y-101682420D01*
X76889411Y-101517751D01*
X76810805Y-101363477D01*
X76746778Y-101275352D01*
X76313670Y-101708460D01*
X76270099Y-101632993D01*
X76177007Y-101539901D01*
X76101536Y-101496328D01*
X76534646Y-101063219D01*
X76446528Y-100999197D01*
X76446524Y-100999195D01*
X76292248Y-100920588D01*
X76127579Y-100867084D01*
X75956575Y-100840000D01*
X75783425Y-100840000D01*
X75612420Y-100867084D01*
X75447751Y-100920588D01*
X75293476Y-100999195D01*
X75205352Y-101063219D01*
X75638461Y-101496328D01*
X75562993Y-101539901D01*
X75469901Y-101632993D01*
X75426328Y-101708461D01*
X74993219Y-101275352D01*
X74929195Y-101363476D01*
X74850588Y-101517751D01*
X74797084Y-101682420D01*
X74770000Y-101853424D01*
X74500000Y-101853424D01*
X74500000Y-99313424D01*
X74770000Y-99313424D01*
X74770000Y-99486575D01*
X74797084Y-99657579D01*
X74850588Y-99822248D01*
X74929195Y-99976524D01*
X74929197Y-99976528D01*
X74993219Y-100064646D01*
X75426328Y-99631536D01*
X75469901Y-99707007D01*
X75562993Y-99800099D01*
X75638460Y-99843670D01*
X75205352Y-100276778D01*
X75293477Y-100340805D01*
X75447751Y-100419411D01*
X75612420Y-100472915D01*
X75783425Y-100500000D01*
X75956575Y-100500000D01*
X76127579Y-100472915D01*
X76292248Y-100419411D01*
X76446524Y-100340804D01*
X76446530Y-100340800D01*
X76534646Y-100276779D01*
X76534646Y-100276778D01*
X76101538Y-99843670D01*
X76177007Y-99800099D01*
X76270099Y-99707007D01*
X76313670Y-99631538D01*
X76746778Y-100064646D01*
X76746779Y-100064646D01*
X76810800Y-99976530D01*
X76810804Y-99976524D01*
X76889411Y-99822248D01*
X76942915Y-99657579D01*
X76970000Y-99486575D01*
X76970000Y-99313426D01*
X76969788Y-99312088D01*
X76969788Y-99312086D01*
X76969787Y-99312082D01*
X76968104Y-99301456D01*
X77409500Y-99301456D01*
X77409500Y-99498543D01*
X77447949Y-99691834D01*
X77447949Y-99691836D01*
X77523367Y-99873913D01*
X77523368Y-99873914D01*
X77632861Y-100037782D01*
X77772218Y-100177139D01*
X77936086Y-100286632D01*
X78118165Y-100362051D01*
X78311459Y-100400500D01*
X78311460Y-100400500D01*
X78508540Y-100400500D01*
X78508541Y-100400500D01*
X78701835Y-100362051D01*
X78883914Y-100286632D01*
X79047782Y-100177139D01*
X79187139Y-100037782D01*
X79296632Y-99873914D01*
X79372051Y-99691835D01*
X79410500Y-99498541D01*
X79410500Y-99301459D01*
X79372051Y-99108165D01*
X79354540Y-99065890D01*
X79312960Y-98965504D01*
X79299955Y-98934109D01*
X79299955Y-98934108D01*
X94299500Y-98934108D01*
X94299500Y-99065892D01*
X94329579Y-99178151D01*
X94333609Y-99193190D01*
X94399496Y-99307309D01*
X94399500Y-99307314D01*
X94599499Y-99507314D01*
X94692685Y-99600499D01*
X94692690Y-99600503D01*
X94806810Y-99666390D01*
X94806808Y-99666390D01*
X94806812Y-99666391D01*
X94806814Y-99666392D01*
X94934108Y-99700500D01*
X94934110Y-99700500D01*
X97916390Y-99700500D01*
X97916392Y-99700500D01*
X98043686Y-99666392D01*
X98043688Y-99666390D01*
X98043690Y-99666390D01*
X98157809Y-99600503D01*
X98157809Y-99600502D01*
X98157814Y-99600500D01*
X98224206Y-99534108D01*
X101649000Y-99534108D01*
X101649000Y-99665892D01*
X101655952Y-99691836D01*
X101683109Y-99793190D01*
X101748996Y-99907309D01*
X101748998Y-99907311D01*
X101749000Y-99907314D01*
X101842186Y-100000500D01*
X101842188Y-100000501D01*
X101842190Y-100000503D01*
X101956310Y-100066390D01*
X101956308Y-100066390D01*
X101956312Y-100066391D01*
X101956314Y-100066392D01*
X102083608Y-100100500D01*
X102083610Y-100100500D01*
X105865890Y-100100500D01*
X105865892Y-100100500D01*
X105993186Y-100066392D01*
X105993188Y-100066390D01*
X105993190Y-100066390D01*
X106107309Y-100000503D01*
X106107309Y-100000502D01*
X106107314Y-100000500D01*
X106200500Y-99907314D01*
X106266392Y-99793186D01*
X106300500Y-99665892D01*
X106300500Y-99534108D01*
X106266392Y-99406814D01*
X106266389Y-99406809D01*
X106231336Y-99346095D01*
X106231335Y-99346093D01*
X106209500Y-99308275D01*
X106205563Y-99301456D01*
X120589500Y-99301456D01*
X120589500Y-99498543D01*
X120627949Y-99691834D01*
X120627949Y-99691836D01*
X120703367Y-99873913D01*
X120703368Y-99873914D01*
X120812861Y-100037782D01*
X120952218Y-100177139D01*
X121116086Y-100286632D01*
X121298165Y-100362051D01*
X121491459Y-100400500D01*
X121491460Y-100400500D01*
X121688540Y-100400500D01*
X121688541Y-100400500D01*
X121881835Y-100362051D01*
X122063914Y-100286632D01*
X122227782Y-100177139D01*
X122367139Y-100037782D01*
X122476632Y-99873914D01*
X122552051Y-99691835D01*
X122590500Y-99498541D01*
X122590500Y-99313424D01*
X123030000Y-99313424D01*
X123030000Y-99486575D01*
X123057084Y-99657579D01*
X123110588Y-99822248D01*
X123189195Y-99976524D01*
X123189197Y-99976528D01*
X123253219Y-100064646D01*
X123686328Y-99631536D01*
X123729901Y-99707007D01*
X123822993Y-99800099D01*
X123898460Y-99843670D01*
X123465352Y-100276778D01*
X123553477Y-100340805D01*
X123707751Y-100419411D01*
X123872420Y-100472915D01*
X124043425Y-100500000D01*
X124216575Y-100500000D01*
X124387579Y-100472915D01*
X124552248Y-100419411D01*
X124706524Y-100340804D01*
X124706530Y-100340800D01*
X124794646Y-100276779D01*
X124794646Y-100276778D01*
X124361538Y-99843670D01*
X124437007Y-99800099D01*
X124530099Y-99707007D01*
X124573670Y-99631538D01*
X125006778Y-100064646D01*
X125006779Y-100064646D01*
X125070800Y-99976530D01*
X125070804Y-99976524D01*
X125149411Y-99822248D01*
X125202915Y-99657579D01*
X125230000Y-99486575D01*
X125230000Y-99313424D01*
X125202915Y-99142420D01*
X125149411Y-98977751D01*
X125070805Y-98823477D01*
X125006778Y-98735352D01*
X124573670Y-99168460D01*
X124530099Y-99092993D01*
X124437007Y-98999901D01*
X124361536Y-98956328D01*
X124794646Y-98523219D01*
X124706528Y-98459197D01*
X124706524Y-98459195D01*
X124552248Y-98380588D01*
X124387579Y-98327084D01*
X124216575Y-98300000D01*
X124043425Y-98300000D01*
X123872420Y-98327084D01*
X123707751Y-98380588D01*
X123553476Y-98459195D01*
X123465352Y-98523219D01*
X123898461Y-98956328D01*
X123822993Y-98999901D01*
X123729901Y-99092993D01*
X123686328Y-99168461D01*
X123253219Y-98735352D01*
X123189195Y-98823476D01*
X123110588Y-98977751D01*
X123057084Y-99142420D01*
X123030000Y-99313424D01*
X122590500Y-99313424D01*
X122590500Y-99301459D01*
X122552051Y-99108165D01*
X122476632Y-98926086D01*
X122367139Y-98762218D01*
X122227782Y-98622861D01*
X122094207Y-98533609D01*
X122063913Y-98513367D01*
X121881835Y-98437949D01*
X121688543Y-98399500D01*
X121688541Y-98399500D01*
X121491459Y-98399500D01*
X121491456Y-98399500D01*
X121298165Y-98437949D01*
X121298163Y-98437949D01*
X121116086Y-98513367D01*
X120952218Y-98622861D01*
X120952214Y-98622864D01*
X120812864Y-98762214D01*
X120812861Y-98762218D01*
X120703367Y-98926086D01*
X120627949Y-99108163D01*
X120627949Y-99108165D01*
X120589500Y-99301456D01*
X106205563Y-99301456D01*
X106200500Y-99292686D01*
X106107314Y-99199500D01*
X106107311Y-99199498D01*
X106107309Y-99199496D01*
X105993189Y-99133609D01*
X105993191Y-99133609D01*
X105943799Y-99120375D01*
X105865892Y-99099500D01*
X102083608Y-99099500D01*
X102005700Y-99120375D01*
X101956309Y-99133609D01*
X101842190Y-99199496D01*
X101748996Y-99292690D01*
X101683109Y-99406809D01*
X101683108Y-99406814D01*
X101649000Y-99534108D01*
X98224206Y-99534108D01*
X98251000Y-99507314D01*
X98262974Y-99486575D01*
X98267857Y-99478118D01*
X98309025Y-99406812D01*
X98316892Y-99393186D01*
X98351000Y-99265892D01*
X98351000Y-99134108D01*
X98316892Y-99006814D01*
X98316890Y-99006811D01*
X98316890Y-99006809D01*
X98251003Y-98892690D01*
X98251001Y-98892688D01*
X98251000Y-98892686D01*
X98157814Y-98799500D01*
X98157811Y-98799498D01*
X98157809Y-98799496D01*
X98043689Y-98733609D01*
X98043691Y-98733609D01*
X97994299Y-98720375D01*
X97916392Y-98699500D01*
X97916390Y-98699500D01*
X95248322Y-98699500D01*
X95190131Y-98680593D01*
X95178319Y-98670504D01*
X95107314Y-98599500D01*
X95107309Y-98599496D01*
X94993189Y-98533609D01*
X94993191Y-98533609D01*
X94943799Y-98520375D01*
X94865892Y-98499500D01*
X94734108Y-98499500D01*
X94656200Y-98520375D01*
X94606809Y-98533609D01*
X94492690Y-98599496D01*
X94399496Y-98692690D01*
X94333609Y-98806809D01*
X94333608Y-98806814D01*
X94299500Y-98934108D01*
X79299955Y-98934108D01*
X79296632Y-98926086D01*
X79187139Y-98762218D01*
X79047782Y-98622861D01*
X78914207Y-98533609D01*
X78883913Y-98513367D01*
X78701835Y-98437949D01*
X78508543Y-98399500D01*
X78508541Y-98399500D01*
X78311459Y-98399500D01*
X78311456Y-98399500D01*
X78118165Y-98437949D01*
X78118163Y-98437949D01*
X77936086Y-98513367D01*
X77772218Y-98622861D01*
X77772214Y-98622864D01*
X77632864Y-98762214D01*
X77632861Y-98762218D01*
X77523367Y-98926086D01*
X77447949Y-99108163D01*
X77447949Y-99108165D01*
X77409500Y-99301456D01*
X76968104Y-99301456D01*
X76942915Y-99142420D01*
X76889411Y-98977751D01*
X76810805Y-98823477D01*
X76746778Y-98735352D01*
X76313670Y-99168460D01*
X76270099Y-99092993D01*
X76177007Y-98999901D01*
X76101536Y-98956328D01*
X76534646Y-98523219D01*
X76446528Y-98459197D01*
X76446524Y-98459195D01*
X76292248Y-98380588D01*
X76127579Y-98327084D01*
X75956575Y-98300000D01*
X75783425Y-98300000D01*
X75612420Y-98327084D01*
X75447751Y-98380588D01*
X75293476Y-98459195D01*
X75205352Y-98523219D01*
X75638461Y-98956328D01*
X75562993Y-98999901D01*
X75469901Y-99092993D01*
X75426328Y-99168461D01*
X74993219Y-98735352D01*
X74929195Y-98823476D01*
X74850588Y-98977751D01*
X74797084Y-99142420D01*
X74770000Y-99313424D01*
X74500000Y-99313424D01*
X74500000Y-96773424D01*
X74770000Y-96773424D01*
X74770000Y-96946575D01*
X74797084Y-97117579D01*
X74850588Y-97282248D01*
X74929195Y-97436524D01*
X74929197Y-97436528D01*
X74993219Y-97524646D01*
X75426328Y-97091536D01*
X75469901Y-97167007D01*
X75562993Y-97260099D01*
X75638460Y-97303670D01*
X75205352Y-97736778D01*
X75293477Y-97800805D01*
X75447751Y-97879411D01*
X75612420Y-97932915D01*
X75783425Y-97960000D01*
X75956575Y-97960000D01*
X76127579Y-97932915D01*
X76292248Y-97879411D01*
X76446524Y-97800804D01*
X76446530Y-97800800D01*
X76534646Y-97736779D01*
X76534646Y-97736778D01*
X76101538Y-97303670D01*
X76177007Y-97260099D01*
X76270099Y-97167007D01*
X76313670Y-97091538D01*
X76746778Y-97524646D01*
X76746779Y-97524646D01*
X76810800Y-97436530D01*
X76810804Y-97436524D01*
X76889411Y-97282248D01*
X76942915Y-97117579D01*
X76970000Y-96946575D01*
X76970000Y-96773426D01*
X76969788Y-96772088D01*
X76969788Y-96772086D01*
X76969787Y-96772082D01*
X76968104Y-96761456D01*
X77409500Y-96761456D01*
X77409500Y-96958543D01*
X77447949Y-97151834D01*
X77447949Y-97151836D01*
X77523367Y-97333913D01*
X77523368Y-97333914D01*
X77632861Y-97497782D01*
X77772218Y-97637139D01*
X77936086Y-97746632D01*
X78118165Y-97822051D01*
X78311459Y-97860500D01*
X78311460Y-97860500D01*
X78508540Y-97860500D01*
X78508541Y-97860500D01*
X78701835Y-97822051D01*
X78792231Y-97784608D01*
X99987270Y-97784608D01*
X99987270Y-97916392D01*
X99998955Y-97960000D01*
X100021379Y-98043690D01*
X100087266Y-98157809D01*
X100087268Y-98157811D01*
X100087270Y-98157814D01*
X100180456Y-98251000D01*
X100180458Y-98251001D01*
X100180460Y-98251003D01*
X100294580Y-98316890D01*
X100294578Y-98316890D01*
X100294582Y-98316891D01*
X100294584Y-98316892D01*
X100421878Y-98351000D01*
X100421880Y-98351000D01*
X100553660Y-98351000D01*
X100553662Y-98351000D01*
X100680956Y-98316892D01*
X100680958Y-98316890D01*
X100680960Y-98316890D01*
X100795079Y-98251003D01*
X100795079Y-98251002D01*
X100795084Y-98251000D01*
X100900500Y-98145584D01*
X100966392Y-98031456D01*
X101000500Y-97904162D01*
X101000500Y-97772377D01*
X101000500Y-96761456D01*
X120589500Y-96761456D01*
X120589500Y-96958543D01*
X120627949Y-97151834D01*
X120627949Y-97151836D01*
X120703367Y-97333913D01*
X120703368Y-97333914D01*
X120812861Y-97497782D01*
X120952218Y-97637139D01*
X121116086Y-97746632D01*
X121298165Y-97822051D01*
X121491459Y-97860500D01*
X121491460Y-97860500D01*
X121688540Y-97860500D01*
X121688541Y-97860500D01*
X121881835Y-97822051D01*
X122063914Y-97746632D01*
X122227782Y-97637139D01*
X122367139Y-97497782D01*
X122476632Y-97333914D01*
X122552051Y-97151835D01*
X122590500Y-96958541D01*
X122590500Y-96773424D01*
X123030000Y-96773424D01*
X123030000Y-96946575D01*
X123057084Y-97117579D01*
X123110588Y-97282248D01*
X123189195Y-97436524D01*
X123189197Y-97436528D01*
X123253219Y-97524646D01*
X123686328Y-97091536D01*
X123729901Y-97167007D01*
X123822993Y-97260099D01*
X123898460Y-97303670D01*
X123465352Y-97736778D01*
X123553477Y-97800805D01*
X123707751Y-97879411D01*
X123872420Y-97932915D01*
X124043425Y-97960000D01*
X124216575Y-97960000D01*
X124387579Y-97932915D01*
X124552248Y-97879411D01*
X124706524Y-97800804D01*
X124706530Y-97800800D01*
X124794646Y-97736779D01*
X124794646Y-97736778D01*
X124361538Y-97303670D01*
X124437007Y-97260099D01*
X124530099Y-97167007D01*
X124573670Y-97091538D01*
X125006778Y-97524646D01*
X125006779Y-97524646D01*
X125070800Y-97436530D01*
X125070804Y-97436524D01*
X125149411Y-97282248D01*
X125202915Y-97117579D01*
X125230000Y-96946575D01*
X125230000Y-96773424D01*
X125202915Y-96602420D01*
X125149411Y-96437751D01*
X125070805Y-96283477D01*
X125006778Y-96195352D01*
X124573670Y-96628460D01*
X124530099Y-96552993D01*
X124437007Y-96459901D01*
X124361536Y-96416328D01*
X124794646Y-95983219D01*
X124706528Y-95919197D01*
X124706524Y-95919195D01*
X124552248Y-95840588D01*
X124387579Y-95787084D01*
X124216575Y-95760000D01*
X124043425Y-95760000D01*
X123872420Y-95787084D01*
X123707751Y-95840588D01*
X123553476Y-95919195D01*
X123465352Y-95983219D01*
X123898461Y-96416328D01*
X123822993Y-96459901D01*
X123729901Y-96552993D01*
X123686328Y-96628461D01*
X123253219Y-96195352D01*
X123189195Y-96283476D01*
X123110588Y-96437751D01*
X123057084Y-96602420D01*
X123030000Y-96773424D01*
X122590500Y-96773424D01*
X122590500Y-96761459D01*
X122552051Y-96568165D01*
X122476632Y-96386086D01*
X122367139Y-96222218D01*
X122227782Y-96082861D01*
X122063914Y-95973368D01*
X122063915Y-95973368D01*
X122063913Y-95973367D01*
X121881835Y-95897949D01*
X121688543Y-95859500D01*
X121688541Y-95859500D01*
X121491459Y-95859500D01*
X121491456Y-95859500D01*
X121298165Y-95897949D01*
X121298163Y-95897949D01*
X121116086Y-95973367D01*
X120952218Y-96082861D01*
X120952214Y-96082864D01*
X120812864Y-96222214D01*
X120812861Y-96222218D01*
X120703367Y-96386086D01*
X120627949Y-96568163D01*
X120627949Y-96568165D01*
X120589500Y-96761456D01*
X101000500Y-96761456D01*
X101000500Y-94221456D01*
X120589500Y-94221456D01*
X120589500Y-94418543D01*
X120627949Y-94611834D01*
X120627949Y-94611836D01*
X120703367Y-94793913D01*
X120703368Y-94793914D01*
X120812861Y-94957782D01*
X120952218Y-95097139D01*
X121116086Y-95206632D01*
X121298165Y-95282051D01*
X121491459Y-95320500D01*
X121491460Y-95320500D01*
X121688540Y-95320500D01*
X121688541Y-95320500D01*
X121881835Y-95282051D01*
X122063914Y-95206632D01*
X122227782Y-95097139D01*
X122367139Y-94957782D01*
X122476632Y-94793914D01*
X122552051Y-94611835D01*
X122590500Y-94418541D01*
X122590500Y-94233424D01*
X123030000Y-94233424D01*
X123030000Y-94406575D01*
X123057084Y-94577579D01*
X123110588Y-94742248D01*
X123189195Y-94896524D01*
X123189197Y-94896528D01*
X123253219Y-94984646D01*
X123686328Y-94551536D01*
X123729901Y-94627007D01*
X123822993Y-94720099D01*
X123898460Y-94763670D01*
X123465352Y-95196778D01*
X123553477Y-95260805D01*
X123707751Y-95339411D01*
X123872420Y-95392915D01*
X124043425Y-95420000D01*
X124216575Y-95420000D01*
X124387579Y-95392915D01*
X124552248Y-95339411D01*
X124706524Y-95260804D01*
X124706530Y-95260800D01*
X124794646Y-95196779D01*
X124794646Y-95196778D01*
X124361538Y-94763670D01*
X124437007Y-94720099D01*
X124530099Y-94627007D01*
X124573670Y-94551538D01*
X125006778Y-94984646D01*
X125006779Y-94984646D01*
X125070800Y-94896530D01*
X125070804Y-94896524D01*
X125149411Y-94742248D01*
X125202915Y-94577579D01*
X125230000Y-94406575D01*
X125230000Y-94233424D01*
X125202915Y-94062420D01*
X125149411Y-93897751D01*
X125070805Y-93743477D01*
X125006778Y-93655352D01*
X124573670Y-94088460D01*
X124530099Y-94012993D01*
X124437007Y-93919901D01*
X124361536Y-93876328D01*
X124794646Y-93443219D01*
X124706528Y-93379197D01*
X124706524Y-93379195D01*
X124552248Y-93300588D01*
X124387579Y-93247084D01*
X124216575Y-93220000D01*
X124043425Y-93220000D01*
X123872420Y-93247084D01*
X123707751Y-93300588D01*
X123553476Y-93379195D01*
X123465352Y-93443219D01*
X123898461Y-93876328D01*
X123822993Y-93919901D01*
X123729901Y-94012993D01*
X123686328Y-94088461D01*
X123253219Y-93655352D01*
X123189195Y-93743476D01*
X123110588Y-93897751D01*
X123057084Y-94062420D01*
X123030000Y-94233424D01*
X122590500Y-94233424D01*
X122590500Y-94221459D01*
X122552051Y-94028165D01*
X122476632Y-93846086D01*
X122367139Y-93682218D01*
X122227782Y-93542861D01*
X122063914Y-93433368D01*
X122063915Y-93433368D01*
X122063913Y-93433367D01*
X121881835Y-93357949D01*
X121688543Y-93319500D01*
X121688541Y-93319500D01*
X121491459Y-93319500D01*
X121491456Y-93319500D01*
X121298165Y-93357949D01*
X121298163Y-93357949D01*
X121116086Y-93433367D01*
X120952218Y-93542861D01*
X120952214Y-93542864D01*
X120812864Y-93682214D01*
X120812861Y-93682218D01*
X120703367Y-93846086D01*
X120627949Y-94028163D01*
X120627949Y-94028165D01*
X120589500Y-94221456D01*
X101000500Y-94221456D01*
X101000500Y-94134108D01*
X100966392Y-94006814D01*
X100966390Y-94006811D01*
X100966390Y-94006809D01*
X100900503Y-93892690D01*
X100900501Y-93892688D01*
X100900500Y-93892686D01*
X100807314Y-93799500D01*
X100807311Y-93799498D01*
X100807309Y-93799496D01*
X100693189Y-93733609D01*
X100693191Y-93733609D01*
X100643799Y-93720375D01*
X100565892Y-93699500D01*
X100434108Y-93699500D01*
X100356200Y-93720375D01*
X100306809Y-93733609D01*
X100192690Y-93799496D01*
X100099496Y-93892690D01*
X100033609Y-94006809D01*
X100014539Y-94077978D01*
X100006532Y-94107866D01*
X99999500Y-94134109D01*
X99999500Y-97725929D01*
X99996747Y-97746836D01*
X99996889Y-97748516D01*
X99996529Y-97750051D01*
X99987270Y-97784608D01*
X78792231Y-97784608D01*
X78883914Y-97746632D01*
X79047782Y-97637139D01*
X79187139Y-97497782D01*
X79296632Y-97333914D01*
X79372051Y-97151835D01*
X79410500Y-96958541D01*
X79410500Y-96761459D01*
X79372051Y-96568165D01*
X79296632Y-96386086D01*
X79187139Y-96222218D01*
X79047782Y-96082861D01*
X78883914Y-95973368D01*
X78883915Y-95973368D01*
X78883913Y-95973367D01*
X78701835Y-95897949D01*
X78508543Y-95859500D01*
X78508541Y-95859500D01*
X78311459Y-95859500D01*
X78311456Y-95859500D01*
X78118165Y-95897949D01*
X78118163Y-95897949D01*
X77936086Y-95973367D01*
X77772218Y-96082861D01*
X77772214Y-96082864D01*
X77632864Y-96222214D01*
X77632861Y-96222218D01*
X77523367Y-96386086D01*
X77447949Y-96568163D01*
X77447949Y-96568165D01*
X77409500Y-96761456D01*
X76968104Y-96761456D01*
X76942915Y-96602420D01*
X76889411Y-96437751D01*
X76810805Y-96283477D01*
X76746778Y-96195352D01*
X76313670Y-96628460D01*
X76270099Y-96552993D01*
X76177007Y-96459901D01*
X76101536Y-96416328D01*
X76534646Y-95983219D01*
X76446528Y-95919197D01*
X76446524Y-95919195D01*
X76292248Y-95840588D01*
X76127579Y-95787084D01*
X75956575Y-95760000D01*
X75783425Y-95760000D01*
X75612420Y-95787084D01*
X75447751Y-95840588D01*
X75293476Y-95919195D01*
X75205352Y-95983219D01*
X75638461Y-96416328D01*
X75562993Y-96459901D01*
X75469901Y-96552993D01*
X75426328Y-96628461D01*
X74993219Y-96195352D01*
X74929195Y-96283476D01*
X74850588Y-96437751D01*
X74797084Y-96602420D01*
X74770000Y-96773424D01*
X74500000Y-96773424D01*
X74500000Y-94233424D01*
X74770000Y-94233424D01*
X74770000Y-94406575D01*
X74797084Y-94577579D01*
X74850588Y-94742248D01*
X74929195Y-94896524D01*
X74929197Y-94896528D01*
X74993219Y-94984646D01*
X75426328Y-94551536D01*
X75469901Y-94627007D01*
X75562993Y-94720099D01*
X75638460Y-94763670D01*
X75205352Y-95196778D01*
X75293477Y-95260805D01*
X75447751Y-95339411D01*
X75612420Y-95392915D01*
X75783425Y-95420000D01*
X75956575Y-95420000D01*
X76127579Y-95392915D01*
X76292248Y-95339411D01*
X76446524Y-95260804D01*
X76446530Y-95260800D01*
X76534646Y-95196779D01*
X76534646Y-95196778D01*
X76101538Y-94763670D01*
X76177007Y-94720099D01*
X76270099Y-94627007D01*
X76313670Y-94551538D01*
X76746778Y-94984646D01*
X76746779Y-94984646D01*
X76810800Y-94896530D01*
X76810804Y-94896524D01*
X76889411Y-94742248D01*
X76942915Y-94577579D01*
X76970000Y-94406575D01*
X76970000Y-94233426D01*
X76969788Y-94232088D01*
X76969788Y-94232086D01*
X76969787Y-94232082D01*
X76968104Y-94221456D01*
X77409500Y-94221456D01*
X77409500Y-94418543D01*
X77447949Y-94611834D01*
X77447949Y-94611836D01*
X77523367Y-94793913D01*
X77523368Y-94793914D01*
X77632861Y-94957782D01*
X77772218Y-95097139D01*
X77936086Y-95206632D01*
X78118165Y-95282051D01*
X78311459Y-95320500D01*
X78311460Y-95320500D01*
X78508540Y-95320500D01*
X78508541Y-95320500D01*
X78701835Y-95282051D01*
X78883914Y-95206632D01*
X79047782Y-95097139D01*
X79187139Y-94957782D01*
X79296632Y-94793914D01*
X79372051Y-94611835D01*
X79410500Y-94418541D01*
X79410500Y-94221459D01*
X79372051Y-94028165D01*
X79296632Y-93846086D01*
X79187139Y-93682218D01*
X79047782Y-93542861D01*
X78883914Y-93433368D01*
X78883915Y-93433368D01*
X78883913Y-93433367D01*
X78701835Y-93357949D01*
X78508543Y-93319500D01*
X78508541Y-93319500D01*
X78311459Y-93319500D01*
X78311456Y-93319500D01*
X78118165Y-93357949D01*
X78118163Y-93357949D01*
X77936086Y-93433367D01*
X77772218Y-93542861D01*
X77772214Y-93542864D01*
X77632864Y-93682214D01*
X77632861Y-93682218D01*
X77523367Y-93846086D01*
X77447949Y-94028163D01*
X77447949Y-94028165D01*
X77409500Y-94221456D01*
X76968104Y-94221456D01*
X76942915Y-94062420D01*
X76889411Y-93897751D01*
X76810805Y-93743477D01*
X76746778Y-93655352D01*
X76313670Y-94088460D01*
X76270099Y-94012993D01*
X76177007Y-93919901D01*
X76101536Y-93876328D01*
X76534646Y-93443219D01*
X76446528Y-93379197D01*
X76446524Y-93379195D01*
X76292248Y-93300588D01*
X76127579Y-93247084D01*
X75956575Y-93220000D01*
X75783425Y-93220000D01*
X75612420Y-93247084D01*
X75447751Y-93300588D01*
X75293476Y-93379195D01*
X75205352Y-93443219D01*
X75638461Y-93876328D01*
X75562993Y-93919901D01*
X75469901Y-94012993D01*
X75426328Y-94088461D01*
X74993219Y-93655352D01*
X74929195Y-93743476D01*
X74850588Y-93897751D01*
X74797084Y-94062420D01*
X74770000Y-94233424D01*
X74500000Y-94233424D01*
X74500000Y-91693424D01*
X74770000Y-91693424D01*
X74770000Y-91866575D01*
X74797084Y-92037579D01*
X74850588Y-92202248D01*
X74929195Y-92356524D01*
X74929197Y-92356528D01*
X74993219Y-92444646D01*
X75426328Y-92011536D01*
X75469901Y-92087007D01*
X75562993Y-92180099D01*
X75638460Y-92223670D01*
X75205352Y-92656778D01*
X75293477Y-92720805D01*
X75447751Y-92799411D01*
X75612420Y-92852915D01*
X75783425Y-92880000D01*
X75956575Y-92880000D01*
X76127579Y-92852915D01*
X76292248Y-92799411D01*
X76446524Y-92720804D01*
X76446530Y-92720800D01*
X76534646Y-92656779D01*
X76534646Y-92656778D01*
X76101538Y-92223670D01*
X76177007Y-92180099D01*
X76270099Y-92087007D01*
X76313670Y-92011538D01*
X76746778Y-92444646D01*
X76746779Y-92444646D01*
X76810800Y-92356530D01*
X76810804Y-92356524D01*
X76889411Y-92202248D01*
X76942915Y-92037579D01*
X76970000Y-91866575D01*
X76970000Y-91693426D01*
X76969788Y-91692088D01*
X76969788Y-91692086D01*
X76969787Y-91692082D01*
X76968104Y-91681456D01*
X77409500Y-91681456D01*
X77409500Y-91878543D01*
X77447949Y-92071834D01*
X77447949Y-92071836D01*
X77523367Y-92253913D01*
X77523368Y-92253914D01*
X77632861Y-92417782D01*
X77772218Y-92557139D01*
X77936086Y-92666632D01*
X78118165Y-92742051D01*
X78311459Y-92780500D01*
X78311460Y-92780500D01*
X78508540Y-92780500D01*
X78508541Y-92780500D01*
X78701835Y-92742051D01*
X78883914Y-92666632D01*
X79047782Y-92557139D01*
X79187139Y-92417782D01*
X79296632Y-92253914D01*
X79372051Y-92071835D01*
X79410500Y-91878541D01*
X79410500Y-91681459D01*
X79410499Y-91681456D01*
X120589500Y-91681456D01*
X120589500Y-91878543D01*
X120627949Y-92071834D01*
X120627949Y-92071836D01*
X120703367Y-92253913D01*
X120703368Y-92253914D01*
X120812861Y-92417782D01*
X120952218Y-92557139D01*
X121116086Y-92666632D01*
X121298165Y-92742051D01*
X121491459Y-92780500D01*
X121491460Y-92780500D01*
X121688540Y-92780500D01*
X121688541Y-92780500D01*
X121881835Y-92742051D01*
X122063914Y-92666632D01*
X122227782Y-92557139D01*
X122367139Y-92417782D01*
X122476632Y-92253914D01*
X122552051Y-92071835D01*
X122590500Y-91878541D01*
X122590500Y-91693424D01*
X123030000Y-91693424D01*
X123030000Y-91866575D01*
X123057084Y-92037579D01*
X123110588Y-92202248D01*
X123189195Y-92356524D01*
X123189197Y-92356528D01*
X123253219Y-92444646D01*
X123686328Y-92011536D01*
X123729901Y-92087007D01*
X123822993Y-92180099D01*
X123898460Y-92223670D01*
X123465352Y-92656778D01*
X123553477Y-92720805D01*
X123707751Y-92799411D01*
X123872420Y-92852915D01*
X124043425Y-92880000D01*
X124216575Y-92880000D01*
X124387579Y-92852915D01*
X124552248Y-92799411D01*
X124706524Y-92720804D01*
X124706530Y-92720800D01*
X124794646Y-92656779D01*
X124794646Y-92656778D01*
X124361538Y-92223670D01*
X124437007Y-92180099D01*
X124530099Y-92087007D01*
X124573670Y-92011538D01*
X125006778Y-92444646D01*
X125006779Y-92444646D01*
X125070800Y-92356530D01*
X125070804Y-92356524D01*
X125149411Y-92202248D01*
X125202915Y-92037579D01*
X125230000Y-91866575D01*
X125230000Y-91693424D01*
X125202915Y-91522420D01*
X125149411Y-91357751D01*
X125070805Y-91203477D01*
X125006778Y-91115352D01*
X124573670Y-91548460D01*
X124530099Y-91472993D01*
X124437007Y-91379901D01*
X124361536Y-91336328D01*
X124794646Y-90903219D01*
X124706528Y-90839197D01*
X124706524Y-90839195D01*
X124552248Y-90760588D01*
X124387579Y-90707084D01*
X124216575Y-90680000D01*
X124043425Y-90680000D01*
X123872420Y-90707084D01*
X123707751Y-90760588D01*
X123553476Y-90839195D01*
X123465352Y-90903219D01*
X123898461Y-91336328D01*
X123822993Y-91379901D01*
X123729901Y-91472993D01*
X123686328Y-91548461D01*
X123253219Y-91115352D01*
X123189195Y-91203476D01*
X123110588Y-91357751D01*
X123057084Y-91522420D01*
X123030000Y-91693424D01*
X122590500Y-91693424D01*
X122590500Y-91681459D01*
X122552051Y-91488165D01*
X122476632Y-91306086D01*
X122367139Y-91142218D01*
X122227782Y-91002861D01*
X122063914Y-90893368D01*
X122063915Y-90893368D01*
X122063913Y-90893367D01*
X121881835Y-90817949D01*
X121688543Y-90779500D01*
X121688541Y-90779500D01*
X121491459Y-90779500D01*
X121491456Y-90779500D01*
X121298165Y-90817949D01*
X121298163Y-90817949D01*
X121116086Y-90893367D01*
X120952218Y-91002861D01*
X120952214Y-91002864D01*
X120812864Y-91142214D01*
X120812861Y-91142218D01*
X120703367Y-91306086D01*
X120627949Y-91488163D01*
X120627949Y-91488165D01*
X120589500Y-91681456D01*
X79410499Y-91681456D01*
X79372051Y-91488165D01*
X79296632Y-91306086D01*
X79187139Y-91142218D01*
X79047782Y-91002861D01*
X78883914Y-90893368D01*
X78883915Y-90893368D01*
X78883913Y-90893367D01*
X78701835Y-90817949D01*
X78508543Y-90779500D01*
X78508541Y-90779500D01*
X78311459Y-90779500D01*
X78311456Y-90779500D01*
X78118165Y-90817949D01*
X78118163Y-90817949D01*
X77936086Y-90893367D01*
X77772218Y-91002861D01*
X77772214Y-91002864D01*
X77632864Y-91142214D01*
X77632861Y-91142218D01*
X77523367Y-91306086D01*
X77447949Y-91488163D01*
X77447949Y-91488165D01*
X77409500Y-91681456D01*
X76968104Y-91681456D01*
X76942915Y-91522420D01*
X76889411Y-91357751D01*
X76810805Y-91203477D01*
X76746778Y-91115352D01*
X76313670Y-91548460D01*
X76270099Y-91472993D01*
X76177007Y-91379901D01*
X76101536Y-91336328D01*
X76534646Y-90903219D01*
X76446528Y-90839197D01*
X76446524Y-90839195D01*
X76292248Y-90760588D01*
X76127579Y-90707084D01*
X75956575Y-90680000D01*
X75783425Y-90680000D01*
X75612420Y-90707084D01*
X75447751Y-90760588D01*
X75293476Y-90839195D01*
X75205352Y-90903219D01*
X75638461Y-91336328D01*
X75562993Y-91379901D01*
X75469901Y-91472993D01*
X75426328Y-91548461D01*
X74993219Y-91115352D01*
X74929195Y-91203476D01*
X74850588Y-91357751D01*
X74797084Y-91522420D01*
X74770000Y-91693424D01*
X74500000Y-91693424D01*
X74500000Y-89153424D01*
X74770000Y-89153424D01*
X74770000Y-89326575D01*
X74797084Y-89497579D01*
X74850588Y-89662248D01*
X74929195Y-89816524D01*
X74929197Y-89816528D01*
X74993219Y-89904646D01*
X75426328Y-89471536D01*
X75469901Y-89547007D01*
X75562993Y-89640099D01*
X75638460Y-89683670D01*
X75205352Y-90116778D01*
X75293477Y-90180805D01*
X75447751Y-90259411D01*
X75612420Y-90312915D01*
X75783425Y-90340000D01*
X75956575Y-90340000D01*
X76127579Y-90312915D01*
X76292248Y-90259411D01*
X76446524Y-90180804D01*
X76446530Y-90180800D01*
X76534646Y-90116779D01*
X76534646Y-90116778D01*
X76101538Y-89683670D01*
X76177007Y-89640099D01*
X76270099Y-89547007D01*
X76313670Y-89471538D01*
X76746778Y-89904646D01*
X76746779Y-89904646D01*
X76810800Y-89816530D01*
X76810804Y-89816524D01*
X76889411Y-89662248D01*
X76942915Y-89497579D01*
X76970000Y-89326575D01*
X76970000Y-89153426D01*
X76969788Y-89152088D01*
X76969788Y-89152086D01*
X76969787Y-89152082D01*
X76968104Y-89141456D01*
X77409500Y-89141456D01*
X77409500Y-89338543D01*
X77447949Y-89531834D01*
X77447949Y-89531836D01*
X77523367Y-89713913D01*
X77523368Y-89713914D01*
X77632861Y-89877782D01*
X77772218Y-90017139D01*
X77936086Y-90126632D01*
X78118165Y-90202051D01*
X78311459Y-90240500D01*
X78311460Y-90240500D01*
X78508540Y-90240500D01*
X78508541Y-90240500D01*
X78701835Y-90202051D01*
X78883914Y-90126632D01*
X79047782Y-90017139D01*
X79187139Y-89877782D01*
X79296632Y-89713914D01*
X79372051Y-89531835D01*
X79410500Y-89338541D01*
X79410500Y-89141459D01*
X79410499Y-89141456D01*
X120589500Y-89141456D01*
X120589500Y-89338543D01*
X120627949Y-89531834D01*
X120627949Y-89531836D01*
X120703367Y-89713913D01*
X120703368Y-89713914D01*
X120812861Y-89877782D01*
X120952218Y-90017139D01*
X121116086Y-90126632D01*
X121298165Y-90202051D01*
X121491459Y-90240500D01*
X121491460Y-90240500D01*
X121688540Y-90240500D01*
X121688541Y-90240500D01*
X121881835Y-90202051D01*
X122063914Y-90126632D01*
X122227782Y-90017139D01*
X122367139Y-89877782D01*
X122476632Y-89713914D01*
X122552051Y-89531835D01*
X122590500Y-89338541D01*
X122590500Y-89153424D01*
X123030000Y-89153424D01*
X123030000Y-89326575D01*
X123057084Y-89497579D01*
X123110588Y-89662248D01*
X123189195Y-89816524D01*
X123189197Y-89816528D01*
X123253219Y-89904646D01*
X123686328Y-89471536D01*
X123729901Y-89547007D01*
X123822993Y-89640099D01*
X123898460Y-89683670D01*
X123465352Y-90116778D01*
X123553477Y-90180805D01*
X123707751Y-90259411D01*
X123872420Y-90312915D01*
X124043425Y-90340000D01*
X124216575Y-90340000D01*
X124387579Y-90312915D01*
X124552248Y-90259411D01*
X124706524Y-90180804D01*
X124706530Y-90180800D01*
X124794646Y-90116779D01*
X124794646Y-90116778D01*
X124361538Y-89683670D01*
X124437007Y-89640099D01*
X124530099Y-89547007D01*
X124573670Y-89471538D01*
X125006778Y-89904646D01*
X125006779Y-89904646D01*
X125070800Y-89816530D01*
X125070804Y-89816524D01*
X125149411Y-89662248D01*
X125202915Y-89497579D01*
X125230000Y-89326575D01*
X125230000Y-89153424D01*
X125202915Y-88982420D01*
X125149411Y-88817751D01*
X125070805Y-88663477D01*
X125006778Y-88575352D01*
X124573670Y-89008460D01*
X124530099Y-88932993D01*
X124437007Y-88839901D01*
X124361536Y-88796328D01*
X124794646Y-88363219D01*
X124706528Y-88299197D01*
X124706524Y-88299195D01*
X124552248Y-88220588D01*
X124387579Y-88167084D01*
X124216575Y-88140000D01*
X124043425Y-88140000D01*
X123872420Y-88167084D01*
X123707751Y-88220588D01*
X123553476Y-88299195D01*
X123465352Y-88363219D01*
X123898461Y-88796328D01*
X123822993Y-88839901D01*
X123729901Y-88932993D01*
X123686328Y-89008461D01*
X123253219Y-88575352D01*
X123189195Y-88663476D01*
X123110588Y-88817751D01*
X123057084Y-88982420D01*
X123030000Y-89153424D01*
X122590500Y-89153424D01*
X122590500Y-89141459D01*
X122552051Y-88948165D01*
X122476632Y-88766086D01*
X122367139Y-88602218D01*
X122227782Y-88462861D01*
X122063914Y-88353368D01*
X122063915Y-88353368D01*
X122063913Y-88353367D01*
X121881835Y-88277949D01*
X121688543Y-88239500D01*
X121688541Y-88239500D01*
X121491459Y-88239500D01*
X121491456Y-88239500D01*
X121298165Y-88277949D01*
X121298163Y-88277949D01*
X121116086Y-88353367D01*
X120952218Y-88462861D01*
X120952214Y-88462864D01*
X120812864Y-88602214D01*
X120812861Y-88602218D01*
X120703367Y-88766086D01*
X120627949Y-88948163D01*
X120627949Y-88948165D01*
X120589500Y-89141456D01*
X79410499Y-89141456D01*
X79372051Y-88948165D01*
X79296632Y-88766086D01*
X79187139Y-88602218D01*
X79047782Y-88462861D01*
X78883914Y-88353368D01*
X78883915Y-88353368D01*
X78883913Y-88353367D01*
X78701835Y-88277949D01*
X78508543Y-88239500D01*
X78508541Y-88239500D01*
X78311459Y-88239500D01*
X78311456Y-88239500D01*
X78118165Y-88277949D01*
X78118163Y-88277949D01*
X77936086Y-88353367D01*
X77772218Y-88462861D01*
X77772214Y-88462864D01*
X77632864Y-88602214D01*
X77632861Y-88602218D01*
X77523367Y-88766086D01*
X77447949Y-88948163D01*
X77447949Y-88948165D01*
X77409500Y-89141456D01*
X76968104Y-89141456D01*
X76942915Y-88982420D01*
X76889411Y-88817751D01*
X76810805Y-88663477D01*
X76746778Y-88575352D01*
X76313670Y-89008460D01*
X76270099Y-88932993D01*
X76177007Y-88839901D01*
X76101536Y-88796328D01*
X76534646Y-88363219D01*
X76446528Y-88299197D01*
X76446524Y-88299195D01*
X76292248Y-88220588D01*
X76127579Y-88167084D01*
X75956575Y-88140000D01*
X75783425Y-88140000D01*
X75612420Y-88167084D01*
X75447751Y-88220588D01*
X75293476Y-88299195D01*
X75205352Y-88363219D01*
X75638461Y-88796328D01*
X75562993Y-88839901D01*
X75469901Y-88932993D01*
X75426328Y-89008461D01*
X74993219Y-88575352D01*
X74929195Y-88663476D01*
X74850588Y-88817751D01*
X74797084Y-88982420D01*
X74770000Y-89153424D01*
X74500000Y-89153424D01*
X74500000Y-86613424D01*
X74770000Y-86613424D01*
X74770000Y-86786575D01*
X74797084Y-86957579D01*
X74850588Y-87122248D01*
X74929195Y-87276524D01*
X74929197Y-87276528D01*
X74993219Y-87364646D01*
X75426328Y-86931536D01*
X75469901Y-87007007D01*
X75562993Y-87100099D01*
X75638460Y-87143670D01*
X75205352Y-87576778D01*
X75293477Y-87640805D01*
X75447751Y-87719411D01*
X75612420Y-87772915D01*
X75783425Y-87800000D01*
X75956575Y-87800000D01*
X76127579Y-87772915D01*
X76292248Y-87719411D01*
X76446524Y-87640804D01*
X76446530Y-87640800D01*
X76534646Y-87576779D01*
X76534646Y-87576778D01*
X76101538Y-87143670D01*
X76177007Y-87100099D01*
X76270099Y-87007007D01*
X76313670Y-86931538D01*
X76746778Y-87364646D01*
X76746779Y-87364646D01*
X76810800Y-87276530D01*
X76810804Y-87276524D01*
X76889411Y-87122248D01*
X76942915Y-86957579D01*
X76970000Y-86786575D01*
X76970000Y-86613426D01*
X76969788Y-86612088D01*
X76969788Y-86612086D01*
X76969787Y-86612082D01*
X76968104Y-86601456D01*
X77409500Y-86601456D01*
X77409500Y-86798543D01*
X77447949Y-86991834D01*
X77447949Y-86991836D01*
X77523367Y-87173913D01*
X77523368Y-87173914D01*
X77632861Y-87337782D01*
X77772218Y-87477139D01*
X77936086Y-87586632D01*
X78118165Y-87662051D01*
X78311459Y-87700500D01*
X78311460Y-87700500D01*
X78508540Y-87700500D01*
X78508541Y-87700500D01*
X78701835Y-87662051D01*
X78883914Y-87586632D01*
X79047782Y-87477139D01*
X79187139Y-87337782D01*
X79296632Y-87173914D01*
X79372051Y-86991835D01*
X79410500Y-86798541D01*
X79410500Y-86601459D01*
X79410499Y-86601456D01*
X120589500Y-86601456D01*
X120589500Y-86798543D01*
X120627949Y-86991834D01*
X120627949Y-86991836D01*
X120703367Y-87173913D01*
X120703368Y-87173914D01*
X120812861Y-87337782D01*
X120952218Y-87477139D01*
X121116086Y-87586632D01*
X121298165Y-87662051D01*
X121491459Y-87700500D01*
X121491460Y-87700500D01*
X121688540Y-87700500D01*
X121688541Y-87700500D01*
X121881835Y-87662051D01*
X122063914Y-87586632D01*
X122227782Y-87477139D01*
X122367139Y-87337782D01*
X122476632Y-87173914D01*
X122552051Y-86991835D01*
X122590500Y-86798541D01*
X122590500Y-86613424D01*
X123030000Y-86613424D01*
X123030000Y-86786575D01*
X123057084Y-86957579D01*
X123110588Y-87122248D01*
X123189195Y-87276524D01*
X123189197Y-87276528D01*
X123253219Y-87364646D01*
X123686328Y-86931536D01*
X123729901Y-87007007D01*
X123822993Y-87100099D01*
X123898460Y-87143670D01*
X123465352Y-87576778D01*
X123553477Y-87640805D01*
X123707751Y-87719411D01*
X123872420Y-87772915D01*
X124043425Y-87800000D01*
X124216575Y-87800000D01*
X124387579Y-87772915D01*
X124552248Y-87719411D01*
X124706524Y-87640804D01*
X124706530Y-87640800D01*
X124794646Y-87576779D01*
X124794646Y-87576778D01*
X124361538Y-87143670D01*
X124437007Y-87100099D01*
X124530099Y-87007007D01*
X124573670Y-86931538D01*
X125006778Y-87364646D01*
X125006779Y-87364646D01*
X125070800Y-87276530D01*
X125070804Y-87276524D01*
X125149411Y-87122248D01*
X125202915Y-86957579D01*
X125230000Y-86786575D01*
X125230000Y-86613424D01*
X125202915Y-86442420D01*
X125149411Y-86277751D01*
X125070805Y-86123477D01*
X125006778Y-86035352D01*
X124573670Y-86468460D01*
X124530099Y-86392993D01*
X124437007Y-86299901D01*
X124361536Y-86256328D01*
X124794646Y-85823219D01*
X124706528Y-85759197D01*
X124706524Y-85759195D01*
X124552248Y-85680588D01*
X124387579Y-85627084D01*
X124216575Y-85600000D01*
X124043425Y-85600000D01*
X123872420Y-85627084D01*
X123707751Y-85680588D01*
X123553476Y-85759195D01*
X123465352Y-85823219D01*
X123898461Y-86256328D01*
X123822993Y-86299901D01*
X123729901Y-86392993D01*
X123686328Y-86468461D01*
X123253219Y-86035352D01*
X123189195Y-86123476D01*
X123110588Y-86277751D01*
X123057084Y-86442420D01*
X123030000Y-86613424D01*
X122590500Y-86613424D01*
X122590500Y-86601459D01*
X122552051Y-86408165D01*
X122476632Y-86226086D01*
X122367139Y-86062218D01*
X122227782Y-85922861D01*
X122063914Y-85813368D01*
X122063915Y-85813368D01*
X122063913Y-85813367D01*
X121881835Y-85737949D01*
X121688543Y-85699500D01*
X121688541Y-85699500D01*
X121491459Y-85699500D01*
X121491456Y-85699500D01*
X121298165Y-85737949D01*
X121298163Y-85737949D01*
X121116086Y-85813367D01*
X120952218Y-85922861D01*
X120952214Y-85922864D01*
X120812864Y-86062214D01*
X120812861Y-86062218D01*
X120703367Y-86226086D01*
X120627949Y-86408163D01*
X120627949Y-86408165D01*
X120589500Y-86601456D01*
X79410499Y-86601456D01*
X79372051Y-86408165D01*
X79296632Y-86226086D01*
X79187139Y-86062218D01*
X79047782Y-85922861D01*
X78883914Y-85813368D01*
X78883915Y-85813368D01*
X78883913Y-85813367D01*
X78701835Y-85737949D01*
X78508543Y-85699500D01*
X78508541Y-85699500D01*
X78311459Y-85699500D01*
X78311456Y-85699500D01*
X78118165Y-85737949D01*
X78118163Y-85737949D01*
X77936086Y-85813367D01*
X77772218Y-85922861D01*
X77772214Y-85922864D01*
X77632864Y-86062214D01*
X77632861Y-86062218D01*
X77523367Y-86226086D01*
X77447949Y-86408163D01*
X77447949Y-86408165D01*
X77409500Y-86601456D01*
X76968104Y-86601456D01*
X76942915Y-86442420D01*
X76889411Y-86277751D01*
X76810805Y-86123477D01*
X76746778Y-86035352D01*
X76313670Y-86468460D01*
X76270099Y-86392993D01*
X76177007Y-86299901D01*
X76101536Y-86256328D01*
X76534646Y-85823219D01*
X76446528Y-85759197D01*
X76446524Y-85759195D01*
X76292248Y-85680588D01*
X76127579Y-85627084D01*
X75956575Y-85600000D01*
X75783425Y-85600000D01*
X75612420Y-85627084D01*
X75447751Y-85680588D01*
X75293476Y-85759195D01*
X75205352Y-85823219D01*
X75638461Y-86256328D01*
X75562993Y-86299901D01*
X75469901Y-86392993D01*
X75426328Y-86468461D01*
X74993219Y-86035352D01*
X74929195Y-86123476D01*
X74850588Y-86277751D01*
X74797084Y-86442420D01*
X74770000Y-86613424D01*
X74500000Y-86613424D01*
X74500000Y-84073424D01*
X74770000Y-84073424D01*
X74770000Y-84246575D01*
X74797084Y-84417579D01*
X74850588Y-84582248D01*
X74929195Y-84736524D01*
X74929197Y-84736528D01*
X74993219Y-84824646D01*
X75426328Y-84391536D01*
X75469901Y-84467007D01*
X75562993Y-84560099D01*
X75638460Y-84603670D01*
X75205352Y-85036778D01*
X75293477Y-85100805D01*
X75447751Y-85179411D01*
X75612420Y-85232915D01*
X75783425Y-85260000D01*
X75956575Y-85260000D01*
X76127579Y-85232915D01*
X76292248Y-85179411D01*
X76446524Y-85100804D01*
X76446530Y-85100800D01*
X76534646Y-85036779D01*
X76534646Y-85036778D01*
X76101538Y-84603670D01*
X76177007Y-84560099D01*
X76270099Y-84467007D01*
X76313670Y-84391538D01*
X76746778Y-84824646D01*
X76746779Y-84824646D01*
X76810800Y-84736530D01*
X76810804Y-84736524D01*
X76889411Y-84582248D01*
X76942915Y-84417579D01*
X76970000Y-84246575D01*
X76970000Y-84073426D01*
X76969788Y-84072088D01*
X76969788Y-84072086D01*
X76969787Y-84072082D01*
X76968104Y-84061456D01*
X77409500Y-84061456D01*
X77409500Y-84258543D01*
X77447949Y-84451834D01*
X77447949Y-84451836D01*
X77523367Y-84633913D01*
X77523368Y-84633914D01*
X77632861Y-84797782D01*
X77772218Y-84937139D01*
X77936086Y-85046632D01*
X78118165Y-85122051D01*
X78311459Y-85160500D01*
X78311460Y-85160500D01*
X78508540Y-85160500D01*
X78508541Y-85160500D01*
X78701835Y-85122051D01*
X78883914Y-85046632D01*
X79047782Y-84937139D01*
X79187139Y-84797782D01*
X79296632Y-84633914D01*
X79372051Y-84451835D01*
X79410500Y-84258541D01*
X79410500Y-84061459D01*
X79410499Y-84061453D01*
X79407611Y-84046932D01*
X79405060Y-84034108D01*
X85499500Y-84034108D01*
X85499500Y-84165892D01*
X85524325Y-84258541D01*
X85533609Y-84293190D01*
X85599496Y-84407309D01*
X85599498Y-84407311D01*
X85599500Y-84407314D01*
X85692686Y-84500500D01*
X85692688Y-84500501D01*
X85692690Y-84500503D01*
X85806810Y-84566390D01*
X85806808Y-84566390D01*
X85806812Y-84566391D01*
X85806814Y-84566392D01*
X85934108Y-84600500D01*
X85934110Y-84600500D01*
X86065890Y-84600500D01*
X86065892Y-84600500D01*
X86193186Y-84566392D01*
X86193188Y-84566390D01*
X86193190Y-84566390D01*
X86307309Y-84500503D01*
X86307309Y-84500502D01*
X86307314Y-84500500D01*
X86400500Y-84407314D01*
X86400503Y-84407309D01*
X86466390Y-84293190D01*
X86466390Y-84293188D01*
X86466392Y-84293186D01*
X86500500Y-84165892D01*
X86500500Y-84061456D01*
X120589500Y-84061456D01*
X120589500Y-84258543D01*
X120627949Y-84451834D01*
X120627949Y-84451836D01*
X120703367Y-84633913D01*
X120703368Y-84633914D01*
X120812861Y-84797782D01*
X120952218Y-84937139D01*
X121116086Y-85046632D01*
X121298165Y-85122051D01*
X121491459Y-85160500D01*
X121491460Y-85160500D01*
X121688540Y-85160500D01*
X121688541Y-85160500D01*
X121881835Y-85122051D01*
X122063914Y-85046632D01*
X122227782Y-84937139D01*
X122367139Y-84797782D01*
X122476632Y-84633914D01*
X122552051Y-84451835D01*
X122590500Y-84258541D01*
X122590500Y-84073424D01*
X123030000Y-84073424D01*
X123030000Y-84246575D01*
X123057084Y-84417579D01*
X123110588Y-84582248D01*
X123189195Y-84736524D01*
X123189197Y-84736528D01*
X123253219Y-84824646D01*
X123686328Y-84391536D01*
X123729901Y-84467007D01*
X123822993Y-84560099D01*
X123898460Y-84603670D01*
X123465352Y-85036778D01*
X123553477Y-85100805D01*
X123707751Y-85179411D01*
X123872420Y-85232915D01*
X124043425Y-85260000D01*
X124216575Y-85260000D01*
X124387579Y-85232915D01*
X124552248Y-85179411D01*
X124706524Y-85100804D01*
X124706530Y-85100800D01*
X124794646Y-85036779D01*
X124794646Y-85036778D01*
X124361538Y-84603670D01*
X124437007Y-84560099D01*
X124530099Y-84467007D01*
X124573670Y-84391538D01*
X125006778Y-84824646D01*
X125006779Y-84824646D01*
X125070800Y-84736530D01*
X125070804Y-84736524D01*
X125149411Y-84582248D01*
X125202915Y-84417579D01*
X125230000Y-84246575D01*
X125230000Y-84073424D01*
X125202915Y-83902420D01*
X125149411Y-83737751D01*
X125070805Y-83583477D01*
X125006778Y-83495352D01*
X124573670Y-83928460D01*
X124530099Y-83852993D01*
X124437007Y-83759901D01*
X124361536Y-83716328D01*
X124794646Y-83283219D01*
X124706528Y-83219197D01*
X124706524Y-83219195D01*
X124552248Y-83140588D01*
X124387579Y-83087084D01*
X124216575Y-83060000D01*
X124043425Y-83060000D01*
X123872420Y-83087084D01*
X123707751Y-83140588D01*
X123553476Y-83219195D01*
X123465352Y-83283219D01*
X123898461Y-83716328D01*
X123822993Y-83759901D01*
X123729901Y-83852993D01*
X123686328Y-83928461D01*
X123253219Y-83495352D01*
X123189195Y-83583476D01*
X123110588Y-83737751D01*
X123057084Y-83902420D01*
X123030000Y-84073424D01*
X122590500Y-84073424D01*
X122590500Y-84061459D01*
X122552051Y-83868165D01*
X122476632Y-83686086D01*
X122367139Y-83522218D01*
X122227782Y-83382861D01*
X122063914Y-83273368D01*
X122063915Y-83273368D01*
X122063913Y-83273367D01*
X121881835Y-83197949D01*
X121688543Y-83159500D01*
X121688541Y-83159500D01*
X121491459Y-83159500D01*
X121491456Y-83159500D01*
X121298165Y-83197949D01*
X121298163Y-83197949D01*
X121116086Y-83273367D01*
X120952218Y-83382861D01*
X120952214Y-83382864D01*
X120812864Y-83522214D01*
X120812861Y-83522218D01*
X120703367Y-83686086D01*
X120627949Y-83868163D01*
X120627949Y-83868165D01*
X120589500Y-84061456D01*
X86500500Y-84061456D01*
X86500500Y-84034108D01*
X86500500Y-84030122D01*
X86519407Y-83971931D01*
X86529496Y-83960118D01*
X88968160Y-81521456D01*
X120589500Y-81521456D01*
X120589500Y-81718543D01*
X120627949Y-81911834D01*
X120627949Y-81911836D01*
X120703367Y-82093913D01*
X120703368Y-82093914D01*
X120812861Y-82257782D01*
X120952218Y-82397139D01*
X121116086Y-82506632D01*
X121298165Y-82582051D01*
X121491459Y-82620500D01*
X121491460Y-82620500D01*
X121688540Y-82620500D01*
X121688541Y-82620500D01*
X121881835Y-82582051D01*
X122063914Y-82506632D01*
X122227782Y-82397139D01*
X122367139Y-82257782D01*
X122476632Y-82093914D01*
X122552051Y-81911835D01*
X122590500Y-81718541D01*
X122590500Y-81533424D01*
X123030000Y-81533424D01*
X123030000Y-81706575D01*
X123057084Y-81877579D01*
X123110588Y-82042248D01*
X123189195Y-82196524D01*
X123189197Y-82196528D01*
X123253219Y-82284646D01*
X123686328Y-81851536D01*
X123729901Y-81927007D01*
X123822993Y-82020099D01*
X123898460Y-82063670D01*
X123465352Y-82496778D01*
X123553477Y-82560805D01*
X123707751Y-82639411D01*
X123872420Y-82692915D01*
X124043425Y-82720000D01*
X124216575Y-82720000D01*
X124387579Y-82692915D01*
X124552248Y-82639411D01*
X124706524Y-82560804D01*
X124706530Y-82560800D01*
X124794646Y-82496779D01*
X124794646Y-82496778D01*
X124361538Y-82063670D01*
X124437007Y-82020099D01*
X124530099Y-81927007D01*
X124573670Y-81851538D01*
X125006778Y-82284646D01*
X125006779Y-82284646D01*
X125070800Y-82196530D01*
X125070804Y-82196524D01*
X125149411Y-82042248D01*
X125202915Y-81877579D01*
X125230000Y-81706575D01*
X125230000Y-81533424D01*
X125202915Y-81362420D01*
X125149411Y-81197751D01*
X125070805Y-81043477D01*
X125006778Y-80955352D01*
X124573670Y-81388460D01*
X124530099Y-81312993D01*
X124437007Y-81219901D01*
X124361536Y-81176328D01*
X124794646Y-80743219D01*
X124706528Y-80679197D01*
X124706524Y-80679195D01*
X124552248Y-80600588D01*
X124387579Y-80547084D01*
X124216575Y-80520000D01*
X124043425Y-80520000D01*
X123872420Y-80547084D01*
X123707751Y-80600588D01*
X123553476Y-80679195D01*
X123465352Y-80743219D01*
X123898461Y-81176328D01*
X123822993Y-81219901D01*
X123729901Y-81312993D01*
X123686328Y-81388461D01*
X123253219Y-80955352D01*
X123189195Y-81043476D01*
X123110588Y-81197751D01*
X123057084Y-81362420D01*
X123030000Y-81533424D01*
X122590500Y-81533424D01*
X122590500Y-81521459D01*
X122552051Y-81328165D01*
X122476632Y-81146086D01*
X122367139Y-80982218D01*
X122227782Y-80842861D01*
X122065023Y-80734109D01*
X122063913Y-80733367D01*
X121881835Y-80657949D01*
X121688543Y-80619500D01*
X121688541Y-80619500D01*
X121491459Y-80619500D01*
X121491456Y-80619500D01*
X121298165Y-80657949D01*
X121298163Y-80657949D01*
X121116086Y-80733367D01*
X120952218Y-80842861D01*
X120952214Y-80842864D01*
X120812864Y-80982214D01*
X120812861Y-80982218D01*
X120703367Y-81146086D01*
X120627949Y-81328163D01*
X120627949Y-81328165D01*
X120589500Y-81521456D01*
X88968160Y-81521456D01*
X89043025Y-81446591D01*
X89385120Y-81104496D01*
X89439637Y-81076719D01*
X89455124Y-81075500D01*
X90826679Y-81075500D01*
X90884870Y-81094407D01*
X90896683Y-81104496D01*
X90899498Y-81107311D01*
X90899500Y-81107314D01*
X90992686Y-81200500D01*
X90992688Y-81200501D01*
X90992690Y-81200503D01*
X91106810Y-81266390D01*
X91106808Y-81266390D01*
X91106812Y-81266391D01*
X91106814Y-81266392D01*
X91234108Y-81300500D01*
X91234110Y-81300500D01*
X91365890Y-81300500D01*
X91365892Y-81300500D01*
X91493186Y-81266392D01*
X91493188Y-81266390D01*
X91493190Y-81266390D01*
X91607309Y-81200503D01*
X91607309Y-81200502D01*
X91607314Y-81200500D01*
X91700500Y-81107314D01*
X91718868Y-81075500D01*
X91766390Y-80993190D01*
X91766390Y-80993188D01*
X91766392Y-80993186D01*
X91800500Y-80865892D01*
X91800500Y-80734108D01*
X91766392Y-80606814D01*
X91766390Y-80606811D01*
X91766390Y-80606809D01*
X91700503Y-80492690D01*
X91700501Y-80492688D01*
X91700500Y-80492686D01*
X91607314Y-80399500D01*
X91607311Y-80399498D01*
X91607309Y-80399496D01*
X91493189Y-80333609D01*
X91493191Y-80333609D01*
X91443799Y-80320375D01*
X91365892Y-80299500D01*
X91234108Y-80299500D01*
X91156200Y-80320375D01*
X91106809Y-80333609D01*
X90992690Y-80399496D01*
X90992689Y-80399497D01*
X90992686Y-80399499D01*
X90992686Y-80399500D01*
X90899500Y-80492686D01*
X90899498Y-80492688D01*
X90896683Y-80495504D01*
X90842166Y-80523281D01*
X90826679Y-80524500D01*
X89245198Y-80524500D01*
X89143944Y-80566440D01*
X86139880Y-83570504D01*
X86085363Y-83598281D01*
X86069876Y-83599500D01*
X86065892Y-83599500D01*
X85934108Y-83599500D01*
X85856200Y-83620375D01*
X85806809Y-83633609D01*
X85692690Y-83699496D01*
X85599496Y-83792690D01*
X85533609Y-83906809D01*
X85533608Y-83906814D01*
X85499500Y-84034108D01*
X79405060Y-84034108D01*
X79390342Y-83960118D01*
X79372051Y-83868165D01*
X79296632Y-83686086D01*
X79187139Y-83522218D01*
X79047782Y-83382861D01*
X78883914Y-83273368D01*
X78883915Y-83273368D01*
X78883913Y-83273367D01*
X78701835Y-83197949D01*
X78508543Y-83159500D01*
X78508541Y-83159500D01*
X78311459Y-83159500D01*
X78311456Y-83159500D01*
X78118165Y-83197949D01*
X78118163Y-83197949D01*
X77936086Y-83273367D01*
X77772218Y-83382861D01*
X77772214Y-83382864D01*
X77632864Y-83522214D01*
X77632861Y-83522218D01*
X77523367Y-83686086D01*
X77447949Y-83868163D01*
X77447949Y-83868165D01*
X77409500Y-84061456D01*
X76968104Y-84061456D01*
X76942915Y-83902420D01*
X76889411Y-83737751D01*
X76810805Y-83583477D01*
X76746778Y-83495352D01*
X76313670Y-83928460D01*
X76270099Y-83852993D01*
X76177007Y-83759901D01*
X76101536Y-83716328D01*
X76534646Y-83283219D01*
X76446528Y-83219197D01*
X76446524Y-83219195D01*
X76292248Y-83140588D01*
X76127579Y-83087084D01*
X75956575Y-83060000D01*
X75783425Y-83060000D01*
X75612420Y-83087084D01*
X75447751Y-83140588D01*
X75293476Y-83219195D01*
X75205352Y-83283219D01*
X75638461Y-83716328D01*
X75562993Y-83759901D01*
X75469901Y-83852993D01*
X75426328Y-83928461D01*
X74993219Y-83495352D01*
X74929195Y-83583476D01*
X74850588Y-83737751D01*
X74797084Y-83902420D01*
X74770000Y-84073424D01*
X74500000Y-84073424D01*
X74500000Y-81533424D01*
X74770000Y-81533424D01*
X74770000Y-81706575D01*
X74797084Y-81877579D01*
X74850588Y-82042248D01*
X74929195Y-82196524D01*
X74929197Y-82196528D01*
X74993219Y-82284646D01*
X75426328Y-81851536D01*
X75469901Y-81927007D01*
X75562993Y-82020099D01*
X75638460Y-82063670D01*
X75205352Y-82496778D01*
X75293477Y-82560805D01*
X75447751Y-82639411D01*
X75612420Y-82692915D01*
X75783425Y-82720000D01*
X75956575Y-82720000D01*
X76127579Y-82692915D01*
X76292248Y-82639411D01*
X76446524Y-82560804D01*
X76446530Y-82560800D01*
X76534646Y-82496779D01*
X76534646Y-82496778D01*
X76101538Y-82063670D01*
X76177007Y-82020099D01*
X76270099Y-81927007D01*
X76313670Y-81851538D01*
X76746778Y-82284646D01*
X76746779Y-82284646D01*
X76810800Y-82196530D01*
X76810804Y-82196524D01*
X76889411Y-82042248D01*
X76942915Y-81877579D01*
X76970000Y-81706575D01*
X76970000Y-81533426D01*
X76969788Y-81532088D01*
X76969788Y-81532086D01*
X76969787Y-81532082D01*
X76968104Y-81521456D01*
X77409500Y-81521456D01*
X77409500Y-81718543D01*
X77447949Y-81911834D01*
X77447949Y-81911836D01*
X77523367Y-82093913D01*
X77523368Y-82093914D01*
X77632861Y-82257782D01*
X77772218Y-82397139D01*
X77936086Y-82506632D01*
X78118165Y-82582051D01*
X78311459Y-82620500D01*
X78311460Y-82620500D01*
X78508540Y-82620500D01*
X78508541Y-82620500D01*
X78701835Y-82582051D01*
X78883914Y-82506632D01*
X79047782Y-82397139D01*
X79187139Y-82257782D01*
X79296632Y-82093914D01*
X79372051Y-81911835D01*
X79410500Y-81718541D01*
X79410500Y-81521459D01*
X79372051Y-81328165D01*
X79296632Y-81146086D01*
X79187139Y-80982218D01*
X79047782Y-80842861D01*
X78885023Y-80734109D01*
X78883913Y-80733367D01*
X78701835Y-80657949D01*
X78508543Y-80619500D01*
X78508541Y-80619500D01*
X78311459Y-80619500D01*
X78311456Y-80619500D01*
X78118165Y-80657949D01*
X78118163Y-80657949D01*
X77936086Y-80733367D01*
X77772218Y-80842861D01*
X77772214Y-80842864D01*
X77632864Y-80982214D01*
X77632861Y-80982218D01*
X77523367Y-81146086D01*
X77447949Y-81328163D01*
X77447949Y-81328165D01*
X77409500Y-81521456D01*
X76968104Y-81521456D01*
X76942915Y-81362420D01*
X76889411Y-81197751D01*
X76810805Y-81043477D01*
X76746778Y-80955352D01*
X76313670Y-81388460D01*
X76270099Y-81312993D01*
X76177007Y-81219901D01*
X76101536Y-81176328D01*
X76534646Y-80743219D01*
X76446528Y-80679197D01*
X76446524Y-80679195D01*
X76292248Y-80600588D01*
X76127579Y-80547084D01*
X75956575Y-80520000D01*
X75783425Y-80520000D01*
X75612420Y-80547084D01*
X75447751Y-80600588D01*
X75293476Y-80679195D01*
X75205352Y-80743219D01*
X75638461Y-81176328D01*
X75562993Y-81219901D01*
X75469901Y-81312993D01*
X75426328Y-81388461D01*
X74993219Y-80955352D01*
X74929195Y-81043476D01*
X74850588Y-81197751D01*
X74797084Y-81362420D01*
X74770000Y-81533424D01*
X74500000Y-81533424D01*
X74500000Y-78993424D01*
X74770000Y-78993424D01*
X74770000Y-79166575D01*
X74797084Y-79337579D01*
X74850588Y-79502248D01*
X74929195Y-79656524D01*
X74929197Y-79656528D01*
X74993219Y-79744646D01*
X75426328Y-79311536D01*
X75469901Y-79387007D01*
X75562993Y-79480099D01*
X75638460Y-79523670D01*
X75205352Y-79956778D01*
X75293477Y-80020805D01*
X75447751Y-80099411D01*
X75612420Y-80152915D01*
X75783425Y-80180000D01*
X75956575Y-80180000D01*
X76127579Y-80152915D01*
X76292248Y-80099411D01*
X76446524Y-80020804D01*
X76446530Y-80020800D01*
X76534646Y-79956779D01*
X76534646Y-79956778D01*
X76101538Y-79523670D01*
X76177007Y-79480099D01*
X76270099Y-79387007D01*
X76313670Y-79311538D01*
X76746778Y-79744646D01*
X76746779Y-79744646D01*
X76810800Y-79656530D01*
X76810804Y-79656524D01*
X76889411Y-79502248D01*
X76942915Y-79337579D01*
X76970000Y-79166575D01*
X76970000Y-78993426D01*
X76969788Y-78992088D01*
X76969788Y-78992086D01*
X76969787Y-78992082D01*
X76968104Y-78981456D01*
X77409500Y-78981456D01*
X77409500Y-79178543D01*
X77447949Y-79371834D01*
X77447949Y-79371836D01*
X77523367Y-79553913D01*
X77523368Y-79553914D01*
X77632861Y-79717782D01*
X77772218Y-79857139D01*
X77936086Y-79966632D01*
X78118165Y-80042051D01*
X78311459Y-80080500D01*
X78311460Y-80080500D01*
X78508540Y-80080500D01*
X78508541Y-80080500D01*
X78701835Y-80042051D01*
X78883914Y-79966632D01*
X79047782Y-79857139D01*
X79187139Y-79717782D01*
X79296632Y-79553914D01*
X79372051Y-79371835D01*
X79410500Y-79178541D01*
X79410500Y-78981459D01*
X79410499Y-78981456D01*
X120589500Y-78981456D01*
X120589500Y-79178543D01*
X120627949Y-79371834D01*
X120627949Y-79371836D01*
X120703367Y-79553913D01*
X120703368Y-79553914D01*
X120812861Y-79717782D01*
X120952218Y-79857139D01*
X121116086Y-79966632D01*
X121298165Y-80042051D01*
X121491459Y-80080500D01*
X121491460Y-80080500D01*
X121688540Y-80080500D01*
X121688541Y-80080500D01*
X121881835Y-80042051D01*
X122063914Y-79966632D01*
X122227782Y-79857139D01*
X122367139Y-79717782D01*
X122476632Y-79553914D01*
X122552051Y-79371835D01*
X122590500Y-79178541D01*
X122590500Y-78993424D01*
X123030000Y-78993424D01*
X123030000Y-79166575D01*
X123057084Y-79337579D01*
X123110588Y-79502248D01*
X123189195Y-79656524D01*
X123189197Y-79656528D01*
X123253219Y-79744646D01*
X123686328Y-79311536D01*
X123729901Y-79387007D01*
X123822993Y-79480099D01*
X123898460Y-79523670D01*
X123465352Y-79956778D01*
X123553477Y-80020805D01*
X123707751Y-80099411D01*
X123872420Y-80152915D01*
X124043425Y-80180000D01*
X124216575Y-80180000D01*
X124387579Y-80152915D01*
X124552248Y-80099411D01*
X124706524Y-80020804D01*
X124706530Y-80020800D01*
X124794646Y-79956779D01*
X124794646Y-79956778D01*
X124361538Y-79523670D01*
X124437007Y-79480099D01*
X124530099Y-79387007D01*
X124573670Y-79311538D01*
X125006778Y-79744646D01*
X125006779Y-79744646D01*
X125070800Y-79656530D01*
X125070804Y-79656524D01*
X125149411Y-79502248D01*
X125202915Y-79337579D01*
X125230000Y-79166575D01*
X125230000Y-78993424D01*
X125202915Y-78822420D01*
X125149411Y-78657751D01*
X125070805Y-78503477D01*
X125006778Y-78415352D01*
X124573670Y-78848460D01*
X124530099Y-78772993D01*
X124437007Y-78679901D01*
X124361536Y-78636328D01*
X124794646Y-78203219D01*
X124706528Y-78139197D01*
X124706524Y-78139195D01*
X124552248Y-78060588D01*
X124387579Y-78007084D01*
X124216575Y-77980000D01*
X124043425Y-77980000D01*
X123872420Y-78007084D01*
X123707751Y-78060588D01*
X123553476Y-78139195D01*
X123465352Y-78203219D01*
X123898461Y-78636328D01*
X123822993Y-78679901D01*
X123729901Y-78772993D01*
X123686328Y-78848461D01*
X123253219Y-78415352D01*
X123189195Y-78503476D01*
X123110588Y-78657751D01*
X123057084Y-78822420D01*
X123030000Y-78993424D01*
X122590500Y-78993424D01*
X122590500Y-78981459D01*
X122552051Y-78788165D01*
X122476632Y-78606086D01*
X122367139Y-78442218D01*
X122227782Y-78302861D01*
X122063914Y-78193368D01*
X122063915Y-78193368D01*
X122063913Y-78193367D01*
X121881835Y-78117949D01*
X121688543Y-78079500D01*
X121688541Y-78079500D01*
X121491459Y-78079500D01*
X121491456Y-78079500D01*
X121298165Y-78117949D01*
X121298163Y-78117949D01*
X121116086Y-78193367D01*
X120952218Y-78302861D01*
X120952214Y-78302864D01*
X120812864Y-78442214D01*
X120812861Y-78442218D01*
X120703367Y-78606086D01*
X120627949Y-78788163D01*
X120627949Y-78788165D01*
X120589500Y-78981456D01*
X79410499Y-78981456D01*
X79372051Y-78788165D01*
X79296632Y-78606086D01*
X79187139Y-78442218D01*
X79047782Y-78302861D01*
X78883914Y-78193368D01*
X78883915Y-78193368D01*
X78883913Y-78193367D01*
X78701835Y-78117949D01*
X78508543Y-78079500D01*
X78508541Y-78079500D01*
X78311459Y-78079500D01*
X78311456Y-78079500D01*
X78118165Y-78117949D01*
X78118163Y-78117949D01*
X77936086Y-78193367D01*
X77772218Y-78302861D01*
X77772214Y-78302864D01*
X77632864Y-78442214D01*
X77632861Y-78442218D01*
X77523367Y-78606086D01*
X77447949Y-78788163D01*
X77447949Y-78788165D01*
X77409500Y-78981456D01*
X76968104Y-78981456D01*
X76942915Y-78822420D01*
X76889411Y-78657751D01*
X76810805Y-78503477D01*
X76746778Y-78415352D01*
X76313670Y-78848460D01*
X76270099Y-78772993D01*
X76177007Y-78679901D01*
X76101536Y-78636328D01*
X76534646Y-78203219D01*
X76446528Y-78139197D01*
X76446524Y-78139195D01*
X76292248Y-78060588D01*
X76127579Y-78007084D01*
X75956575Y-77980000D01*
X75783425Y-77980000D01*
X75612420Y-78007084D01*
X75447751Y-78060588D01*
X75293476Y-78139195D01*
X75205352Y-78203219D01*
X75638461Y-78636328D01*
X75562993Y-78679901D01*
X75469901Y-78772993D01*
X75426328Y-78848461D01*
X74993219Y-78415352D01*
X74929195Y-78503476D01*
X74850588Y-78657751D01*
X74797084Y-78822420D01*
X74770000Y-78993424D01*
X74500000Y-78993424D01*
X74500000Y-76453424D01*
X74770000Y-76453424D01*
X74770000Y-76626575D01*
X74797084Y-76797579D01*
X74850588Y-76962248D01*
X74929195Y-77116524D01*
X74929197Y-77116528D01*
X74993219Y-77204646D01*
X75426328Y-76771536D01*
X75469901Y-76847007D01*
X75562993Y-76940099D01*
X75638460Y-76983670D01*
X75205352Y-77416778D01*
X75293477Y-77480805D01*
X75447751Y-77559411D01*
X75612420Y-77612915D01*
X75783425Y-77640000D01*
X75956575Y-77640000D01*
X76127579Y-77612915D01*
X76292248Y-77559411D01*
X76446524Y-77480804D01*
X76446530Y-77480800D01*
X76534646Y-77416779D01*
X76534646Y-77416778D01*
X76101538Y-76983670D01*
X76177007Y-76940099D01*
X76270099Y-76847007D01*
X76313670Y-76771538D01*
X76746778Y-77204646D01*
X76746779Y-77204646D01*
X76810800Y-77116530D01*
X76810804Y-77116524D01*
X76889411Y-76962248D01*
X76942915Y-76797579D01*
X76970000Y-76626575D01*
X76970000Y-76453426D01*
X76969788Y-76452088D01*
X76969788Y-76452086D01*
X76969787Y-76452082D01*
X76968104Y-76441456D01*
X77409500Y-76441456D01*
X77409500Y-76638543D01*
X77418524Y-76683906D01*
X77443131Y-76807616D01*
X77447949Y-76831834D01*
X77447949Y-76831836D01*
X77523367Y-77013913D01*
X77523368Y-77013914D01*
X77632861Y-77177782D01*
X77772218Y-77317139D01*
X77936086Y-77426632D01*
X78118165Y-77502051D01*
X78311459Y-77540500D01*
X78311460Y-77540500D01*
X78508540Y-77540500D01*
X78508541Y-77540500D01*
X78701835Y-77502051D01*
X78883914Y-77426632D01*
X79047782Y-77317139D01*
X79187139Y-77177782D01*
X79296632Y-77013914D01*
X79372051Y-76831835D01*
X79410500Y-76638541D01*
X79410500Y-76441459D01*
X79372051Y-76248165D01*
X79296632Y-76066086D01*
X79187139Y-75902218D01*
X79047782Y-75762861D01*
X78883914Y-75653368D01*
X78883915Y-75653368D01*
X78883913Y-75653367D01*
X78701835Y-75577949D01*
X78508543Y-75539500D01*
X78508541Y-75539500D01*
X78311459Y-75539500D01*
X78311456Y-75539500D01*
X78118165Y-75577949D01*
X78118163Y-75577949D01*
X77936086Y-75653367D01*
X77772218Y-75762861D01*
X77772214Y-75762864D01*
X77632864Y-75902214D01*
X77632861Y-75902218D01*
X77523367Y-76066086D01*
X77447949Y-76248163D01*
X77447949Y-76248165D01*
X77409500Y-76441456D01*
X76968104Y-76441456D01*
X76942915Y-76282420D01*
X76889411Y-76117751D01*
X76810805Y-75963477D01*
X76746778Y-75875352D01*
X76313670Y-76308460D01*
X76270099Y-76232993D01*
X76177007Y-76139901D01*
X76101536Y-76096328D01*
X76534646Y-75663219D01*
X76446528Y-75599197D01*
X76446524Y-75599195D01*
X76292248Y-75520588D01*
X76127579Y-75467084D01*
X75956575Y-75440000D01*
X75783425Y-75440000D01*
X75612420Y-75467084D01*
X75447751Y-75520588D01*
X75293476Y-75599195D01*
X75205352Y-75663219D01*
X75638461Y-76096328D01*
X75562993Y-76139901D01*
X75469901Y-76232993D01*
X75426328Y-76308461D01*
X74993219Y-75875352D01*
X74929195Y-75963476D01*
X74850588Y-76117751D01*
X74797084Y-76282420D01*
X74770000Y-76453424D01*
X74500000Y-76453424D01*
X74500000Y-73155202D01*
X74770000Y-73155202D01*
X74770000Y-73849999D01*
X74770001Y-73850000D01*
X75392555Y-73850000D01*
X75370000Y-73934174D01*
X75370000Y-74065826D01*
X75392555Y-74150000D01*
X74770002Y-74150000D01*
X74770001Y-74150001D01*
X74770001Y-74844791D01*
X74772909Y-74869874D01*
X74818213Y-74972477D01*
X74897522Y-75051786D01*
X75000127Y-75097090D01*
X75025203Y-75099999D01*
X75719998Y-75099999D01*
X75720000Y-75099998D01*
X75720000Y-74477445D01*
X75804174Y-74500000D01*
X75935826Y-74500000D01*
X76020000Y-74477445D01*
X76020000Y-75099998D01*
X76020001Y-75099999D01*
X76714790Y-75099999D01*
X76714791Y-75099998D01*
X76739874Y-75097090D01*
X76842477Y-75051786D01*
X76921786Y-74972477D01*
X76967090Y-74869872D01*
X76969999Y-74844797D01*
X76970000Y-74844795D01*
X76970000Y-74150001D01*
X76969999Y-74150000D01*
X76347445Y-74150000D01*
X76370000Y-74065826D01*
X76370000Y-73934174D01*
X76361233Y-73901456D01*
X77409500Y-73901456D01*
X77409500Y-74098543D01*
X77447949Y-74291834D01*
X77447949Y-74291836D01*
X77523367Y-74473913D01*
X77523368Y-74473914D01*
X77632861Y-74637782D01*
X77772218Y-74777139D01*
X77936086Y-74886632D01*
X78118165Y-74962051D01*
X78311459Y-75000500D01*
X78311460Y-75000500D01*
X78508540Y-75000500D01*
X78508541Y-75000500D01*
X78701835Y-74962051D01*
X78883914Y-74886632D01*
X79047782Y-74777139D01*
X79187139Y-74637782D01*
X79296632Y-74473914D01*
X79372051Y-74291835D01*
X79410500Y-74098541D01*
X79410500Y-74000000D01*
X83030000Y-74000000D01*
X83030496Y-74077243D01*
X83038451Y-74231569D01*
X83054338Y-74385255D01*
X83078114Y-74537915D01*
X83109722Y-74689172D01*
X83149076Y-74838609D01*
X83196066Y-74985803D01*
X83250574Y-75130390D01*
X83312440Y-75271949D01*
X83381515Y-75410146D01*
X83381524Y-75410164D01*
X83413739Y-75467084D01*
X83457624Y-75544624D01*
X83457635Y-75544643D01*
X83492333Y-75599195D01*
X83540556Y-75675009D01*
X83603014Y-75762864D01*
X83630088Y-75800946D01*
X83630092Y-75800951D01*
X83725980Y-75922102D01*
X83827975Y-76038154D01*
X83827984Y-76038164D01*
X83887230Y-76098955D01*
X83935820Y-76148813D01*
X83935823Y-76148816D01*
X84049215Y-76253769D01*
X84167851Y-76352740D01*
X84167878Y-76352762D01*
X84214021Y-76387388D01*
X84291448Y-76445490D01*
X84419644Y-76531746D01*
X84552111Y-76611289D01*
X84688496Y-76683906D01*
X84688499Y-76683907D01*
X84688500Y-76683908D01*
X84828432Y-76749404D01*
X84828436Y-76749405D01*
X84828439Y-76749407D01*
X84971568Y-76807616D01*
X85117504Y-76858380D01*
X85117513Y-76858382D01*
X85117517Y-76858384D01*
X85168055Y-76873094D01*
X85265860Y-76901564D01*
X85416242Y-76937054D01*
X85568252Y-76964755D01*
X85721486Y-76984594D01*
X85875538Y-76996519D01*
X86011011Y-77000008D01*
X86029994Y-77000498D01*
X86030000Y-77000498D01*
X86030006Y-77000498D01*
X86048607Y-77000018D01*
X86184462Y-76996519D01*
X86338514Y-76984594D01*
X86491748Y-76964755D01*
X86643758Y-76937054D01*
X86794140Y-76901564D01*
X86942496Y-76858380D01*
X87088432Y-76807616D01*
X87231561Y-76749407D01*
X87371504Y-76683906D01*
X87507889Y-76611289D01*
X87640356Y-76531746D01*
X87768552Y-76445490D01*
X87892137Y-76352750D01*
X88010785Y-76253769D01*
X88124180Y-76148813D01*
X88232021Y-76038158D01*
X88334023Y-75922098D01*
X88429916Y-75800941D01*
X88519444Y-75675009D01*
X88602370Y-75544635D01*
X88678476Y-75410164D01*
X88747557Y-75271954D01*
X88809433Y-75130371D01*
X88863938Y-74985791D01*
X88905580Y-74855343D01*
X88910923Y-74838609D01*
X88910923Y-74838606D01*
X88910927Y-74838596D01*
X88950277Y-74689177D01*
X88981883Y-74537931D01*
X89005661Y-74385259D01*
X89021549Y-74231565D01*
X89029503Y-74077257D01*
X89029503Y-74000000D01*
X110970000Y-74000000D01*
X110970496Y-74077243D01*
X110978451Y-74231569D01*
X110994338Y-74385255D01*
X111018114Y-74537915D01*
X111049722Y-74689172D01*
X111089076Y-74838609D01*
X111136066Y-74985803D01*
X111190574Y-75130390D01*
X111252440Y-75271949D01*
X111321515Y-75410146D01*
X111321524Y-75410164D01*
X111353739Y-75467084D01*
X111397624Y-75544624D01*
X111397635Y-75544643D01*
X111432333Y-75599195D01*
X111480556Y-75675009D01*
X111543014Y-75762864D01*
X111570088Y-75800946D01*
X111570092Y-75800951D01*
X111665980Y-75922102D01*
X111767975Y-76038154D01*
X111767984Y-76038164D01*
X111827230Y-76098955D01*
X111875820Y-76148813D01*
X111875823Y-76148816D01*
X111989215Y-76253769D01*
X112107851Y-76352740D01*
X112107878Y-76352762D01*
X112154021Y-76387388D01*
X112231448Y-76445490D01*
X112359644Y-76531746D01*
X112492111Y-76611289D01*
X112628496Y-76683906D01*
X112628499Y-76683907D01*
X112628500Y-76683908D01*
X112768432Y-76749404D01*
X112768436Y-76749405D01*
X112768439Y-76749407D01*
X112911568Y-76807616D01*
X113057504Y-76858380D01*
X113057513Y-76858382D01*
X113057517Y-76858384D01*
X113108055Y-76873094D01*
X113205860Y-76901564D01*
X113356242Y-76937054D01*
X113508252Y-76964755D01*
X113661486Y-76984594D01*
X113815538Y-76996519D01*
X113951011Y-77000008D01*
X113969994Y-77000498D01*
X113970000Y-77000498D01*
X113970006Y-77000498D01*
X113988607Y-77000018D01*
X114124462Y-76996519D01*
X114278514Y-76984594D01*
X114431748Y-76964755D01*
X114583758Y-76937054D01*
X114734140Y-76901564D01*
X114882496Y-76858380D01*
X115028432Y-76807616D01*
X115171561Y-76749407D01*
X115311504Y-76683906D01*
X115447889Y-76611289D01*
X115580356Y-76531746D01*
X115708552Y-76445490D01*
X115713928Y-76441456D01*
X120589500Y-76441456D01*
X120589500Y-76638543D01*
X120598524Y-76683906D01*
X120623131Y-76807616D01*
X120627949Y-76831834D01*
X120627949Y-76831836D01*
X120703367Y-77013913D01*
X120703368Y-77013914D01*
X120812861Y-77177782D01*
X120952218Y-77317139D01*
X121116086Y-77426632D01*
X121298165Y-77502051D01*
X121491459Y-77540500D01*
X121491460Y-77540500D01*
X121688540Y-77540500D01*
X121688541Y-77540500D01*
X121881835Y-77502051D01*
X122063914Y-77426632D01*
X122227782Y-77317139D01*
X122367139Y-77177782D01*
X122476632Y-77013914D01*
X122552051Y-76831835D01*
X122590500Y-76638541D01*
X122590500Y-76453424D01*
X123030000Y-76453424D01*
X123030000Y-76626575D01*
X123057084Y-76797579D01*
X123110588Y-76962248D01*
X123189195Y-77116524D01*
X123189197Y-77116528D01*
X123253219Y-77204646D01*
X123686328Y-76771536D01*
X123729901Y-76847007D01*
X123822993Y-76940099D01*
X123898460Y-76983670D01*
X123465352Y-77416778D01*
X123553477Y-77480805D01*
X123707751Y-77559411D01*
X123872420Y-77612915D01*
X124043425Y-77640000D01*
X124216575Y-77640000D01*
X124387579Y-77612915D01*
X124552248Y-77559411D01*
X124706524Y-77480804D01*
X124706530Y-77480800D01*
X124794646Y-77416779D01*
X124794646Y-77416778D01*
X124361538Y-76983670D01*
X124437007Y-76940099D01*
X124530099Y-76847007D01*
X124573670Y-76771538D01*
X125006778Y-77204646D01*
X125006779Y-77204646D01*
X125070800Y-77116530D01*
X125070804Y-77116524D01*
X125149411Y-76962248D01*
X125202915Y-76797579D01*
X125230000Y-76626575D01*
X125230000Y-76453424D01*
X125202915Y-76282420D01*
X125149411Y-76117751D01*
X125070805Y-75963477D01*
X125006778Y-75875352D01*
X124573670Y-76308460D01*
X124530099Y-76232993D01*
X124437007Y-76139901D01*
X124361536Y-76096328D01*
X124794646Y-75663219D01*
X124706528Y-75599197D01*
X124706524Y-75599195D01*
X124552248Y-75520588D01*
X124387579Y-75467084D01*
X124216575Y-75440000D01*
X124043425Y-75440000D01*
X123872420Y-75467084D01*
X123707751Y-75520588D01*
X123553476Y-75599195D01*
X123465352Y-75663219D01*
X123898461Y-76096328D01*
X123822993Y-76139901D01*
X123729901Y-76232993D01*
X123686328Y-76308461D01*
X123253219Y-75875352D01*
X123189195Y-75963476D01*
X123110588Y-76117751D01*
X123057084Y-76282420D01*
X123030000Y-76453424D01*
X122590500Y-76453424D01*
X122590500Y-76441459D01*
X122552051Y-76248165D01*
X122476632Y-76066086D01*
X122367139Y-75902218D01*
X122227782Y-75762861D01*
X122063914Y-75653368D01*
X122063915Y-75653368D01*
X122063913Y-75653367D01*
X121881835Y-75577949D01*
X121688543Y-75539500D01*
X121688541Y-75539500D01*
X121491459Y-75539500D01*
X121491456Y-75539500D01*
X121298165Y-75577949D01*
X121298163Y-75577949D01*
X121116086Y-75653367D01*
X120952218Y-75762861D01*
X120952214Y-75762864D01*
X120812864Y-75902214D01*
X120812861Y-75902218D01*
X120703367Y-76066086D01*
X120627949Y-76248163D01*
X120627949Y-76248165D01*
X120589500Y-76441456D01*
X115713928Y-76441456D01*
X115832137Y-76352750D01*
X115950785Y-76253769D01*
X116064180Y-76148813D01*
X116172021Y-76038158D01*
X116274023Y-75922098D01*
X116369916Y-75800941D01*
X116459444Y-75675009D01*
X116542370Y-75544635D01*
X116618476Y-75410164D01*
X116687557Y-75271954D01*
X116749433Y-75130371D01*
X116803938Y-74985791D01*
X116845580Y-74855343D01*
X116850923Y-74838609D01*
X116850923Y-74838606D01*
X116850927Y-74838596D01*
X116890277Y-74689177D01*
X116921883Y-74537931D01*
X116945661Y-74385259D01*
X116961549Y-74231565D01*
X116969503Y-74077257D01*
X116969503Y-73922743D01*
X116961549Y-73768435D01*
X116945661Y-73614741D01*
X116921883Y-73462069D01*
X116890277Y-73310823D01*
X116855891Y-73180253D01*
X120589500Y-73180253D01*
X120589500Y-74819746D01*
X120589501Y-74819758D01*
X120601132Y-74878227D01*
X120601134Y-74878233D01*
X120642944Y-74940805D01*
X120645448Y-74944552D01*
X120711769Y-74988867D01*
X120756231Y-74997711D01*
X120770241Y-75000498D01*
X120770246Y-75000498D01*
X120770252Y-75000500D01*
X120770253Y-75000500D01*
X122409747Y-75000500D01*
X122409748Y-75000500D01*
X122468231Y-74988867D01*
X122534552Y-74944552D01*
X122578867Y-74878231D01*
X122590500Y-74819748D01*
X122590500Y-73913424D01*
X123030000Y-73913424D01*
X123030000Y-74086575D01*
X123057084Y-74257579D01*
X123110588Y-74422248D01*
X123189195Y-74576524D01*
X123189197Y-74576528D01*
X123253219Y-74664646D01*
X123686328Y-74231536D01*
X123729901Y-74307007D01*
X123822993Y-74400099D01*
X123898460Y-74443670D01*
X123465352Y-74876778D01*
X123553477Y-74940805D01*
X123707751Y-75019411D01*
X123872420Y-75072915D01*
X124043425Y-75100000D01*
X124216575Y-75100000D01*
X124387579Y-75072915D01*
X124552248Y-75019411D01*
X124706524Y-74940804D01*
X124706530Y-74940800D01*
X124794646Y-74876779D01*
X124794646Y-74876778D01*
X124361538Y-74443670D01*
X124437007Y-74400099D01*
X124530099Y-74307007D01*
X124573670Y-74231538D01*
X125006778Y-74664646D01*
X125006779Y-74664646D01*
X125070800Y-74576530D01*
X125070804Y-74576524D01*
X125149411Y-74422248D01*
X125202915Y-74257579D01*
X125230000Y-74086575D01*
X125230000Y-73913424D01*
X125202915Y-73742420D01*
X125149411Y-73577751D01*
X125070805Y-73423477D01*
X125006778Y-73335352D01*
X124573670Y-73768460D01*
X124530099Y-73692993D01*
X124437007Y-73599901D01*
X124361536Y-73556328D01*
X124794646Y-73123219D01*
X124706528Y-73059197D01*
X124706524Y-73059195D01*
X124552248Y-72980588D01*
X124387579Y-72927084D01*
X124216575Y-72900000D01*
X124043425Y-72900000D01*
X123872420Y-72927084D01*
X123707751Y-72980588D01*
X123553476Y-73059195D01*
X123465352Y-73123219D01*
X123898461Y-73556328D01*
X123822993Y-73599901D01*
X123729901Y-73692993D01*
X123686328Y-73768461D01*
X123253219Y-73335352D01*
X123189195Y-73423476D01*
X123110588Y-73577751D01*
X123057084Y-73742420D01*
X123030000Y-73913424D01*
X122590500Y-73913424D01*
X122590500Y-73180252D01*
X122578867Y-73121769D01*
X122534552Y-73055448D01*
X122534548Y-73055445D01*
X122468233Y-73011134D01*
X122468231Y-73011133D01*
X122468228Y-73011132D01*
X122468227Y-73011132D01*
X122409758Y-72999501D01*
X122409748Y-72999500D01*
X120770252Y-72999500D01*
X120770251Y-72999500D01*
X120770241Y-72999501D01*
X120711772Y-73011132D01*
X120711766Y-73011134D01*
X120645451Y-73055445D01*
X120645445Y-73055451D01*
X120601134Y-73121766D01*
X120601132Y-73121772D01*
X120589501Y-73180241D01*
X120589500Y-73180253D01*
X116855891Y-73180253D01*
X116850927Y-73161404D01*
X116848947Y-73155202D01*
X116833499Y-73106809D01*
X116803938Y-73014209D01*
X116749433Y-72869629D01*
X116749429Y-72869621D01*
X116749425Y-72869609D01*
X116687559Y-72728050D01*
X116618484Y-72589853D01*
X116618476Y-72589836D01*
X116542370Y-72455365D01*
X116459444Y-72324991D01*
X116369916Y-72199059D01*
X116274023Y-72077902D01*
X116216270Y-72012190D01*
X116172024Y-71961845D01*
X116172015Y-71961835D01*
X116114546Y-71902867D01*
X116064180Y-71851187D01*
X116045465Y-71833865D01*
X115950784Y-71746230D01*
X115832148Y-71647259D01*
X115832121Y-71647237D01*
X115770492Y-71600991D01*
X115708552Y-71554510D01*
X115608272Y-71487037D01*
X115580361Y-71468257D01*
X115447879Y-71388705D01*
X115447873Y-71388702D01*
X115311504Y-71316094D01*
X115311499Y-71316091D01*
X115171567Y-71250595D01*
X115171557Y-71250591D01*
X115028439Y-71192387D01*
X115028432Y-71192384D01*
X114882496Y-71141620D01*
X114882498Y-71141620D01*
X114882482Y-71141615D01*
X114734141Y-71098436D01*
X114583769Y-71062948D01*
X114431773Y-71035249D01*
X114431753Y-71035246D01*
X114431754Y-71035246D01*
X114431748Y-71035245D01*
X114278514Y-71015406D01*
X114124462Y-71003481D01*
X114068294Y-71002034D01*
X113970007Y-70999503D01*
X113969993Y-70999503D01*
X113861876Y-71002287D01*
X113815538Y-71003481D01*
X113699999Y-71012424D01*
X113661485Y-71015406D01*
X113605227Y-71022689D01*
X113508252Y-71035245D01*
X113508247Y-71035245D01*
X113508246Y-71035246D01*
X113508226Y-71035249D01*
X113356230Y-71062948D01*
X113205858Y-71098436D01*
X113057517Y-71141615D01*
X112911590Y-71192376D01*
X112911560Y-71192387D01*
X112768442Y-71250591D01*
X112768432Y-71250595D01*
X112628500Y-71316091D01*
X112628495Y-71316094D01*
X112492126Y-71388702D01*
X112492120Y-71388705D01*
X112359638Y-71468257D01*
X112280164Y-71521731D01*
X112231448Y-71554510D01*
X112219096Y-71563779D01*
X112107878Y-71647237D01*
X112107851Y-71647259D01*
X111989215Y-71746230D01*
X111875823Y-71851183D01*
X111875809Y-71851198D01*
X111767984Y-71961835D01*
X111767975Y-71961845D01*
X111665980Y-72077897D01*
X111570092Y-72199048D01*
X111570088Y-72199053D01*
X111480552Y-72324996D01*
X111397635Y-72455356D01*
X111397624Y-72455375D01*
X111321533Y-72589820D01*
X111321515Y-72589853D01*
X111252440Y-72728050D01*
X111190574Y-72869609D01*
X111136066Y-73014196D01*
X111089076Y-73161390D01*
X111049722Y-73310827D01*
X111018114Y-73462084D01*
X110994338Y-73614744D01*
X110978451Y-73768430D01*
X110970496Y-73922756D01*
X110970000Y-74000000D01*
X89029503Y-74000000D01*
X89029503Y-73922743D01*
X89021549Y-73768435D01*
X89005661Y-73614741D01*
X88981883Y-73462069D01*
X88950277Y-73310823D01*
X88930074Y-73234108D01*
X94899500Y-73234108D01*
X94899500Y-73365892D01*
X94914930Y-73423477D01*
X94933609Y-73493190D01*
X94999496Y-73607309D01*
X94999498Y-73607311D01*
X94999500Y-73607314D01*
X95092686Y-73700500D01*
X95092688Y-73700501D01*
X95092690Y-73700503D01*
X95206810Y-73766390D01*
X95206808Y-73766390D01*
X95206812Y-73766391D01*
X95206814Y-73766392D01*
X95334108Y-73800500D01*
X95334110Y-73800500D01*
X104665890Y-73800500D01*
X104665892Y-73800500D01*
X104793186Y-73766392D01*
X104793188Y-73766390D01*
X104793190Y-73766390D01*
X104907309Y-73700503D01*
X104907309Y-73700502D01*
X104907314Y-73700500D01*
X105000500Y-73607314D01*
X105066392Y-73493186D01*
X105100500Y-73365892D01*
X105100500Y-73234108D01*
X105066392Y-73106814D01*
X105066390Y-73106811D01*
X105066390Y-73106809D01*
X105000503Y-72992690D01*
X105000501Y-72992688D01*
X105000500Y-72992686D01*
X104907314Y-72899500D01*
X104907311Y-72899498D01*
X104907309Y-72899496D01*
X104793189Y-72833609D01*
X104793191Y-72833609D01*
X104743799Y-72820375D01*
X104665892Y-72799500D01*
X95334108Y-72799500D01*
X95256200Y-72820375D01*
X95206809Y-72833609D01*
X95092690Y-72899496D01*
X94999496Y-72992690D01*
X94933609Y-73106809D01*
X94918981Y-73161404D01*
X94899500Y-73234108D01*
X88930074Y-73234108D01*
X88910927Y-73161404D01*
X88908947Y-73155202D01*
X88893499Y-73106809D01*
X88863938Y-73014209D01*
X88809433Y-72869629D01*
X88809429Y-72869621D01*
X88809425Y-72869609D01*
X88747559Y-72728050D01*
X88678484Y-72589853D01*
X88678476Y-72589836D01*
X88602370Y-72455365D01*
X88519444Y-72324991D01*
X88429916Y-72199059D01*
X88334023Y-72077902D01*
X88276270Y-72012190D01*
X88232024Y-71961845D01*
X88232015Y-71961835D01*
X88174546Y-71902867D01*
X88124180Y-71851187D01*
X88105465Y-71833865D01*
X88010784Y-71746230D01*
X87892148Y-71647259D01*
X87892121Y-71647237D01*
X87830492Y-71600991D01*
X87768552Y-71554510D01*
X87668272Y-71487037D01*
X87640361Y-71468257D01*
X87507879Y-71388705D01*
X87507873Y-71388702D01*
X87371504Y-71316094D01*
X87371499Y-71316091D01*
X87231567Y-71250595D01*
X87231557Y-71250591D01*
X87088439Y-71192387D01*
X87088432Y-71192384D01*
X86942496Y-71141620D01*
X86942498Y-71141620D01*
X86942482Y-71141615D01*
X86794141Y-71098436D01*
X86643769Y-71062948D01*
X86491773Y-71035249D01*
X86491753Y-71035246D01*
X86491754Y-71035246D01*
X86491748Y-71035245D01*
X86338514Y-71015406D01*
X86184462Y-71003481D01*
X86128294Y-71002034D01*
X86030007Y-70999503D01*
X86029993Y-70999503D01*
X85921876Y-71002287D01*
X85875538Y-71003481D01*
X85759999Y-71012424D01*
X85721485Y-71015406D01*
X85665227Y-71022689D01*
X85568252Y-71035245D01*
X85568247Y-71035245D01*
X85568246Y-71035246D01*
X85568226Y-71035249D01*
X85416230Y-71062948D01*
X85265858Y-71098436D01*
X85117517Y-71141615D01*
X84971590Y-71192376D01*
X84971560Y-71192387D01*
X84828442Y-71250591D01*
X84828432Y-71250595D01*
X84688500Y-71316091D01*
X84688495Y-71316094D01*
X84552126Y-71388702D01*
X84552120Y-71388705D01*
X84419638Y-71468257D01*
X84340164Y-71521731D01*
X84291448Y-71554510D01*
X84279096Y-71563779D01*
X84167878Y-71647237D01*
X84167851Y-71647259D01*
X84049215Y-71746230D01*
X83935823Y-71851183D01*
X83935809Y-71851198D01*
X83827984Y-71961835D01*
X83827975Y-71961845D01*
X83725980Y-72077897D01*
X83630092Y-72199048D01*
X83630088Y-72199053D01*
X83540552Y-72324996D01*
X83457635Y-72455356D01*
X83457624Y-72455375D01*
X83381533Y-72589820D01*
X83381515Y-72589853D01*
X83312440Y-72728050D01*
X83250574Y-72869609D01*
X83196066Y-73014196D01*
X83149076Y-73161390D01*
X83109722Y-73310827D01*
X83078114Y-73462084D01*
X83054338Y-73614744D01*
X83038451Y-73768430D01*
X83030496Y-73922756D01*
X83030000Y-74000000D01*
X79410500Y-74000000D01*
X79410500Y-73901459D01*
X79372051Y-73708165D01*
X79296632Y-73526086D01*
X79187139Y-73362218D01*
X79047782Y-73222861D01*
X78898657Y-73123219D01*
X78883913Y-73113367D01*
X78701835Y-73037949D01*
X78508543Y-72999500D01*
X78508541Y-72999500D01*
X78311459Y-72999500D01*
X78311456Y-72999500D01*
X78118165Y-73037949D01*
X78118163Y-73037949D01*
X77936086Y-73113367D01*
X77772218Y-73222861D01*
X77772214Y-73222864D01*
X77632864Y-73362214D01*
X77632861Y-73362218D01*
X77523367Y-73526086D01*
X77447949Y-73708163D01*
X77447949Y-73708165D01*
X77409500Y-73901456D01*
X76361233Y-73901456D01*
X76347445Y-73850000D01*
X76969998Y-73850000D01*
X76969999Y-73849999D01*
X76969999Y-73155210D01*
X76969998Y-73155208D01*
X76967090Y-73130125D01*
X76921786Y-73027522D01*
X76842477Y-72948213D01*
X76739872Y-72902909D01*
X76714797Y-72900000D01*
X76020001Y-72900000D01*
X76020000Y-72900001D01*
X76020000Y-73522554D01*
X75935826Y-73500000D01*
X75804174Y-73500000D01*
X75720000Y-73522554D01*
X75720000Y-72900001D01*
X75719999Y-72900000D01*
X75025210Y-72900000D01*
X75025207Y-72900001D01*
X75000125Y-72902909D01*
X74897522Y-72948213D01*
X74818213Y-73027522D01*
X74772909Y-73130127D01*
X74770000Y-73155202D01*
X74500000Y-73155202D01*
X74500000Y-72012190D01*
X74507535Y-71974306D01*
X74565711Y-71833858D01*
X74570525Y-71823863D01*
X74575101Y-71815584D01*
X74711583Y-71568636D01*
X74717479Y-71559253D01*
X74886230Y-71321421D01*
X74893149Y-71312745D01*
X75087475Y-71095293D01*
X75095293Y-71087475D01*
X75312748Y-70893146D01*
X75321424Y-70886228D01*
X75559253Y-70717479D01*
X75568636Y-70711583D01*
X75823869Y-70570522D01*
X75833866Y-70565708D01*
X75974307Y-70507536D01*
X76012192Y-70500000D01*
X123987808Y-70500000D01*
X124025694Y-70507536D01*
G37*
%TD.AperFunction*%
%TD*%
M02*
