%TF.GenerationSoftware,KiCad,Pcbnew,10.0.5-1-g226df246f3*%
%TF.CreationDate,2026-08-27T21:19:04+09:00*%
%TF.ProjectId,rp2350_bare,72703233-3530-45f6-9261-72652e6b6963,R4*%
%TF.SameCoordinates,Original*%
%TF.FileFunction,Other,User*%
%FSLAX46Y46*%
G04 Gerber Fmt 4.6, Leading zero omitted, Abs format (unit mm)*
G04 Created by KiCad (PCBNEW 10.0.5-1-g226df246f3) date 2026-08-27 21:19:04*
%MOMM*%
%LPD*%
G01*
G04 APERTURE LIST*
%ADD10C,0.010000*%
G04 APERTURE END LIST*
%TO.C,C5*%
D10*
X108025000Y-88375000D02*
X110025000Y-88375000D01*
X110025000Y-89625000D01*
X108025000Y-89625000D01*
X108025000Y-88375000D01*
%TO.C,J1*%
X104020000Y-68880000D02*
X104020000Y-69500000D01*
X103750000Y-69500000D01*
X103750000Y-74500000D01*
X102660000Y-74500000D01*
X102660000Y-74950000D01*
X97340000Y-74950000D01*
X97340000Y-74500000D01*
X96250000Y-74500000D01*
X96250000Y-69500000D01*
X95980000Y-69500000D01*
X95980000Y-68880000D01*
X104020000Y-68880000D01*
%TO.C,J5*%
X74600000Y-72730000D02*
X79680000Y-72730000D01*
X79680000Y-118450000D01*
X74600000Y-118450000D01*
X74600000Y-72730000D01*
%TO.C,C15*%
X93015000Y-101150000D02*
X94015000Y-101150000D01*
X94015000Y-101650000D01*
X93015000Y-101650000D01*
X93015000Y-101150000D01*
%TO.C,C2*%
X95685000Y-82580000D02*
X96685000Y-82580000D01*
X96685000Y-83080000D01*
X95685000Y-83080000D01*
X95685000Y-82580000D01*
%TO.C,R1*%
X92750000Y-81700000D02*
X93250000Y-81700000D01*
X93250000Y-82700000D01*
X92750000Y-82700000D01*
X92750000Y-81700000D01*
%TO.C,J3*%
X120320000Y-72730000D02*
X125400000Y-72730000D01*
X125400000Y-118450000D01*
X120320000Y-118450000D01*
X120320000Y-72730000D01*
%TO.C,U2*%
X104750000Y-79350000D02*
X111250000Y-79350000D01*
X111250000Y-86600000D01*
X104750000Y-86600000D01*
X104750000Y-79350000D01*
%TO.C,U3*%
X95690000Y-85160000D02*
X97000000Y-85160000D01*
X97000000Y-85580000D01*
X95690000Y-85580000D01*
X95690000Y-86430000D01*
X97000000Y-86430000D01*
X97000000Y-86850000D01*
X95690000Y-86850000D01*
X95690000Y-87700000D01*
X97000000Y-87700000D01*
X97000000Y-88120000D01*
X95690000Y-88120000D01*
X95690000Y-88970000D01*
X97000000Y-88970000D01*
X97000000Y-89390000D01*
X95690000Y-89390000D01*
X95690000Y-89915000D01*
X90410000Y-89915000D01*
X90410000Y-89390000D01*
X89100000Y-89390000D01*
X89100000Y-88970000D01*
X90410000Y-88970000D01*
X90410000Y-88120000D01*
X89100000Y-88120000D01*
X89100000Y-87700000D01*
X90410000Y-87700000D01*
X90410000Y-86850000D01*
X89100000Y-86850000D01*
X89100000Y-86430000D01*
X90410000Y-86430000D01*
X90410000Y-85580000D01*
X89100000Y-85580000D01*
X89100000Y-85160000D01*
X90410000Y-85160000D01*
X90410000Y-84635000D01*
X95690000Y-84635000D01*
X95690000Y-85160000D01*
%TO.C,C12*%
X97650000Y-92100000D02*
X98150000Y-92100000D01*
X98150000Y-93100000D01*
X97650000Y-93100000D01*
X97650000Y-92100000D01*
%TO.C,C14*%
X106585000Y-100150000D02*
X107585000Y-100150000D01*
X107585000Y-100650000D01*
X106585000Y-100650000D01*
X106585000Y-100150000D01*
%TO.C,C16*%
X105185000Y-103750000D02*
X106185000Y-103750000D01*
X106185000Y-104250000D01*
X105185000Y-104250000D01*
X105185000Y-103750000D01*
%TO.C,R7*%
X98650000Y-92100000D02*
X99150000Y-92100000D01*
X99150000Y-93100000D01*
X98650000Y-93100000D01*
X98650000Y-92100000D01*
%TO.C,C1*%
X106937500Y-75875000D02*
X108937500Y-75875000D01*
X108937500Y-77125000D01*
X106937500Y-77125000D01*
X106937500Y-75875000D01*
%TO.C,C13*%
X93015000Y-96350000D02*
X94015000Y-96350000D01*
X94015000Y-96850000D01*
X93015000Y-96850000D01*
X93015000Y-96350000D01*
%TO.C,MH2*%
X116970000Y-74000000D02*
G75*
G02*
X110970000Y-74000000I-3000000J0D01*
G01*
X110970000Y-74000000D02*
G75*
G02*
X116970000Y-74000000I3000000J0D01*
G01*
%TO.C,R8*%
X99650000Y-92100000D02*
X100150000Y-92100000D01*
X100150000Y-93100000D01*
X99650000Y-93100000D01*
X99650000Y-92100000D01*
%TO.C,MH3*%
X116970000Y-117180000D02*
G75*
G02*
X110970000Y-117180000I-3000000J0D01*
G01*
X110970000Y-117180000D02*
G75*
G02*
X116970000Y-117180000I3000000J0D01*
G01*
%TO.C,C17*%
X105985000Y-96750000D02*
X106985000Y-96750000D01*
X106985000Y-97250000D01*
X105985000Y-97250000D01*
X105985000Y-96750000D01*
%TO.C,MH1*%
X89030000Y-74000000D02*
G75*
G02*
X83030000Y-74000000I-3000000J0D01*
G01*
X83030000Y-74000000D02*
G75*
G02*
X89030000Y-74000000I3000000J0D01*
G01*
%TO.C,MH4*%
X89030000Y-117180000D02*
G75*
G02*
X83030000Y-117180000I-3000000J0D01*
G01*
X83030000Y-117180000D02*
G75*
G02*
X89030000Y-117180000I3000000J0D01*
G01*
%TO.C,C19*%
X84115000Y-77375000D02*
X86115000Y-77375000D01*
X86115000Y-78625000D01*
X84115000Y-78625000D01*
X84115000Y-77375000D01*
%TO.C,C7*%
X101500000Y-94200000D02*
X102500000Y-94200000D01*
X102500000Y-94700000D01*
X101500000Y-94700000D01*
X101500000Y-94200000D01*
%TO.C,L1*%
X100900000Y-91900000D02*
X103100000Y-91900000D01*
X103100000Y-93700000D01*
X100900000Y-93700000D01*
X100900000Y-91900000D01*
%TO.C,C9*%
X103950000Y-94450000D02*
X104450000Y-94450000D01*
X104450000Y-95450000D01*
X103950000Y-95450000D01*
X103950000Y-94450000D01*
%TO.C,R4*%
X115150000Y-108600000D02*
X115650000Y-108600000D01*
X115650000Y-109600000D01*
X115150000Y-109600000D01*
X115150000Y-108600000D01*
%TO.C,SW1*%
X89850000Y-72900000D02*
X90400000Y-72900000D01*
X90400000Y-73100000D01*
X92000000Y-73100000D01*
X92000000Y-72900000D01*
X92550000Y-72900000D01*
X92550000Y-73100000D01*
X92800000Y-73100000D01*
X92800000Y-77300000D01*
X92550000Y-77300000D01*
X92550000Y-77500000D01*
X92000000Y-77500000D01*
X92000000Y-77300000D01*
X90400000Y-77300000D01*
X90400000Y-77500000D01*
X89850000Y-77500000D01*
X89850000Y-77300000D01*
X89600000Y-77300000D01*
X89600000Y-73100000D01*
X89850000Y-73100000D01*
X89850000Y-72900000D01*
%TO.C,J4*%
X110100000Y-115375000D02*
X105100000Y-115375000D01*
X105100000Y-111125000D01*
X106500000Y-111125000D01*
X106500000Y-110425000D01*
X106700000Y-110425000D01*
X106700000Y-111125000D01*
X107500000Y-111125000D01*
X107500000Y-110425000D01*
X107700000Y-110425000D01*
X107700000Y-111125000D01*
X108500000Y-111125000D01*
X108500000Y-110425000D01*
X108700000Y-110425000D01*
X108700000Y-111125000D01*
X110100000Y-111125000D01*
X110100000Y-115375000D01*
%TO.C,R3*%
X103950000Y-92600000D02*
X104450000Y-92600000D01*
X104450000Y-93600000D01*
X103950000Y-93600000D01*
X103950000Y-92600000D01*
%TO.C,R9*%
X91050000Y-81700000D02*
X91550000Y-81700000D01*
X91550000Y-82700000D01*
X91050000Y-82700000D01*
X91050000Y-81700000D01*
%TO.C,X1*%
X98400000Y-111150000D02*
X101600000Y-111150000D01*
X101600000Y-113650000D01*
X98400000Y-113650000D01*
X98400000Y-111150000D01*
%TO.C,R2*%
X99350000Y-106400000D02*
X99850000Y-106400000D01*
X99850000Y-107400000D01*
X99350000Y-107400000D01*
X99350000Y-106400000D01*
%TO.C,C10*%
X100550000Y-106380000D02*
X101050000Y-106380000D01*
X101050000Y-107380000D01*
X100550000Y-107380000D01*
X100550000Y-106380000D01*
%TO.C,C3*%
X98100000Y-108750000D02*
X99100000Y-108750000D01*
X99100000Y-109250000D01*
X98100000Y-109250000D01*
X98100000Y-108750000D01*
%TO.C,U1*%
X96500000Y-96500000D02*
X103500000Y-96500000D01*
X103500000Y-103500000D01*
X96500000Y-103500000D01*
X96500000Y-96500000D01*
%TO.C,C8*%
X93020000Y-98750000D02*
X94020000Y-98750000D01*
X94020000Y-99250000D01*
X93020000Y-99250000D01*
X93020000Y-98750000D01*
%TO.C,R10*%
X88400000Y-82450000D02*
X89400000Y-82450000D01*
X89400000Y-82950000D01*
X88400000Y-82950000D01*
X88400000Y-82450000D01*
%TO.C,R6*%
X88400000Y-81050000D02*
X89400000Y-81050000D01*
X89400000Y-81550000D01*
X88400000Y-81550000D01*
X88400000Y-81050000D01*
%TO.C,C18*%
X97950000Y-105580000D02*
X98450000Y-105580000D01*
X98450000Y-106580000D01*
X97950000Y-106580000D01*
X97950000Y-105580000D01*
%TO.C,C6*%
X101500000Y-95140000D02*
X102500000Y-95140000D01*
X102500000Y-95640000D01*
X101500000Y-95640000D01*
X101500000Y-95140000D01*
%TO.C,SW2*%
X114100000Y-106125000D02*
X114100000Y-106675000D01*
X113900000Y-106675000D01*
X113900000Y-108275000D01*
X114100000Y-108275000D01*
X114100000Y-108825000D01*
X113900000Y-108825000D01*
X113900000Y-109075000D01*
X109700000Y-109075000D01*
X109700000Y-108825000D01*
X109500000Y-108825000D01*
X109500000Y-108275000D01*
X109700000Y-108275000D01*
X109700000Y-106675000D01*
X109500000Y-106675000D01*
X109500000Y-106125000D01*
X109700000Y-106125000D01*
X109700000Y-105875000D01*
X113900000Y-105875000D01*
X113900000Y-106125000D01*
X114100000Y-106125000D01*
%TO.C,C11*%
X106580000Y-99150000D02*
X107580000Y-99150000D01*
X107580000Y-99650000D01*
X106580000Y-99650000D01*
X106580000Y-99150000D01*
%TO.C,C4*%
X101080000Y-108750000D02*
X102080000Y-108750000D01*
X102080000Y-109250000D01*
X101080000Y-109250000D01*
X101080000Y-108750000D01*
%TD*%
M02*
