%TF.GenerationSoftware,KiCad,Pcbnew,10.0.5-1-g226df246f3*%
%TF.CreationDate,2026-08-27T21:19:04+09:00*%
%TF.ProjectId,rp2350_bare,72703233-3530-45f6-9261-72652e6b6963,R4*%
%TF.SameCoordinates,Original*%
%TF.FileFunction,Soldermask,Bot*%
%TF.FilePolarity,Negative*%
%FSLAX46Y46*%
G04 Gerber Fmt 4.6, Leading zero omitted, Abs format (unit mm)*
G04 Created by KiCad (PCBNEW 10.0.5-1-g226df246f3) date 2026-08-27 21:19:04*
%MOMM*%
%LPD*%
G01*
G04 APERTURE LIST*
G04 Aperture macros list*
%AMRoundRect*
0 Rectangle with rounded corners*
0 $1 Rounding radius*
0 $2 $3 $4 $5 $6 $7 $8 $9 X,Y pos of 4 corners*
0 Add a 4 corners polygon primitive as box body*
4,1,4,$2,$3,$4,$5,$6,$7,$8,$9,$2,$3,0*
0 Add four circle primitives for the rounded corners*
1,1,$1+$1,$2,$3*
1,1,$1+$1,$4,$5*
1,1,$1+$1,$6,$7*
1,1,$1+$1,$8,$9*
0 Add four rect primitives between the rounded corners*
20,1,$1+$1,$2,$3,$4,$5,0*
20,1,$1+$1,$4,$5,$6,$7,0*
20,1,$1+$1,$6,$7,$8,$9,0*
20,1,$1+$1,$8,$9,$2,$3,0*%
G04 Aperture macros list end*
%ADD10O,1.050000X1.450000*%
%ADD11O,1.100000X1.800000*%
%ADD12R,1.600000X1.600000*%
%ADD13C,1.600000*%
%ADD14C,3.150000*%
%ADD15C,1.800000*%
%ADD16C,2.800000*%
%ADD17R,0.600000X1.000000*%
%ADD18RoundRect,0.220000X-0.330000X-0.330000X0.330000X-0.330000X0.330000X0.330000X-0.330000X0.330000X0*%
G04 APERTURE END LIST*
D10*
%TO.C,J1*%
X102425000Y-74730000D03*
D11*
X102725000Y-71700000D03*
D10*
X97575000Y-74730000D03*
D11*
X97275000Y-71700000D03*
%TD*%
D12*
%TO.C,J5*%
X75870000Y-74000000D03*
D13*
X78410000Y-74000000D03*
X75870000Y-76540000D03*
X78410000Y-76540000D03*
X75870000Y-79080000D03*
X78410000Y-79080000D03*
X75870000Y-81620000D03*
X78410000Y-81620000D03*
X75870000Y-84160000D03*
X78410000Y-84160000D03*
X75870000Y-86700000D03*
X78410000Y-86700000D03*
X75870000Y-89240000D03*
X78410000Y-89240000D03*
X75870000Y-91780000D03*
X78410000Y-91780000D03*
X75870000Y-94320000D03*
X78410000Y-94320000D03*
X75870000Y-96860000D03*
X78410000Y-96860000D03*
X75870000Y-99400000D03*
X78410000Y-99400000D03*
X75870000Y-101940000D03*
X78410000Y-101940000D03*
X75870000Y-104480000D03*
X78410000Y-104480000D03*
X75870000Y-107020000D03*
X78410000Y-107020000D03*
X75870000Y-109560000D03*
X78410000Y-109560000D03*
X75870000Y-112100000D03*
X78410000Y-112100000D03*
X75870000Y-114640000D03*
X78410000Y-114640000D03*
X75870000Y-117180000D03*
X78410000Y-117180000D03*
%TD*%
D12*
%TO.C,J3*%
X121590000Y-74000000D03*
D13*
X124130000Y-74000000D03*
X121590000Y-76540000D03*
X124130000Y-76540000D03*
X121590000Y-79080000D03*
X124130000Y-79080000D03*
X121590000Y-81620000D03*
X124130000Y-81620000D03*
X121590000Y-84160000D03*
X124130000Y-84160000D03*
X121590000Y-86700000D03*
X124130000Y-86700000D03*
X121590000Y-89240000D03*
X124130000Y-89240000D03*
X121590000Y-91780000D03*
X124130000Y-91780000D03*
X121590000Y-94320000D03*
X124130000Y-94320000D03*
X121590000Y-96860000D03*
X124130000Y-96860000D03*
X121590000Y-99400000D03*
X124130000Y-99400000D03*
X121590000Y-101940000D03*
X124130000Y-101940000D03*
X121590000Y-104480000D03*
X124130000Y-104480000D03*
X121590000Y-107020000D03*
X124130000Y-107020000D03*
X121590000Y-109560000D03*
X124130000Y-109560000D03*
X121590000Y-112100000D03*
X124130000Y-112100000D03*
X121590000Y-114640000D03*
X124130000Y-114640000D03*
X121590000Y-117180000D03*
X124130000Y-117180000D03*
%TD*%
D14*
%TO.C,MH2*%
X113970000Y-74000000D03*
%TD*%
%TO.C,MH3*%
X113970000Y-117180000D03*
%TD*%
%TO.C,MH1*%
X86030000Y-74000000D03*
%TD*%
%TO.C,MH4*%
X86030000Y-117180000D03*
%TD*%
D15*
%TO.C,J2*%
X96500000Y-70000000D03*
X99000000Y-70000000D03*
X101000000Y-70000000D03*
X103500000Y-70000000D03*
D16*
X93430000Y-72700000D03*
X106570000Y-72700000D03*
%TD*%
D17*
%TO.C,U5*%
X87050000Y-80950000D03*
X88000000Y-80950000D03*
X88950000Y-80950000D03*
X88950000Y-79050000D03*
X87050000Y-79050000D03*
%TD*%
%TO.C,U6*%
X111050000Y-80950000D03*
X112000000Y-80950000D03*
X112950000Y-80950000D03*
X112950000Y-79050000D03*
X112000000Y-79050000D03*
X111050000Y-79050000D03*
%TD*%
D18*
%TO.C,R11*%
X105200000Y-84000000D03*
X106800000Y-84000000D03*
%TD*%
%TO.C,R12*%
X105200000Y-88000000D03*
X106800000Y-88000000D03*
%TD*%
%TO.C,F1*%
X83200000Y-70000000D03*
X84800000Y-70000000D03*
%TD*%
M02*
