%TF.GenerationSoftware,KiCad,Pcbnew,10.0.5-1-g226df246f3*%
%TF.CreationDate,2026-08-27T21:19:04+09:00*%
%TF.ProjectId,rp2350_bare,72703233-3530-45f6-9261-72652e6b6963,R4*%
%TF.SameCoordinates,Original*%
%TF.FileFunction,Soldermask,Top*%
%TF.FilePolarity,Negative*%
%FSLAX46Y46*%
G04 Gerber Fmt 4.6, Leading zero omitted, Abs format (unit mm)*
G04 Created by KiCad (PCBNEW 10.0.5-1-g226df246f3) date 2026-08-27 21:19:04*
%MOMM*%
%LPD*%
G01*
G04 APERTURE LIST*
G04 Aperture macros list*
%AMFreePoly0*
4,1,25,0.650000,-2.100000,0.646578,-2.100000,0.646578,-2.152210,0.619552,-2.253073,0.567341,-2.343505,0.493505,-2.417341,0.403073,-2.469552,0.302210,-2.496578,0.250000,-2.496578,0.250000,-2.500000,-0.250000,-2.500000,-0.250000,-2.496578,-0.302210,-2.496578,-0.403073,-2.469552,-0.493505,-2.417341,-0.567341,-2.343505,-0.619552,-2.253073,-0.646578,-2.152210,-0.646578,-2.100000,-0.650000,-2.100000,
-0.650000,-0.050000,-1.175000,-0.050000,-1.175000,0.650000,0.650000,0.650000,0.650000,-2.100000,0.650000,-2.100000,$1*%
%AMFreePoly1*
4,1,25,1.175000,-0.050000,0.650000,-0.050000,0.650000,-2.100000,0.646578,-2.100000,0.646578,-2.152210,0.619552,-2.253073,0.567341,-2.343505,0.493505,-2.417341,0.403073,-2.469552,0.302210,-2.496578,0.250000,-2.496578,0.250000,-2.500000,-0.250000,-2.500000,-0.250000,-2.496578,-0.302210,-2.496578,-0.403073,-2.469552,-0.493505,-2.417341,-0.567341,-2.343505,-0.619552,-2.253073,-0.646578,-2.152210,
-0.646578,-2.100000,-0.650000,-2.100000,-0.650000,0.650000,1.175000,0.650000,1.175000,-0.050000,1.175000,-0.050000,$1*%
G04 Aperture macros list end*
%ADD10C,0.000000*%
%ADD11R,1.000000X1.400000*%
%ADD12R,0.400000X1.750000*%
%ADD13R,2.000000X1.450000*%
%ADD14FreePoly0,180.000000*%
%ADD15R,1.425000X2.100000*%
%ADD16FreePoly1,180.000000*%
%ADD17R,1.600000X1.600000*%
%ADD18C,1.600000*%
%ADD19R,0.550000X0.550000*%
%ADD20R,1.500000X2.000000*%
%ADD21R,3.800000X2.000000*%
%ADD22R,1.700000X0.650000*%
%ADD23C,3.150000*%
%ADD24R,0.470000X0.550000*%
%ADD25R,0.700000X1.700000*%
%ADD26R,0.650000X1.050000*%
%ADD27R,0.600000X1.550000*%
%ADD28R,1.200000X1.800000*%
%ADD29R,1.400000X1.200000*%
%ADD30R,0.700000X0.230000*%
%ADD31R,0.230000X0.700000*%
%ADD32R,1.050000X0.650000*%
%ADD33C,1.800000*%
%ADD34C,2.800000*%
G04 APERTURE END LIST*
D10*
%TO.C,U1*%
G36*
X98502567Y-101239158D02*
G01*
X98522836Y-101314805D01*
X98561994Y-101382628D01*
X98617372Y-101438006D01*
X98685195Y-101477164D01*
X98760842Y-101497433D01*
X98800000Y-101497433D01*
X98800000Y-101700000D01*
X98300000Y-101700000D01*
X98300000Y-101200000D01*
X98502567Y-101200000D01*
X98502567Y-101239158D01*
G37*
G36*
X98800000Y-98502567D02*
G01*
X98760842Y-98502567D01*
X98685195Y-98522836D01*
X98617372Y-98561994D01*
X98561994Y-98617372D01*
X98522836Y-98685195D01*
X98502567Y-98760842D01*
X98502567Y-98800000D01*
X98300000Y-98800000D01*
X98300000Y-98300000D01*
X98800000Y-98300000D01*
X98800000Y-98502567D01*
G37*
G36*
X101700000Y-101700000D02*
G01*
X101200000Y-101700000D01*
X101200000Y-101497433D01*
X101239158Y-101497433D01*
X101314805Y-101477164D01*
X101382628Y-101438006D01*
X101438006Y-101382628D01*
X101477164Y-101314805D01*
X101497433Y-101239158D01*
X101497433Y-101200000D01*
X101700000Y-101200000D01*
X101700000Y-101700000D01*
G37*
G36*
X101700000Y-98800000D02*
G01*
X101497433Y-98800000D01*
X101497433Y-98760842D01*
X101477164Y-98685195D01*
X101438006Y-98617372D01*
X101382628Y-98561994D01*
X101314805Y-98522836D01*
X101239158Y-98502567D01*
X101200000Y-98502567D01*
X101200000Y-98300000D01*
X101700000Y-98300000D01*
X101700000Y-98800000D01*
G37*
G36*
X98502567Y-100039158D02*
G01*
X98522836Y-100114805D01*
X98561994Y-100182628D01*
X98617372Y-100238006D01*
X98685195Y-100277164D01*
X98760842Y-100297433D01*
X98839158Y-100297433D01*
X98914805Y-100277164D01*
X98982628Y-100238006D01*
X99038006Y-100182628D01*
X99077164Y-100114805D01*
X99097433Y-100039158D01*
X99097433Y-100000000D01*
X99702567Y-100000000D01*
X99702567Y-100039158D01*
X99722836Y-100114805D01*
X99761994Y-100182628D01*
X99817372Y-100238006D01*
X99885195Y-100277164D01*
X99960842Y-100297433D01*
X100000000Y-100297433D01*
X100000000Y-100902567D01*
X99960842Y-100902567D01*
X99885195Y-100922836D01*
X99817372Y-100961994D01*
X99761994Y-101017372D01*
X99722836Y-101085195D01*
X99702567Y-101160842D01*
X99702567Y-101239158D01*
X99722836Y-101314805D01*
X99761994Y-101382628D01*
X99817372Y-101438006D01*
X99885195Y-101477164D01*
X99960842Y-101497433D01*
X100000000Y-101497433D01*
X100000000Y-101700000D01*
X98800000Y-101700000D01*
X98800000Y-101497433D01*
X98839158Y-101497433D01*
X98914805Y-101477164D01*
X98982628Y-101438006D01*
X99038006Y-101382628D01*
X99077164Y-101314805D01*
X99097433Y-101239158D01*
X99097433Y-101160842D01*
X99077164Y-101085195D01*
X99038006Y-101017372D01*
X98982628Y-100961994D01*
X98914805Y-100922836D01*
X98839158Y-100902567D01*
X98760842Y-100902567D01*
X98685195Y-100922836D01*
X98617372Y-100961994D01*
X98561994Y-101017372D01*
X98522836Y-101085195D01*
X98502567Y-101160842D01*
X98502567Y-101200000D01*
X98300000Y-101200000D01*
X98300000Y-100000000D01*
X98502567Y-100000000D01*
X98502567Y-100039158D01*
G37*
G36*
X100000000Y-98502567D02*
G01*
X99960842Y-98502567D01*
X99885195Y-98522836D01*
X99817372Y-98561994D01*
X99761994Y-98617372D01*
X99722836Y-98685195D01*
X99702567Y-98760842D01*
X99702567Y-98839158D01*
X99722836Y-98914805D01*
X99761994Y-98982628D01*
X99817372Y-99038006D01*
X99885195Y-99077164D01*
X99960842Y-99097433D01*
X100000000Y-99097433D01*
X100000000Y-99702567D01*
X99960842Y-99702567D01*
X99885195Y-99722836D01*
X99817372Y-99761994D01*
X99761994Y-99817372D01*
X99722836Y-99885195D01*
X99702567Y-99960842D01*
X99702567Y-100000000D01*
X99097433Y-100000000D01*
X99097433Y-99960842D01*
X99077164Y-99885195D01*
X99038006Y-99817372D01*
X98982628Y-99761994D01*
X98914805Y-99722836D01*
X98839158Y-99702567D01*
X98760842Y-99702567D01*
X98685195Y-99722836D01*
X98617372Y-99761994D01*
X98561994Y-99817372D01*
X98522836Y-99885195D01*
X98502567Y-99960842D01*
X98502567Y-100000000D01*
X98300000Y-100000000D01*
X98300000Y-98800000D01*
X98502567Y-98800000D01*
X98502567Y-98839158D01*
X98522836Y-98914805D01*
X98561994Y-98982628D01*
X98617372Y-99038006D01*
X98685195Y-99077164D01*
X98760842Y-99097433D01*
X98839158Y-99097433D01*
X98914805Y-99077164D01*
X98982628Y-99038006D01*
X99038006Y-98982628D01*
X99077164Y-98914805D01*
X99097433Y-98839158D01*
X99097433Y-98760842D01*
X99077164Y-98685195D01*
X99038006Y-98617372D01*
X98982628Y-98561994D01*
X98914805Y-98522836D01*
X98839158Y-98502567D01*
X98800000Y-98502567D01*
X98800000Y-98300000D01*
X100000000Y-98300000D01*
X100000000Y-98502567D01*
G37*
G36*
X100902567Y-100039158D02*
G01*
X100922836Y-100114805D01*
X100961994Y-100182628D01*
X101017372Y-100238006D01*
X101085195Y-100277164D01*
X101160842Y-100297433D01*
X101239158Y-100297433D01*
X101314805Y-100277164D01*
X101382628Y-100238006D01*
X101438006Y-100182628D01*
X101477164Y-100114805D01*
X101497433Y-100039158D01*
X101497433Y-100000000D01*
X101700000Y-100000000D01*
X101700000Y-101200000D01*
X101497433Y-101200000D01*
X101497433Y-101160842D01*
X101477164Y-101085195D01*
X101438006Y-101017372D01*
X101382628Y-100961994D01*
X101314805Y-100922836D01*
X101239158Y-100902567D01*
X101160842Y-100902567D01*
X101085195Y-100922836D01*
X101017372Y-100961994D01*
X100961994Y-101017372D01*
X100922836Y-101085195D01*
X100902567Y-101160842D01*
X100902567Y-101239158D01*
X100922836Y-101314805D01*
X100961994Y-101382628D01*
X101017372Y-101438006D01*
X101085195Y-101477164D01*
X101160842Y-101497433D01*
X101200000Y-101497433D01*
X101200000Y-101700000D01*
X100000000Y-101700000D01*
X100000000Y-101497433D01*
X100039158Y-101497433D01*
X100114805Y-101477164D01*
X100182628Y-101438006D01*
X100238006Y-101382628D01*
X100277164Y-101314805D01*
X100297433Y-101239158D01*
X100297433Y-101160842D01*
X100277164Y-101085195D01*
X100238006Y-101017372D01*
X100182628Y-100961994D01*
X100114805Y-100922836D01*
X100039158Y-100902567D01*
X100000000Y-100902567D01*
X100000000Y-100297433D01*
X100039158Y-100297433D01*
X100114805Y-100277164D01*
X100182628Y-100238006D01*
X100238006Y-100182628D01*
X100277164Y-100114805D01*
X100297433Y-100039158D01*
X100297433Y-100000000D01*
X100902567Y-100000000D01*
X100902567Y-100039158D01*
G37*
G36*
X101200000Y-98502567D02*
G01*
X101160842Y-98502567D01*
X101085195Y-98522836D01*
X101017372Y-98561994D01*
X100961994Y-98617372D01*
X100922836Y-98685195D01*
X100902567Y-98760842D01*
X100902567Y-98839158D01*
X100922836Y-98914805D01*
X100961994Y-98982628D01*
X101017372Y-99038006D01*
X101085195Y-99077164D01*
X101160842Y-99097433D01*
X101239158Y-99097433D01*
X101314805Y-99077164D01*
X101382628Y-99038006D01*
X101438006Y-98982628D01*
X101477164Y-98914805D01*
X101497433Y-98839158D01*
X101497433Y-98800000D01*
X101700000Y-98800000D01*
X101700000Y-100000000D01*
X101497433Y-100000000D01*
X101497433Y-99960842D01*
X101477164Y-99885195D01*
X101438006Y-99817372D01*
X101382628Y-99761994D01*
X101314805Y-99722836D01*
X101239158Y-99702567D01*
X101160842Y-99702567D01*
X101085195Y-99722836D01*
X101017372Y-99761994D01*
X100961994Y-99817372D01*
X100922836Y-99885195D01*
X100902567Y-99960842D01*
X100902567Y-100000000D01*
X100297433Y-100000000D01*
X100297433Y-99960842D01*
X100277164Y-99885195D01*
X100238006Y-99817372D01*
X100182628Y-99761994D01*
X100114805Y-99722836D01*
X100039158Y-99702567D01*
X100000000Y-99702567D01*
X100000000Y-99097433D01*
X100039158Y-99097433D01*
X100114805Y-99077164D01*
X100182628Y-99038006D01*
X100238006Y-98982628D01*
X100277164Y-98914805D01*
X100297433Y-98839158D01*
X100297433Y-98760842D01*
X100277164Y-98685195D01*
X100238006Y-98617372D01*
X100182628Y-98561994D01*
X100114805Y-98522836D01*
X100039158Y-98502567D01*
X100000000Y-98502567D01*
X100000000Y-98300000D01*
X101200000Y-98300000D01*
X101200000Y-98502567D01*
G37*
%TD*%
D11*
%TO.C,C5*%
X108125000Y-89000000D03*
X109925000Y-89000000D03*
%TD*%
D12*
%TO.C,J1*%
X101300000Y-74525000D03*
X100650000Y-74525000D03*
X100000000Y-74525000D03*
X99350000Y-74525000D03*
X98700000Y-74525000D03*
D13*
X102900000Y-74730000D03*
D14*
X102725000Y-73100000D03*
D15*
X100950000Y-71650000D03*
D13*
X97100000Y-74730000D03*
D16*
X97275000Y-73100000D03*
D15*
X99050000Y-71650000D03*
%TD*%
D17*
%TO.C,J5*%
X75870000Y-74000000D03*
D18*
X78410000Y-74000000D03*
X75870000Y-76540000D03*
X78410000Y-76540000D03*
X75870000Y-79080000D03*
X78410000Y-79080000D03*
X75870000Y-81620000D03*
X78410000Y-81620000D03*
X75870000Y-84160000D03*
X78410000Y-84160000D03*
X75870000Y-86700000D03*
X78410000Y-86700000D03*
X75870000Y-89240000D03*
X78410000Y-89240000D03*
X75870000Y-91780000D03*
X78410000Y-91780000D03*
X75870000Y-94320000D03*
X78410000Y-94320000D03*
X75870000Y-96860000D03*
X78410000Y-96860000D03*
X75870000Y-99400000D03*
X78410000Y-99400000D03*
X75870000Y-101940000D03*
X78410000Y-101940000D03*
X75870000Y-104480000D03*
X78410000Y-104480000D03*
X75870000Y-107020000D03*
X78410000Y-107020000D03*
X75870000Y-109560000D03*
X78410000Y-109560000D03*
X75870000Y-112100000D03*
X78410000Y-112100000D03*
X75870000Y-114640000D03*
X78410000Y-114640000D03*
X75870000Y-117180000D03*
X78410000Y-117180000D03*
%TD*%
D19*
%TO.C,C15*%
X93990000Y-101400000D03*
X93040000Y-101400000D03*
%TD*%
%TO.C,C2*%
X96660000Y-82830000D03*
X95710000Y-82830000D03*
%TD*%
%TO.C,R1*%
X93000000Y-81725000D03*
X93000000Y-82675000D03*
%TD*%
D17*
%TO.C,J3*%
X121590000Y-74000000D03*
D18*
X124130000Y-74000000D03*
X121590000Y-76540000D03*
X124130000Y-76540000D03*
X121590000Y-79080000D03*
X124130000Y-79080000D03*
X121590000Y-81620000D03*
X124130000Y-81620000D03*
X121590000Y-84160000D03*
X124130000Y-84160000D03*
X121590000Y-86700000D03*
X124130000Y-86700000D03*
X121590000Y-89240000D03*
X124130000Y-89240000D03*
X121590000Y-91780000D03*
X124130000Y-91780000D03*
X121590000Y-94320000D03*
X124130000Y-94320000D03*
X121590000Y-96860000D03*
X124130000Y-96860000D03*
X121590000Y-99400000D03*
X124130000Y-99400000D03*
X121590000Y-101940000D03*
X124130000Y-101940000D03*
X121590000Y-104480000D03*
X124130000Y-104480000D03*
X121590000Y-107020000D03*
X124130000Y-107020000D03*
X121590000Y-109560000D03*
X124130000Y-109560000D03*
X121590000Y-112100000D03*
X124130000Y-112100000D03*
X121590000Y-114640000D03*
X124130000Y-114640000D03*
X121590000Y-117180000D03*
X124130000Y-117180000D03*
%TD*%
D20*
%TO.C,U2*%
X110300000Y-79700000D03*
X108000000Y-79700000D03*
X105700000Y-79700000D03*
D21*
X108000000Y-86000000D03*
%TD*%
D22*
%TO.C,U3*%
X89450000Y-85370000D03*
X89450000Y-86640000D03*
X89450000Y-87910000D03*
X89450000Y-89180000D03*
X96650000Y-89180000D03*
X96650000Y-87910000D03*
X96650000Y-86640000D03*
X96650000Y-85370000D03*
%TD*%
D19*
%TO.C,C12*%
X97900000Y-93075000D03*
X97900000Y-92125000D03*
%TD*%
%TO.C,C14*%
X106610000Y-100400000D03*
X107560000Y-100400000D03*
%TD*%
%TO.C,C16*%
X105210000Y-104000000D03*
X106160000Y-104000000D03*
%TD*%
%TO.C,R7*%
X98900000Y-92125000D03*
X98900000Y-93075000D03*
%TD*%
D11*
%TO.C,C1*%
X107037500Y-76500000D03*
X108837500Y-76500000D03*
%TD*%
D19*
%TO.C,C13*%
X93990000Y-96600000D03*
X93040000Y-96600000D03*
%TD*%
D23*
%TO.C,MH2*%
X113970000Y-74000000D03*
%TD*%
D19*
%TO.C,R8*%
X99900000Y-92125000D03*
X99900000Y-93075000D03*
%TD*%
D23*
%TO.C,MH3*%
X113970000Y-117180000D03*
%TD*%
D19*
%TO.C,C17*%
X106010000Y-97000000D03*
X106960000Y-97000000D03*
%TD*%
D23*
%TO.C,MH1*%
X86030000Y-74000000D03*
%TD*%
%TO.C,MH4*%
X86030000Y-117180000D03*
%TD*%
D11*
%TO.C,C19*%
X84215000Y-78000000D03*
X86015000Y-78000000D03*
%TD*%
D24*
%TO.C,C7*%
X101485000Y-94450000D03*
X102515000Y-94450000D03*
%TD*%
D25*
%TO.C,L1*%
X101300000Y-92800000D03*
X102700000Y-92800000D03*
%TD*%
D19*
%TO.C,C9*%
X104200000Y-94475000D03*
X104200000Y-95425000D03*
%TD*%
%TO.C,R4*%
X115400000Y-108625000D03*
X115400000Y-109575000D03*
%TD*%
D26*
%TO.C,SW1*%
X92275000Y-73125000D03*
X92275000Y-77275000D03*
X90125000Y-73125000D03*
X90125000Y-77275000D03*
%TD*%
D27*
%TO.C,J4*%
X106600000Y-110800000D03*
X107600000Y-110800000D03*
X108600000Y-110800000D03*
D28*
X105300000Y-114675000D03*
X109900000Y-114675000D03*
%TD*%
D19*
%TO.C,R3*%
X104200000Y-92625000D03*
X104200000Y-93575000D03*
%TD*%
%TO.C,R9*%
X91300000Y-81725000D03*
X91300000Y-82675000D03*
%TD*%
D29*
%TO.C,X1*%
X98900000Y-113250000D03*
X101100000Y-113250000D03*
X101100000Y-111550000D03*
X98900000Y-111550000D03*
%TD*%
D19*
%TO.C,R2*%
X99600000Y-106425000D03*
X99600000Y-107375000D03*
%TD*%
%TO.C,C10*%
X100800000Y-106405000D03*
X100800000Y-107355000D03*
%TD*%
%TO.C,C3*%
X99075000Y-109000000D03*
X98125000Y-109000000D03*
%TD*%
D30*
%TO.C,U1*%
X96550000Y-97200000D03*
X96550000Y-97600000D03*
X96550000Y-98000000D03*
X96550000Y-98400000D03*
X96550000Y-98800000D03*
X96550000Y-99200000D03*
X96550000Y-99600000D03*
X96550000Y-100000000D03*
X96550000Y-100400000D03*
X96550000Y-100800000D03*
X96550000Y-101200000D03*
X96550000Y-101600000D03*
X96550000Y-102000000D03*
X96550000Y-102400000D03*
X96550000Y-102800000D03*
D31*
X97200000Y-103450000D03*
X97600000Y-103450000D03*
X98000000Y-103450000D03*
X98400000Y-103450000D03*
X98800000Y-103450000D03*
X99200000Y-103450000D03*
X99600000Y-103450000D03*
X100000000Y-103450000D03*
X100400000Y-103450000D03*
X100800000Y-103450000D03*
X101200000Y-103450000D03*
X101600000Y-103450000D03*
X102000000Y-103450000D03*
X102400000Y-103450000D03*
X102800000Y-103450000D03*
D30*
X103450000Y-102800000D03*
X103450000Y-102400000D03*
X103450000Y-102000000D03*
X103450000Y-101600000D03*
X103450000Y-101200000D03*
X103450000Y-100800000D03*
X103450000Y-100400000D03*
X103450000Y-100000000D03*
X103450000Y-99600000D03*
X103450000Y-99200000D03*
X103450000Y-98800000D03*
X103450000Y-98400000D03*
X103450000Y-98000000D03*
X103450000Y-97600000D03*
X103450000Y-97200000D03*
D31*
X102800000Y-96550000D03*
X102400000Y-96550000D03*
X102000000Y-96550000D03*
X101600000Y-96550000D03*
X101200000Y-96550000D03*
X100800000Y-96550000D03*
X100400000Y-96550000D03*
X100000000Y-96550000D03*
X99600000Y-96550000D03*
X99200000Y-96550000D03*
X98800000Y-96550000D03*
X98400000Y-96550000D03*
X98000000Y-96550000D03*
X97600000Y-96550000D03*
X97200000Y-96550000D03*
%TD*%
D19*
%TO.C,C8*%
X93995000Y-99000000D03*
X93045000Y-99000000D03*
%TD*%
%TO.C,R10*%
X88425000Y-82700000D03*
X89375000Y-82700000D03*
%TD*%
%TO.C,R6*%
X88425000Y-81300000D03*
X89375000Y-81300000D03*
%TD*%
%TO.C,C18*%
X98200000Y-105605000D03*
X98200000Y-106555000D03*
%TD*%
D24*
%TO.C,C6*%
X101485000Y-95390000D03*
X102515000Y-95390000D03*
%TD*%
D32*
%TO.C,SW2*%
X113875000Y-108550000D03*
X109725000Y-108550000D03*
X113875000Y-106400000D03*
X109725000Y-106400000D03*
%TD*%
D19*
%TO.C,C11*%
X106605000Y-99400000D03*
X107555000Y-99400000D03*
%TD*%
%TO.C,C4*%
X101105000Y-109000000D03*
X102055000Y-109000000D03*
%TD*%
D33*
%TO.C,J2*%
X96500000Y-70000000D03*
X99000000Y-70000000D03*
X101000000Y-70000000D03*
X103500000Y-70000000D03*
D34*
X93430000Y-72700000D03*
X106570000Y-72700000D03*
%TD*%
M02*
